<svg width="806" height="1468" viewBox="0 0 806 1468" fill="none" xmlns="http://www.w3.org/2000/svg">
<path fill-rule="evenodd" clip-rule="evenodd" d="M257.796 731.49C257.338 733.759 256.648 736.216 255.93 738.419C259.508 741.863 264.573 746.479 268.208 749.814C264.613 727.608 275.551 707.113 282.245 686.109C279.72 682.871 270.926 679.557 271.209 675.967C271.888 662.667 272.889 647.823 274.333 631.172C279.221 579.175 284.085 524.949 272.548 472.794C271.76 467.125 270.564 461.163 262.96 461.031C240.502 550.412 258.7 640.404 258.205 730.348L258.858 730.934L257.796 731.49ZM224.166 1463.82C205.713 1463.83 188.749 1460.47 172.327 1453.68C167.588 1452.01 161.701 1449.94 160.88 1446.59C159.53 1437.41 160.465 1428.38 161.454 1418.83C163.018 1402.44 162.862 1389.71 167.284 1372.06C172.017 1355.68 176.051 1342.87 171.432 1325.93C171.062 1320.88 175.007 1315.75 177.612 1311.03C181.302 1304.15 183.174 1296.98 186.104 1289.92C180.347 1288.91 174.37 1287.53 168.843 1285.82L167.915 1289.16C167.711 1289.9 167.149 1290.27 166.246 1290.27C165.687 1290.27 164.257 1290 164.048 1288.81C164.915 1275.9 166.171 1263.07 167.491 1249.96C181.19 1123.69 201.934 1019.6 236.77 915.787C245.136 891.474 253.683 866.165 253.744 839.749C248.987 838.729 243.69 838.143 238.841 838.814C204.297 830.809 211.126 757.736 212.5 735.867C210.064 735.135 207.337 734.1 205.316 732.713L204.498 733.112C170.196 647.982 184.283 507.231 192.129 412.609C197.277 378.597 190.036 317.158 220.193 300.351C244.543 291.728 268.784 286.882 294.229 281.195C298.941 278.49 304.756 276.947 310.014 275.196L307.298 271.378C303.736 266.358 304.209 256.514 308.869 253.054C311.733 253.213 315.756 256.089 318.493 257.44C322.43 249.301 326.074 240.787 328.689 231.006L329.629 231.343C332.381 203.679 368.252 198.85 388.477 208.095C410.556 220.215 399.057 247.632 409.095 267.424L412.733 262.574C418.351 262.47 430.235 269.836 433.097 272.6C435.146 273.555 433.664 279.983 433.962 282.568C463.581 289.274 504.123 291.115 513.538 324.359C529.201 386.87 526.998 450.955 544.77 513.244C563.375 563.736 590.701 625.518 590.931 671.759C591.461 680.425 592.628 729.44 585.454 727.469L580.72 732.193C587.17 742.488 582.049 757.896 579.578 770.086C573.49 795.951 561.594 823.82 536.184 811.425C508.854 962.327 440.166 1114.55 463.597 1270.2C463.878 1271.11 463.309 1272.11 462.334 1271.71L461.18 1271.18C458.2 1272.1 454.418 1272.42 451.306 1273.12C453.954 1283.04 455.375 1292.84 456.749 1303.82C458.416 1304.81 457.638 1307.44 457.723 1309.03C482.588 1307.84 496.533 1333.88 514.365 1348.2C526.139 1358.7 539.548 1368.7 554.222 1377.92C566.347 1384.81 576.578 1392.7 574.736 1405.71C574.911 1405.69 578.653 1405.11 578.836 1405.1C584.476 1423.86 565.956 1427.75 546.882 1430.01C500.271 1434.69 460.427 1424.34 406.463 1404.71C399.845 1405.5 394.687 1395.66 393.807 1388.99C392.935 1384.52 395.412 1379.97 393.521 1375.16C387.014 1361.33 383.627 1324.73 392.801 1308.31C396.021 1304.59 400.152 1301.15 399.616 1294.73C399.466 1288.29 398.861 1281.86 399.405 1275.54C388.378 1274.48 377.462 1272.1 367.842 1268.25C366.139 1268.9 364.205 1268.09 364.086 1265.96C362.24 1236.54 360.03 1204.39 359.552 1174.27C357.335 1108.72 372.327 1044.75 383.8 981.176C384.596 960.78 388.361 941.077 389.548 920.672C390.824 901.321 391.05 882.376 392.16 863.053L385.539 861.616C330.572 1003.33 287.526 1145.15 257.398 1283.93C258.079 1284.51 260.016 1285.17 259.934 1286.35C259.911 1286.98 259.926 1287.02 259.494 1287.09C252.215 1288.55 245.012 1289.62 237.798 1290.46C239.832 1307.77 228.983 1327.79 238.585 1344.01C241.135 1347.92 241.245 1348.73 239.682 1351.42C253.671 1377.46 262.34 1399.12 267.958 1422.4L271.578 1419.34C276.826 1423.15 276.935 1430.35 277.05 1437.96C276.676 1442.39 278.841 1447.04 275.525 1450.77C267.543 1460.1 239.723 1463.77 224.166 1463.82V1463.82Z" fill="#AE5D29"/>
<path fill-rule="evenodd" clip-rule="evenodd" d="M242.513 1345.83C242.802 1347.02 237.761 1347.56 238.053 1348.62C241.105 1358.85 249.742 1363.09 253.647 1372.93L255.476 1377.55C260.409 1390.02 265.188 1402.54 268.143 1415.77L268.636 1417.98C268.636 1417.98 278.174 1427.12 278.438 1433.45C278.438 1433.45 279.452 1449.55 276.379 1451.87C253.969 1467.15 223.665 1466.71 197.762 1462.7C187.435 1460.81 177.354 1457.67 167.782 1453.36C164.164 1452.13 161.458 1450.84 159.803 1448.7C158.397 1446.89 157.816 1444.49 158.044 1441.15C157.449 1435.48 157.885 1430.07 158.383 1424.66L158.617 1422.14C159.035 1417.58 159.396 1413.01 159.17 1408.41C159.867 1390.59 165.517 1372.89 169.514 1355.49L173.808 1348.62C173.808 1348.62 180.735 1338.45 189.601 1338.48C189.601 1338.48 204.789 1330.64 216.547 1332.11C228.305 1333.58 242.513 1345.83 242.513 1345.83ZM400.803 1304.06C405.812 1320.91 413.27 1329.33 423.176 1329.33C438.034 1329.33 440.004 1309.72 451.651 1309.72C451.651 1309.72 461.092 1309.25 471.216 1308.46C481.262 1312.05 489.544 1320.22 497.491 1328.57L501.768 1333.09C506.203 1337.77 510.609 1342.3 515.208 1346C527.523 1356.99 540.853 1366.77 554.82 1375.54L555.921 1376.2C561.347 1379.42 567.285 1383.22 571.379 1388.15C574.357 1391.74 576.343 1395.94 576.291 1400.99L576.273 1402.72C576.273 1402.72 580.992 1407.22 581.037 1409.12L581.052 1409.77C581.065 1410.28 578.526 1421.2 574.421 1423.92C568.648 1427.75 547.412 1431.12 546.674 1431.23C499.607 1436.28 451.961 1423.72 408.331 1406.55L406.639 1405.88C406.519 1405.9 406.398 1405.92 406.276 1405.94C402.771 1406.4 399.756 1404.53 397.371 1401.83C394.076 1398.09 391.93 1392.69 391.417 1388.51C391.027 1386.74 392.059 1377.61 391.338 1375.37C385.27 1361.57 384.472 1346.57 385.341 1331.87C385.114 1314.58 388.875 1309.08 392.168 1305.08L393.017 1304.06L400.803 1304.06Z" fill="white"/>
<path fill-rule="evenodd" clip-rule="evenodd" d="M309.218 250.438L309.355 250.459L394.893 299.747L416.799 267.169L422.921 263.163L423.496 263.456C427.607 265.577 431.474 268.214 433.509 270.076C434.632 270.82 435.146 271.562 435.413 272.396C435.764 273.493 435.749 274.717 435.677 275.956L435.612 276.95C435.566 277.662 435.52 278.373 435.511 279.066C435.506 279.471 435.514 279.883 435.527 280.298L436.701 280.527C437.966 280.773 439.243 281.016 440.531 281.258L448.375 282.722C465.955 286.023 484.542 289.931 498.074 299.507C508.247 306.706 515.499 317.156 517.195 333.039C522.572 355.995 525.425 379.187 528.068 402.391L528.598 406.991L530.015 419.356C534.013 454.01 538.476 488.736 549.239 522.032L550.205 524.393C550.684 525.563 551.159 526.72 551.632 527.871L554.653 535.218C571.255 575.631 587.59 616.659 591.576 660.551C593.828 682.4 593.485 704.474 589.747 726.132C589.529 727.3 588.604 728.118 587.549 728.548C586.391 729.02 585.003 729.062 583.964 728.407L581.939 730.438C588.735 741.132 584.042 759.291 579.988 773.368L578.347 779.035C577.953 780.402 577.582 781.706 577.247 782.934C574.033 793.594 568.832 805.201 560.664 811.359C557.573 813.689 554.05 815.22 550.04 815.56C546.356 815.873 542.273 815.185 537.748 813.251C537.181 813.009 536.633 812.758 536.102 812.504L535.731 814.307C535.206 816.858 534.678 819.408 534.145 821.957L491.117 765.201L445.504 722.528L387.616 756.89L274.847 679.722L274.287 682.1L273.831 681.802C272.24 680.753 270.708 679.645 269.72 678.241C268.97 677.176 268.581 675.922 268.841 674.213C269.549 661.431 270.42 648.654 271.464 635.897L272.985 619.07C277.038 573.851 280.429 528.216 272.32 483.278C272.003 481.464 271.642 479.666 271.274 477.869L271.053 476.792C270.755 475.344 270.457 473.895 270.179 472.442L270.125 472.13L269.94 470.986C269.683 469.431 269.273 467.32 268.539 465.725C267.781 464.079 266.672 463.026 265.343 462.794C264.874 462.712 264.396 462.736 263.918 462.858L263.747 463.547C263.719 463.663 263.69 463.779 263.662 463.895C249.359 522.802 252.769 582.885 256.371 642.865L256.866 651.115C258.402 676.839 259.822 702.534 259.726 728.096L259.722 728.912C259.895 728.966 260.06 729.056 260.208 729.19C260.363 729.33 260.471 729.493 260.54 729.667C253.834 734.925 245.103 737.907 234.345 738.613L233.378 738.674C223.301 739.275 215.487 738.787 209.935 737.21L209.989 736.492C209.626 736.391 209.263 736.279 208.902 736.158C207.685 735.751 206.521 735.252 205.463 734.623L204.594 734.107L203.801 734.733C203.417 734.749 203.192 734.521 202.942 734.256C201.919 733.169 200.907 731.193 199.899 728.77L199.686 728.248C196.278 719.809 193.251 706.619 192.261 702.273L192.131 701.705C173.637 617.886 179.946 531.536 186.863 446.524L187.505 438.64C188.016 432.384 188.526 426.135 189.026 419.897C190.509 408.777 191.11 397.402 191.679 385.996L191.961 380.37C193.119 357.609 194.699 334.864 203.677 313.955C209.8 298.355 226.615 294.254 241.461 290.927L244.557 290.234C251.184 288.26 257.841 286.661 264.497 285.126L272.071 283.388C283.106 280.846 294.078 278.161 304.598 274.015C305.229 273.766 305.858 273.512 306.484 273.253C306.037 272.796 305.625 272.308 305.253 271.79C303.206 268.939 302.404 265.209 302.615 261.508C302.833 257.669 304.143 253.84 306.389 251.003C307.191 250.413 308.122 250.304 309.075 250.419L309.218 250.438Z" fill="#9DDADB"/>
<path fill-rule="evenodd" clip-rule="evenodd" d="M326.402 226.837C330.218 229.928 326.238 252.223 323.163 256.772C343.958 270.165 364.971 283.251 386.421 295.518L388.642 296.784L388.573 296.764C389.465 297.164 390.972 297.519 391.856 297.343L392.462 297.142C392.587 297.102 392.66 297.084 392.625 297.112C392.983 296.921 393.331 296.72 393.669 296.49C399.785 290.91 404.241 281.451 409.033 274.096C400.875 266.898 404.94 252.871 405.27 243.289C406.812 243.25 406.994 248.145 407.436 249.565L407.684 250.919C408.272 254.09 408.942 257.321 410.155 260.269C413.683 255.799 431.544 266.361 434.891 269.76C438.536 272.084 437.418 276.218 437.37 279.852C471.267 286.449 514.491 291.09 519.046 333.651C524.405 356.482 527.268 379.721 529.917 402.99L530.348 406.704C534.978 446.744 539.087 487.281 552.159 525.619L557.153 537.534C567.96 563.375 578.501 589.428 585.401 616.618C590.751 628.221 604.995 738.96 583.569 730.417C590.895 742.375 585.411 758.11 582.868 770.894C577.595 791.877 567.072 826.168 538.76 816.057C517.412 930.193 475.125 1040.15 464.434 1156.28C460.962 1194.02 461.035 1232.21 466.932 1269.72C467.728 1273.29 464.322 1276.44 460.842 1274.87C459.095 1275.37 457.245 1275.52 455.453 1275.86C457.517 1284.17 458.726 1292.84 459.824 1301.33L459.946 1302.27L459.951 1302.27C460.808 1303.22 461.228 1304.43 461.19 1305.79C474.125 1305.84 484.947 1314.19 493.565 1323.07C508.509 1338.71 524.287 1353.63 542.171 1365.9C554.972 1376.31 577.43 1382.42 578.15 1401.77C584.685 1400.66 583.121 1414.95 581.962 1418.72C580.605 1422.95 576.661 1425.38 572.878 1427.27C518.485 1445.5 458.572 1427.74 406.857 1408.16C397.794 1409.36 391.317 1397.36 390.347 1389.45C389.36 1385.09 391.679 1380.84 390.327 1376.59L389.882 1375.42C388.254 1371.14 386.716 1366.96 385.789 1362.43L385.654 1361.48C383.449 1345.83 381.673 1319.32 390.057 1306.22C399.837 1297.84 394.775 1289.8 395.756 1278.63C386.099 1277.53 376.551 1275.34 367.516 1271.86C363.954 1272.62 360.846 1269.74 360.611 1266.28L360.263 1260.75C358.44 1231.99 356.542 1203.2 356.068 1174.37C353.837 1108.97 368.652 1044.97 380.317 981.093C381.465 956.468 386.164 932.149 386.824 907.462C387.319 892.588 387.935 877.752 388.681 862.903C335.778 999.271 292.359 1139.44 261.198 1282.39C264.064 1284.34 264.377 1289.64 260.11 1290.5C253.868 1291.74 247.583 1292.76 241.272 1293.53C242.282 1308.88 233.154 1329.64 241.61 1342.65L241.948 1343.17C243.552 1345.67 245.123 1348.52 243.482 1351.41C254.471 1372.05 263.997 1393.57 269.859 1416.3C276.556 1413.55 280.371 1427.17 280.173 1432.08C279.743 1438.53 283.218 1449.4 277.66 1453.81C248.465 1472.63 208.834 1469.71 177.013 1459.29C171.111 1456.76 164.347 1455.04 159.288 1450.99C156.995 1448.66 157.152 1444.84 156.965 1441.81L156.908 1440.25C156.608 1431.55 156.637 1422.68 159.019 1414.11C158.382 1401.7 160.234 1389.12 162.673 1376.97C164.236 1367.17 168.735 1357.85 169.34 1347.96C172.534 1339.11 166.774 1330.83 168.322 1321.98C169.586 1316.59 173.546 1311.93 175.839 1306.91L175.999 1306.55C178.074 1301.98 179.561 1297.25 181.359 1292.56C177.915 1291.91 174.515 1291.1 171.164 1290.13C169.561 1295.94 160.283 1294.3 160.557 1288.37C168.177 1192.85 183.32 1097.86 206.76 1004.93C217.696 949.966 245.937 898.72 250.194 842.63C246.805 841.994 242.945 841.831 239.625 842.214L239.229 842.263C237.108 842.527 235.07 842.899 232.795 841.827C203.61 823.798 206.61 768.555 208.824 738.32C207.507 737.879 206.247 737.336 205.101 736.655C204.087 737.409 202.548 737.453 201.956 736.062C200.461 732.549 198.541 729.119 197.242 725.548C163.425 609.246 185.019 486.686 191.827 368.131C194.48 343.775 194.5 310.706 218.692 297.283C226.81 293.437 235.971 291.786 244.623 289.568C264.479 283.645 285.217 280.992 304.448 273.414C299.974 267.197 301.038 258.13 304.766 251.877C307.723 247.376 313.399 250.82 316.907 252.734C320.956 244.457 323.734 235.633 326.402 226.837ZM271.084 1421.61L271.263 1422.44C272.211 1426.9 273.029 1431.58 272.554 1436.11C285.131 1448.37 227.174 1449.93 220.778 1449.9C206.144 1449.75 163.116 1444.87 160.988 1427.22L161.012 1427.65C161.297 1433.26 160.346 1443.74 163.398 1447.89C186.471 1459.89 213.317 1464.64 239.142 1461.69L240.069 1461.56C250.364 1460.15 269.916 1455.98 274.995 1447.4C273.872 1439.41 276.629 1427.96 271.084 1421.61ZM229.347 1342.34C215.222 1326.96 192.021 1338.2 177.126 1346.78C176.564 1353.51 171.844 1355.99 171.653 1363.05C168.479 1384.63 161.166 1409.02 170.483 1429.86C198.256 1444.73 231.283 1443.72 261.33 1437.32C262.117 1436.29 263.11 1435.99 264.529 1435.6C265.423 1429.28 263.616 1422.92 262.422 1416.78C259.418 1403.89 255.532 1391.22 252.075 1378.44C245.881 1374.44 243.617 1366.04 240.385 1359.7C239.508 1357.92 238.612 1356.14 237.671 1354.38C232.628 1352.73 231.309 1346.7 229.347 1342.34ZM394.928 1384.76C393.409 1400.27 408.534 1406.45 420.762 1410.17C434.524 1415.06 448.624 1419.13 462.802 1422.64C491.849 1430.12 522.131 1433.4 551.905 1428.71L552.423 1428.62C561.013 1427.11 576.403 1425.29 578.356 1415.34L578.377 1415.11C578.509 1413.48 578.763 1407.34 578.15 1405.78C577.925 1405.77 577.704 1405.72 577.494 1405.62C575.005 1413.58 565.936 1418.42 557.196 1419.67C553.074 1423.81 545.48 1422.28 539.985 1422.51C503.713 1422.15 468.843 1410.92 434.474 1400.48C423.537 1396.68 401.738 1393.95 394.928 1384.76ZM398.044 1304.93C391.749 1302.71 390.553 1320.35 389.748 1324.65C387.72 1342.86 387.767 1371.26 402.506 1384.18C417.886 1390.76 434.484 1393.79 450.348 1398.97L454.103 1400.07C484.172 1408.88 515.073 1417.11 546.633 1415.81C549.015 1411.05 564.127 1415.01 569.891 1406.52C577.621 1393.04 558.1 1384.36 548.862 1378.61C531.123 1367.22 514.553 1353.98 499.61 1339.11C492.585 1332.12 486.157 1324.11 477.907 1318.49L477.476 1318.2C470.407 1313.51 461.334 1310.61 453.033 1313.68C444.949 1316.68 441.98 1325.91 435.2 1330.68C420.091 1340.48 404.617 1325 399.708 1310.99L399.562 1310.56C399.386 1310.13 399.866 1309.86 400.229 1309.98C400.194 1309.84 400.17 1309.7 400.141 1309.56C398.235 1309.07 398.054 1306.69 398.044 1304.93ZM183.143 1292.89C185.116 1304.05 179.555 1314.06 175.406 1323.93C174.289 1330.48 178.394 1336.75 177.445 1343.41C191.028 1332.74 211.587 1323.29 227.976 1333.03C228.064 1323.62 231.301 1314.49 234.114 1305.6L235.257 1302.07C236.147 1299.33 237.052 1296.6 238.053 1293.9C219.805 1295.81 201.329 1296 183.143 1292.89ZM450.427 1276.63C434.455 1278.83 418.308 1280.1 402.228 1279.21L404.055 1306.94V1306.94C404.129 1308.08 403.648 1308.87 402.938 1309.32C405.309 1318.33 412.772 1326.35 422.026 1328.3C436.318 1330.15 438.24 1311.19 450.378 1307.69C448.053 1302.47 449.719 1295.6 449.491 1289.92C449.618 1285.45 449.848 1281.02 450.427 1276.63ZM397.833 1301.72C397.524 1302.36 397.162 1302.96 396.765 1303.53C397.186 1303.57 397.593 1303.7 397.975 1303.93C397.931 1303.19 397.882 1302.46 397.833 1301.72ZM253.991 736.63C240.012 741.474 224.758 742.466 210.358 738.785C213.517 762.464 216.69 818.553 236.814 832.229C240.214 831.739 243.629 831.499 247.063 831.842C249.106 832.046 251.127 832.375 253.153 832.689C253.914 832.795 255.43 832.875 256.398 832.806L256.563 832.793C256.306 832.811 256.106 832.807 256.375 832.789L256.788 832.768L257 832.752C263.978 832.125 270.275 822.266 277.179 826.997C278.193 825.462 279.725 824.478 280.902 823.111C286.142 813.932 280.576 802.118 284.077 792.442C282.754 790.634 283.19 787.925 285.268 786.377C288.505 783.402 295.348 785.617 297.212 781.345C297.084 781.577 297.075 781.309 297.125 781.169L297.137 781.14L296.808 780.868C282.507 769.023 268.679 755.787 259.307 739.355L258.993 738.8C257.2 740.54 254.254 739.211 253.991 736.63ZM580.531 728.595C570.684 733.984 560.082 737.889 549.083 740.147C546.824 761.784 544.227 783.431 540.686 804.892L541.525 805.042C546.436 805.941 551.61 807.152 555.854 803.765C569.824 790.183 574.859 762.867 580.345 744.419L580.562 743.58C581.714 739.056 583.037 732.796 580.531 728.595ZM437.341 281.366C435.873 288.711 443.965 368.675 429.207 354.997C419.22 339.307 407.795 324.624 397.583 309.096C396.177 314.647 400.293 321.243 398.348 325.949C424.336 456.224 443.19 588.506 450.177 721.217C461.663 729.286 471.735 739.069 481.61 748.981C484.687 751.599 486.921 755.878 490.743 757.383C506.256 739.836 524.176 724.625 540.485 707.841C540.333 706.69 540.161 705.544 539.965 704.398C539.152 699.63 545.281 697.215 547.647 700.14C552.595 687.576 553.057 672.808 551.831 659.329C549.426 636.67 540.975 615.021 534.937 593.185C517.536 526.383 505.493 456.305 511.192 387.151C511.275 386.509 512.128 386.499 512.203 387.151C516.932 460.209 524.301 533.471 546.261 603.693L546.784 605.429C555.364 633.812 565.976 663.897 558.632 693.663C559.241 697.671 557.319 701.663 554.413 704.544C553.12 707.675 551.68 710.776 549.97 713.697C550.559 720.475 550.274 727.268 549.676 734.013C560.963 731.598 571.492 726.975 581.56 721.403C582.158 718.002 582.682 714.593 583.089 711.169C590.904 647.66 567.067 585.897 543.219 528.245C520.494 461.058 524.932 388.144 505.94 320.177C493.925 293.674 461.107 291.59 437.341 281.366ZM308.529 276.442L307.748 276.716C302.277 278.644 296.79 280.878 290.941 281.043C272.583 287.154 253.759 291.845 235.097 296.945L233.291 297.44C225.325 299.631 217.281 302.134 211.906 308.827C206.752 315.244 204.596 323.509 202.912 331.402C195.019 400.368 190.547 470.032 186.537 539.41C184.571 597.176 185.692 655.908 200.452 712.118C202.535 719.82 205.071 727.547 205.968 735.459C207.041 735.473 208.119 735.547 209.202 735.655C209.218 735.138 210.004 735.222 209.946 735.728C224.288 737.992 239.194 736.653 252.653 731.089C249.329 629.895 227.721 520.065 276.665 426.188C276.865 425.831 277.473 426.076 277.336 426.472L276.129 429.954C272.247 441.173 268.454 452.41 265.724 463.981C269.614 463.403 272.451 472.516 273.187 474.749C294.4 539.173 281.334 607.918 278.634 674.081C315.157 700.644 352.038 726.772 389.994 751.254C407.234 740.048 422.675 725.352 440.388 715.19C435.326 578.502 407.443 443.261 392.287 308.263C386.665 315.25 380.941 322.157 375.223 329.065C367.869 338.095 360.76 347.359 353.509 356.476C352.01 358.368 348.742 357.633 347.674 355.727C333.394 329.912 324.313 301.403 308.529 276.442ZM265.479 465.01C244.41 551.772 261.916 641.12 261.585 728.869C263.152 730.256 262.571 732.885 260.742 733.837C260.472 735.047 260.154 736.247 259.782 737.448C261.251 738.844 262.731 740.231 264.225 741.602C263.089 722.5 272.701 705.147 278.271 687.211C274.266 683.638 266.763 681.424 267.763 674.899C268.537 660.711 269.526 646.532 270.726 632.379L271.467 624.454C276.136 574.218 280.104 523.164 269.125 473.485L269.059 473.108C268.701 470.935 268.015 465.452 265.479 465.01ZM581.477 728.081L581.305 728.173L581.688 728.497C581.609 728.365 581.541 728.223 581.477 728.081ZM455.448 698.519C450.564 693.733 458.103 686.142 462.925 691.042C467.803 695.838 460.259 703.428 455.448 698.519ZM452.23 641.594C451.151 638.764 454.151 634.273 457.325 636.154L457.423 636.215L457.467 636.156C460.47 637.929 459.363 641.604 457.599 643.794C455.645 645.807 453.211 643.416 452.23 641.594ZM447.644 576.056C439.149 564.927 456.996 560.362 454.071 574.062C453.448 576.625 448.309 580.362 447.644 576.056ZM435.082 514.047C430.574 508.536 440.266 503.793 442.294 510.372C443.455 514.761 437.98 517.467 435.082 514.047ZM480.19 377.342C482.859 377.757 496.356 375 492.884 380.62C498.314 407.756 513.586 440.863 491.781 464.575L491.587 464.766C488.371 467.979 483.228 475.615 478.307 472.467C467.384 463.253 453.311 456.668 444.963 444.874C441.454 435.622 444.442 425.284 443.514 415.606C443.117 403.362 441.079 391.232 440.642 379.008C440.623 378.415 441.265 378.224 441.667 378.474C454.476 377.456 467.353 377.681 480.19 377.342ZM442.103 379.331C447.898 398.197 448.028 418.368 447.874 437.922C447.964 439.938 448.321 441.899 449.372 443.439C457.656 453.208 469.46 459.331 479.293 467.445C483.274 464.844 486.426 461.52 489.248 457.749C506.528 435.135 490.87 406.669 490.89 381.488L488.675 381.492C473.164 381.512 457.507 381.309 442.103 379.331ZM429.063 449.395L429.213 449.396C435.156 449.411 433.793 459.483 428.184 458.102C423.455 456.983 424.178 449.457 429.063 449.395V449.395ZM417.405 397.983C413.288 390.966 426.876 388.252 425.445 396.356L425.476 396.024C425.482 395.96 425.488 395.903 425.494 395.852L425.391 396.611V396.611C424.897 400.195 417.821 402.764 417.405 397.983ZM408.283 339.868C412.059 338.869 414.846 344.174 411.605 346.55C406.79 350.184 402.644 341.132 408.283 339.868ZM315.692 257.673L315.231 257.247C310.304 252.722 306.609 250.458 305.516 259.682C304.755 264.18 305.408 269.852 309.72 272.513C330.362 292.925 338.186 322.067 351.486 347.173C363.496 332.625 374.674 317.481 386.29 302.639C370.287 292.886 354.127 283.209 338.341 273.032C330.796 268.016 322.678 263.449 315.692 257.673ZM419.605 269.706C413.397 279.841 407.665 290.803 399.749 299.772C398.739 300.786 397.691 301.59 396.608 302.203C398.158 301.755 400.208 302.914 400.013 304.613C411.537 316.102 420.957 329.466 429.957 342.989C431.679 320.619 428.399 298.156 429.668 275.752C426.744 273.062 423.26 271.22 419.605 269.706Z" fill="black"/>
<path fill-rule="evenodd" clip-rule="evenodd" d="M443.642 148.939C442.587 139.672 443.952 120.302 444.044 119.125C444.622 111.686 441.136 82.3085 434.546 85.0153C423.493 76.2648 408.77 74.3325 395.003 73.4095C366.407 71.4919 335.987 75.8939 313.906 95.1382C302.986 105.132 292.355 119.668 293.209 134.803C283.288 149.149 269.301 168.827 281.662 185.599C285.864 190.957 292.543 192.953 297.821 197.011C308.439 205.575 315.1 217.865 325.818 226.378C354.215 251.895 402.432 257.225 430.331 228.202C451.905 207.182 448.417 175.736 444.622 148.939C442.071 130.923 445.699 167.018 443.642 148.939Z" fill="#AE5D29"/>
<path fill-rule="evenodd" clip-rule="evenodd" d="M356.803 34.1109C364.451 32.5677 372.304 31.6074 380.114 31.8965L380.716 31.9198C386.592 32.1547 394.034 32.6742 399.16 36.0912C399.455 35.7953 399.93 35.6434 400.36 35.8487C406.451 38.7564 413.152 40.8587 419.566 42.9477C425.951 45.0265 432.574 46.3988 439.266 46.9519C441.784 47.1601 443.939 49.8787 442.344 52.3171C441.965 52.8981 441.596 53.4851 441.228 54.0735C441.843 54.0093 442.459 53.9431 443.074 53.8809C445.099 53.6771 447.122 55.8382 447.002 57.8096C446.927 59.0496 446.793 60.2749 446.595 61.4855C447.366 61.4694 448.133 61.585 448.874 61.8981C452.625 63.482 452.363 67.9496 452.083 71.3487C451.694 76.0658 449.93 81.062 446.654 84.5924C449.1 87.1327 450.831 90.1663 451.864 93.7692C452.613 96.4001 453.03 99.2025 452.824 101.941L452.758 102.761C452.504 105.733 451.998 109.024 449.86 111.162C448.762 112.264 447.41 112.666 446.121 112.538C446.901 119.387 447.4 126.276 447.871 133.14L448.091 136.42C449.141 152.284 449.929 168.251 449.723 184.141C449.531 198.991 446.597 213.404 437.489 225.461C429.194 236.441 417.285 244.534 403.812 247.611C396.551 249.272 389.138 249.389 381.79 248.331C378.227 247.817 374.642 247.028 371.261 245.784C367.518 244.402 364.828 242.369 362.31 239.321C361.119 237.876 361.692 234.799 364.064 235.088C367.651 235.523 370.925 236.048 374.364 237.108L374.857 237.264C378.282 238.361 381.829 239.179 385.41 239.527C392.744 240.238 400.191 239.522 407.217 237.298C418.657 233.673 428.509 225.594 434.824 215.442C442.32 203.41 443.168 189.751 443.059 175.915C442.943 160.733 442.449 145.542 441.643 130.376L441.506 127.848C441.08 120.044 440.668 112.235 440.306 104.425C440.194 101.975 440.022 99.5063 439.713 97.0615C436.887 95.4056 434.354 93.1225 432.703 90.3055C429.386 91.6772 425.898 92.6669 422.688 93.4557C415.254 95.2841 407.536 95.728 399.969 94.583C397.928 95.4262 395.846 96.1674 393.733 96.8053C393.161 97.0586 392.59 97.3075 392.019 97.5515C386.924 99.7316 381.755 101.579 376.376 102.931L375.054 103.26C372.224 103.958 369.149 104.645 366.136 104.861C365.642 105.052 365.108 105.214 364.524 105.356C361.781 106.022 358.934 106.233 356.122 105.998C353.383 105.768 351.404 102.999 352.913 100.408C354.015 98.5166 355.128 96.6304 356.25 94.7491C352.345 96.3756 348.313 97.7278 344.247 98.8743C340.141 100.03 335.977 101.005 331.807 101.902C329.578 102.377 327.339 102.799 325.115 103.274C323.523 103.612 321.078 103.788 319.779 104.837C318.344 105.988 317.938 108.673 317.393 110.329C316.678 112.48 316.007 114.64 315.394 116.825C314.175 121.185 313.175 125.61 312.401 130.078C311.627 134.551 311.107 139.068 310.818 143.6C310.53 148.127 310.657 152.683 310.192 157.19C309.941 159.581 307.375 160.811 305.479 159.14C305.256 158.944 305.032 158.746 304.81 158.546L304.479 158.244C302.857 156.774 301.284 155.216 299.987 153.462C299.751 153.138 299.526 152.8 299.315 152.457C299.281 152.457 299.252 152.448 299.217 152.423L298.858 152.152C294.895 149.203 288.275 145.358 284.412 150.258C283.181 151.819 282.55 153.806 282.027 155.724L281.109 159.155C280.515 161.395 279.957 163.648 279.63 165.94C278.89 171.075 279.262 176.993 282.795 181.108C284.206 182.755 286.151 183.93 288.321 184.239C289.532 184.406 290.727 184.2 291.927 184.048C293.147 183.896 294.323 184.141 295.543 184.023C297.483 183.832 298.331 186.155 297.606 187.615C297.214 188.398 296.753 189.075 296.229 189.648C296.65 190.01 297.052 190.402 297.439 190.814C298.585 191.181 299.614 191.97 300.383 193.014C301.006 193.856 301.329 194.772 301.383 195.738C301.451 195.978 301.51 196.223 301.564 196.472L302.615 198.178C302.846 198.552 303.077 198.922 303.308 199.285C305.983 203.498 308.952 207.065 312.641 210.426C316.193 213.659 320.049 216.555 323.385 220.023L323.779 220.435C326.889 223.713 330.169 227.681 328.951 232.448C328.638 233.673 326.927 234.554 325.811 233.726C322.219 231.061 320.411 226.838 317.364 223.605C314.228 220.273 310.755 217.28 307.61 213.958C304.636 210.822 302.289 207.27 300.521 203.361C299.815 204.14 298.786 204.693 297.361 204.909C294.911 205.276 292.627 203.841 291.56 201.72C290.874 202.023 290.173 202.298 289.467 202.513C285.754 203.65 283.417 199.52 284.819 196.468C285.568 194.831 286.503 193.41 287.665 192.215C284.034 191.715 280.34 189.839 277.954 187.497C271.968 181.613 271.145 172.77 272.492 164.907C273.207 160.737 274.441 156.519 276.044 152.604C276.323 151.923 276.622 151.238 276.95 150.561C276.769 150.557 276.582 150.478 276.465 150.326C275.382 148.847 274.065 147.637 273.261 145.981C272.521 144.462 271.698 142.924 271.115 141.341C269.915 138.103 269.327 134.448 268.935 131.023C268.127 124.012 268.44 117.046 269.513 110.079C271.34 98.2129 275.753 86.8574 282.255 76.8932C281.901 76.7072 281.562 76.4827 281.246 76.2171L281.09 76.0809L280.836 75.8517C278.981 74.1727 279.141 71.0259 280.836 69.3253L281.371 68.7887C282.049 68.1152 282.634 67.5816 283.729 66.8483C283.891 66.74 284.056 66.6381 284.223 66.5431C283.65 65.4838 283.451 64.2453 283.85 62.8789C285.241 58.1188 292.09 58.2873 296.432 60.3631C301.234 56.0768 306.56 52.3558 312.332 49.3427C326.08 42.1702 341.625 37.1681 356.803 34.1109ZM285.74 159.483C288.307 158.645 291.717 160.404 294.024 161.462C296.949 162.805 299.438 164.789 301.848 166.886C303.049 167.934 303.264 169.649 302.966 171.114C302.936 171.261 302.907 171.413 302.872 171.565C302.553 173.127 300.809 174.357 299.266 174.313C296.037 174.225 294.5 171.437 292.672 169.076C292.457 169.458 292.187 169.811 291.853 170.075L291.628 170.252C290.87 170.829 290.034 171.291 289.032 171.246C288.321 171.212 287.641 171.031 287.013 170.702C285.445 169.874 284.755 167.846 285.181 166.195C285.445 165.156 286.053 164.343 286.846 163.78L286.551 163.577C285.918 163.137 285.34 162.672 284.89 161.987L284.789 161.825H284.828C284.338 160.982 284.657 159.836 285.74 159.483Z" fill="black"/>
<path fill-rule="evenodd" clip-rule="evenodd" d="M386.35 208.672C383.056 207.329 380.118 205.088 377.969 202.225C377.222 201.229 377.029 200.178 377.185 199.217C377.361 198.136 378.001 197.157 378.873 196.5C379.748 195.84 380.842 195.515 381.9 195.681C382.819 195.825 383.734 196.328 384.458 197.372L384.61 197.581C385.887 199.309 387.551 200.727 389.448 201.641C391.276 202.521 393.32 202.932 395.435 202.693C399.464 202.238 402.241 200.059 405.193 197.1C405.559 196.727 405.925 196.341 406.293 195.95C406.525 195.595 406.848 195.367 407.206 195.247C407.603 195.114 408.053 195.122 408.465 195.266C408.862 195.404 409.217 195.667 409.455 196.016C409.681 196.349 409.809 196.759 409.768 197.231C409.498 200.298 407.894 203.035 405.617 205.183C403.088 207.57 399.735 209.221 396.579 209.8C393.101 210.438 389.558 209.981 386.35 208.672V208.672ZM398.219 161.365C401.919 163.614 407.556 168.858 403.576 174.433C398.891 179.348 392.146 173.712 388.822 171.163C385.74 169.188 382.278 174.269 385.137 176.575C409.155 194.357 418.902 161.953 400.091 158.721C398.019 158.365 397.25 160.67 398.219 161.365ZM355.179 140.68C355.588 135.606 363.315 134.454 364.084 139.475C364.772 143.973 363.962 148.104 361.936 152.153C360 156.022 355.135 154.217 354.767 150.694C354.274 145.973 354.925 143.836 355.179 140.68ZM414.001 138.434C415.078 137.023 416.634 136.06 418.498 136.604C424.32 138.306 422.604 146.572 420.559 150.596C419.448 152.781 415.856 153.335 414.233 151.411C411.588 148.274 410.321 142.008 413.684 138.917C413.775 138.758 413.877 138.597 414.001 138.434ZM361.854 118.479L362.774 118.318C365.619 117.826 369.157 117.353 371.17 119.64C372.237 120.853 372.605 123.108 371.17 124.269C368.646 126.312 365.855 125.52 362.83 125.693C360.338 125.836 357.942 126.249 355.541 126.935C350.273 128.441 345.981 131.189 341.482 134.207C340.891 134.603 340.289 133.848 340.57 133.296C343.168 128.209 348.201 124.031 353.242 121.483C355.933 120.124 358.877 118.996 361.854 118.479ZM408.693 116.2L409.397 116.344C417.058 117.946 427.012 121.144 430.64 128.669C430.778 129.733 430.632 129.962 430.513 130.11L430.474 130.16C430.376 130.287 430.298 130.463 429.836 130.608C429.708 130.577 429.579 130.545 429.449 130.51C427.786 130.075 426.47 129.474 425.196 128.851L423.815 128.171C422.213 127.385 420.596 126.628 418.883 126.069C415.227 124.877 411.467 124.037 407.648 123.588C406.82 123.491 406.024 123.212 405.395 122.733C404.798 122.279 404.342 121.65 404.134 120.813C403.865 119.731 403.942 118.912 404.523 117.935C404.959 117.202 405.584 116.694 406.302 116.402C407.033 116.104 407.866 116.034 408.693 116.2Z" fill="black"/>
<path fill-rule="evenodd" clip-rule="evenodd" d="M399.248 178.004C393.8 175.55 384.016 177.691 380.464 178.542C372.206 180.523 363.899 184.802 361.332 191.507C358.439 199.063 364.211 201.442 365.06 201.053C370.777 201.456 377.584 197.862 383.574 196.935C388.437 196.175 393.567 195.513 398.124 192.929C401.45 194.759 408.964 195.748 415.028 197.348C420.192 198.71 422.429 201.664 427.217 201.035C432.955 200.283 430.606 188.215 424.211 183.326C417.212 177.975 405.375 175.805 399.248 178.004ZM410.036 229.605C405.269 230.767 404.949 220.32 404.415 216.628C403.998 213.745 401.645 206.308 395.68 206.629C389.715 206.95 387.472 213.181 387.775 217.056C387.971 219.569 390.287 232.298 382.895 233.908C378.183 233.892 372.731 233.574 367.776 232.66C361.944 231.339 354.36 226.715 352.357 235.822C351.636 239.1 377.326 248.838 388.726 249.719C400.288 252.061 413.815 248.459 422.046 239.614C423.919 237.602 429.193 229.251 429.569 227.204C430.358 222.905 428.53 220.139 423.211 221.654C419.453 223.661 413.102 228.858 410.036 229.605Z" fill="black"/>
<path fill-rule="evenodd" clip-rule="evenodd" d="M447.347 153.485C442.676 185.08 410.069 188.574 404.276 157.208C405.206 156.801 405.874 155.999 405.735 154.443C405.702 147.608 407.824 140.383 413.99 136.582C420.362 132.66 427.819 132.271 435.193 132.37C449.265 132.035 448.969 143.796 447.347 153.485M399.171 139.744C394.755 139.558 389.168 139.714 385.212 142.404C384.124 139.476 381.298 136.348 378.443 134.676C389.056 134.987 399.98 133.942 410.672 133.131C408.113 134.876 405.732 137.497 404.184 140.527C402.748 139.762 400.692 139.833 399.171 139.744M379.706 156.835C367.46 198.986 336.893 180.614 333.56 175.212C327.55 166.273 326.419 144.542 331.655 138.732C339.149 133.478 349.76 134.831 358.614 134.702C374.88 134.921 386.432 139.787 379.706 156.835M461.806 137.448C458.479 137.013 454.923 136.925 451.83 138.39C450.878 134.342 447.888 130.957 444.512 129.468C444.103 128.955 444.164 128.68 442.768 128.757C434.197 126.181 424.606 127.544 416.369 130.186C403.361 131.281 389.713 132.145 376.595 133.654C364.307 128.136 327.223 127.327 324.918 140.929C322.019 140.495 317.082 138.213 314.646 141.308C296.778 138.279 278.315 142.489 260.37 144.364C255.853 145.196 253.526 154.161 258.654 154.038C261.536 153.256 258.565 148.456 262.447 148.095C279.761 146.204 296.697 143.521 314.189 143.207C313.58 146.227 325.758 146.424 325.938 144.66C325.964 144.673 325.991 144.682 326.018 144.694C323.008 155.908 325.725 172.047 331.163 179.001C338.782 188.107 357.911 190.719 366.393 184.861C377.335 179.454 388.717 152.311 385.52 143.293C391.323 141.454 397.059 142.006 403.081 142.943C401.703 146.837 399.323 156.424 402.747 157.255C402.118 176.289 419.441 188.165 435.409 180.357C449.23 173.869 454.064 153.333 452.373 140.867C454.094 144.192 468.54 140.572 461.806 137.448" fill="black"/>
</svg>
