<svg width="236" height="429" viewBox="0 0 236 429" fill="none" xmlns="http://www.w3.org/2000/svg">
<path fill-rule="evenodd" clip-rule="evenodd" d="M75.4837 213.766C75.3496 214.43 75.1476 215.148 74.9373 215.791C75.985 216.798 77.468 218.147 78.5324 219.121C77.4798 212.632 80.6824 206.643 82.6425 200.505C81.9031 199.558 79.3282 198.59 79.4111 197.541C79.6099 193.654 79.903 189.316 80.3258 184.45C81.757 169.255 83.1812 153.408 79.8032 138.167C79.5724 136.51 79.2222 134.768 76.9958 134.729C70.42 160.849 75.7484 187.148 75.6035 213.433L75.7947 213.604L75.4837 213.766ZM65.6367 427.778C60.2336 427.781 55.2665 426.799 50.458 424.815C49.0704 424.327 47.3467 423.722 47.1063 422.743C46.711 420.06 46.9848 417.422 47.2744 414.631C47.7323 409.841 47.6867 406.121 48.9814 400.963C50.3673 396.176 51.5485 392.433 50.196 387.482C50.0877 386.006 51.2428 384.507 52.0055 383.128C53.086 381.117 53.6341 379.022 54.492 376.959C52.8063 376.664 51.0562 376.26 49.4379 375.761L49.1662 376.737C49.1065 376.953 48.9419 377.061 48.6775 377.061C48.5138 377.061 48.0951 376.982 48.0339 376.635C48.2878 372.862 48.6555 369.112 49.042 365.281C53.0532 328.381 59.1271 297.962 69.3272 267.624C71.7768 260.519 74.2794 253.123 74.2973 245.403C72.9044 245.105 71.3534 244.934 69.9336 245.13C59.819 242.791 61.8185 221.436 62.2209 215.046C61.5076 214.832 60.7091 214.529 60.1174 214.124L59.8778 214.24C49.8341 189.363 53.9588 148.23 56.2562 120.579C57.7635 110.639 55.6433 92.6845 64.4734 87.7729C71.6032 85.2529 78.701 83.8368 86.1514 82.1748C87.5311 81.3843 89.2338 80.9334 90.7734 80.4217L89.9781 79.306C88.9351 77.8389 89.0736 74.9622 90.4381 73.9511C91.2767 73.9975 92.4546 74.838 93.256 75.2328C94.4088 72.8543 95.4758 70.3662 96.2415 67.5079L96.5167 67.6064C97.3225 59.522 107.826 58.1108 113.748 60.8125C120.212 64.3544 116.845 72.3666 119.785 78.1505L120.85 76.7331C122.495 76.7027 125.975 78.8553 126.813 79.6631C127.412 79.9422 126.979 81.8206 127.066 82.5761C135.738 84.5358 147.609 85.0738 150.366 94.7888C154.952 113.057 154.307 131.785 159.511 149.988C164.958 164.743 172.96 182.798 173.027 196.311C173.182 198.844 173.524 213.167 171.423 212.591L170.037 213.972C171.926 216.98 170.426 221.483 169.703 225.046C167.92 232.604 164.437 240.748 156.997 237.126C148.995 281.225 128.882 325.71 135.743 371.196C135.825 371.462 135.659 371.754 135.373 371.637L135.035 371.482C134.163 371.751 133.055 371.845 132.144 372.049C132.92 374.948 133.336 377.812 133.738 381.021C134.226 381.31 133.998 382.079 134.023 382.543C141.304 382.196 145.387 389.805 150.608 393.99C154.056 397.059 157.982 399.981 162.278 402.676C165.829 404.689 168.824 406.995 168.285 410.797C168.336 410.791 169.432 410.621 169.486 410.618C171.137 416.101 165.714 417.238 160.129 417.898C146.481 419.266 134.815 416.241 119.014 410.504C117.076 410.735 115.566 407.86 115.308 405.911C115.053 404.604 115.778 403.275 115.225 401.869C113.319 397.827 112.328 387.132 115.014 382.333C115.957 381.246 117.166 380.241 117.009 378.365C116.965 376.483 116.788 374.603 116.947 372.757C113.719 372.447 110.522 371.751 107.706 370.626C107.207 370.816 106.641 370.579 106.606 369.957C106.065 361.359 105.418 351.964 105.278 343.162C104.629 324.006 109.019 305.312 112.378 286.733C112.611 280.773 113.714 275.015 114.061 269.052C114.435 263.397 114.501 257.861 114.826 252.214L112.887 251.794C96.7928 293.207 84.1888 334.652 75.3672 375.208C75.5666 375.378 76.1337 375.571 76.1097 375.916C76.103 376.1 76.1074 376.111 75.9809 376.132C73.8496 376.559 71.7405 376.871 69.6282 377.117C70.2238 382.175 67.0472 388.026 69.8587 392.766C70.6053 393.908 70.6375 394.145 70.1799 394.931C74.2759 402.541 76.8142 408.871 78.4592 415.674L79.5191 414.78C81.0558 415.893 81.0877 417.997 81.1214 420.221C81.0118 421.516 81.6458 422.875 80.6748 423.965C78.3377 426.691 70.1919 427.764 65.6367 427.778Z" fill="#AE5D29"/>
<path fill-rule="evenodd" clip-rule="evenodd" d="M71.0088 393.298C71.0934 393.645 69.6174 393.803 69.7029 394.113C70.5965 397.103 73.1255 398.342 74.2689 401.217L74.8044 402.567C76.2488 406.212 77.6481 409.87 78.5133 413.737L78.6577 414.382C78.6577 414.382 81.4505 417.053 81.5278 418.903C81.5278 418.903 81.8247 423.608 80.9249 424.286C74.3631 428.752 65.49 428.623 57.9055 427.451C54.8817 426.899 51.93 425.981 49.1272 424.722C48.0679 424.362 47.2755 423.985 46.791 423.36C46.3793 422.831 46.2092 422.13 46.2759 421.153C46.1017 419.497 46.2294 417.916 46.3752 416.335L46.4437 415.598C46.5661 414.266 46.6718 412.93 46.6056 411.586C46.8097 406.378 48.464 401.206 49.6344 396.121L50.8917 394.113C50.8917 394.113 52.9199 391.141 55.5159 391.15C55.5159 391.15 59.963 388.859 63.4058 389.288C66.8486 389.718 71.0088 393.298 71.0088 393.298ZM117.357 381.091C118.823 386.015 121.007 388.476 123.908 388.476C128.258 388.476 128.835 382.745 132.245 382.745C132.245 382.745 135.01 382.608 137.974 382.377C140.915 383.426 143.34 385.814 145.667 388.254L146.92 389.575C148.218 390.942 149.508 392.266 150.855 393.347C154.461 396.559 158.364 399.417 162.454 401.98L162.776 402.173C164.365 403.114 166.103 404.224 167.302 405.665C168.174 406.714 168.756 407.942 168.74 409.417L168.735 409.923C168.735 409.923 170.117 411.238 170.13 411.793L170.134 411.983C170.138 412.132 169.395 415.323 168.193 416.118C166.502 417.238 160.284 418.222 160.068 418.255C146.287 419.73 132.336 416.06 119.561 411.042L119.066 410.846C119.03 410.852 118.995 410.858 118.959 410.864C117.933 410.998 117.05 410.452 116.352 409.663C115.387 408.57 114.759 406.992 114.608 405.77C114.494 405.253 114.796 402.585 114.585 401.93C112.809 397.897 112.575 393.514 112.829 389.218C112.763 384.165 113.864 382.558 114.828 381.389L115.077 381.091H117.357Z" fill="white"/>
<path fill-rule="evenodd" clip-rule="evenodd" d="M90.5403 73.1866L90.5804 73.1927L115.626 87.5964L122.04 78.076L123.833 76.9053L124.001 76.9909C125.205 77.6107 126.337 78.3813 126.933 78.9255C127.262 79.1429 127.412 79.3597 127.491 79.6035C127.593 79.924 127.589 80.2817 127.568 80.6438L127.549 80.9343C127.535 81.1424 127.522 81.3502 127.519 81.5527C127.518 81.671 127.52 81.7914 127.524 81.9127L127.868 81.9796C128.238 82.0515 128.612 82.1225 128.989 82.1932L131.286 82.6211C136.433 83.5857 141.876 84.7278 145.838 87.5262C148.817 89.63 150.94 92.6839 151.437 97.3254C153.011 104.034 153.847 110.811 154.62 117.592L154.776 118.937L155.191 122.55C156.361 132.677 157.668 142.825 160.819 152.556L161.102 153.246C161.242 153.588 161.382 153.926 161.52 154.262L162.405 156.409C167.266 168.219 172.049 180.209 173.216 193.036C173.875 199.421 173.775 205.872 172.68 212.201C172.616 212.542 172.346 212.781 172.037 212.907C171.698 213.045 171.291 213.057 170.987 212.866L170.394 213.459C172.384 216.584 171.01 221.891 169.823 226.005L169.342 227.661C169.227 228.06 169.118 228.441 169.02 228.8C168.079 231.915 166.556 235.307 164.165 237.107C163.26 237.788 162.228 238.235 161.054 238.335C159.975 238.426 158.78 238.225 157.455 237.66C157.289 237.589 157.128 237.516 156.973 237.442L156.864 237.968C156.71 238.714 156.556 239.459 156.4 240.204L143.801 223.618L130.445 211.148L113.496 221.189L80.4763 198.638L80.3123 199.333L80.1788 199.246C79.713 198.939 79.2644 198.616 78.9751 198.205C78.7555 197.894 78.6416 197.528 78.7177 197.028C78.925 193.293 79.1801 189.559 79.4857 185.831L79.9311 180.914C81.1178 167.699 82.1107 154.363 79.7364 141.23C79.6436 140.7 79.5379 140.175 79.4301 139.65L79.3654 139.335C79.2782 138.912 79.1909 138.488 79.1095 138.064L79.0937 137.973L79.0395 137.638C78.9643 137.184 78.8442 136.567 78.6293 136.101C78.4074 135.62 78.0826 135.312 77.6935 135.244C77.5562 135.22 77.4162 135.227 77.2762 135.263L77.2262 135.464C77.218 135.498 77.2095 135.532 77.2013 135.566C73.0133 152.781 74.0118 170.339 75.0665 187.867L75.2114 190.278C75.6611 197.796 76.0769 205.305 76.0488 212.775L76.0476 213.013C76.0983 213.029 76.1466 213.055 76.1899 213.094C76.2353 213.135 76.267 213.183 76.2872 213.234C74.3236 214.77 71.7671 215.642 68.6172 215.848L68.334 215.866C65.3834 216.042 63.0955 215.899 61.4698 215.438L61.4856 215.228C61.3793 215.199 61.273 215.166 61.1673 215.131C60.811 215.012 60.4702 214.866 60.1604 214.682L59.9059 214.531L59.6737 214.714C59.5613 214.719 59.4954 214.652 59.4222 214.575C59.1227 214.257 58.8264 213.68 58.5312 212.972L58.4689 212.819C57.471 210.353 56.5847 206.498 56.2948 205.228L56.2567 205.062C50.8416 180.568 52.6889 155.333 54.7142 130.49L54.9022 128.186C55.0518 126.357 55.2012 124.531 55.3476 122.708C55.7818 119.459 55.9578 116.135 56.1244 112.801L56.207 111.157C56.546 104.506 57.0086 97.8588 59.6374 91.7484C61.4303 87.1896 66.3538 85.9911 70.7007 85.0189L71.6073 84.8163C73.5477 84.2395 75.4969 83.7722 77.4458 83.3236L79.6635 82.8157C82.8946 82.0728 86.1072 81.2882 89.1875 80.0766C89.3723 80.0038 89.5565 79.9296 89.7397 79.8539C89.6089 79.7204 89.4882 79.5778 89.3793 79.4264C88.7799 78.5932 88.5451 77.5032 88.6069 76.4216C88.6707 75.2997 89.0543 74.1808 89.7119 73.3517C89.9468 73.1793 90.2194 73.1474 90.4984 73.181L90.5403 73.1866Z" fill="#9DDADB"/>
<path fill-rule="evenodd" clip-rule="evenodd" d="M95.5718 66.2896C96.6892 67.1928 95.5238 73.7082 94.6234 75.0376C100.712 78.9515 106.865 82.7757 113.146 86.3605L113.796 86.7305L113.776 86.7246C114.037 86.8415 114.478 86.9453 114.737 86.8938L114.914 86.8351C114.951 86.8234 114.972 86.8181 114.962 86.8263C115.067 86.7705 115.169 86.7118 115.268 86.6445C117.059 85.0139 118.363 82.2496 119.766 80.1003C117.378 77.9968 118.568 73.8976 118.665 71.0974C119.116 71.086 119.169 72.5165 119.299 72.9315L119.372 73.3271C119.544 74.2538 119.74 75.198 120.095 76.0595C121.128 74.7532 126.358 77.8398 127.338 78.8331C128.405 79.5123 128.078 80.7204 128.064 81.7824C137.989 83.7102 150.645 85.0665 151.979 97.5043C153.548 104.176 154.386 110.968 155.162 117.768L155.288 118.853C156.644 130.554 157.847 142.4 161.674 153.604L163.137 157.086C166.301 164.638 169.387 172.251 171.408 180.197C172.974 183.588 177.145 215.949 170.871 213.453C173.016 216.947 171.411 221.546 170.666 225.282C169.122 231.414 166.041 241.435 157.751 238.48C151.5 271.834 139.118 303.968 135.988 337.905C134.972 348.934 134.993 360.094 136.72 371.056C136.953 372.099 135.955 373.02 134.936 372.561C134.425 372.707 133.883 372.751 133.358 372.85C133.963 375.279 134.317 377.812 134.638 380.293L134.674 380.568H134.675C134.926 380.846 135.049 381.199 135.038 381.597C138.826 381.611 141.994 384.051 144.518 386.646C148.893 391.217 153.513 395.577 158.75 399.163C162.498 402.205 169.074 403.991 169.285 409.645C171.198 409.321 170.74 413.497 170.401 414.599C170.003 415.835 168.849 416.545 167.741 417.097C151.814 422.425 134.272 417.235 119.129 411.513C116.476 411.863 114.579 408.357 114.295 406.045C114.006 404.771 114.685 403.529 114.289 402.287L114.159 401.945C113.682 400.694 113.232 399.473 112.961 398.149L112.921 397.871C112.275 393.298 111.755 385.551 114.21 381.722C117.074 379.273 115.592 376.924 115.879 373.66C113.051 373.338 110.256 372.698 107.61 371.681C106.567 371.903 105.657 371.062 105.588 370.051L105.486 368.434C104.953 360.03 104.397 351.616 104.258 343.191C103.605 324.079 107.943 305.376 111.358 286.709C111.694 279.513 113.07 272.406 113.264 265.192C113.409 260.845 113.589 256.509 113.807 252.17C98.3171 292.021 85.6039 332.984 76.4798 374.758C77.319 375.328 77.4106 376.877 76.1613 377.128C74.3336 377.491 72.4933 377.789 70.6454 378.014C70.9411 382.5 68.2684 388.566 70.7444 392.368L70.8433 392.52C71.313 393.251 71.773 394.084 71.2925 394.928C74.5101 400.96 77.2994 407.249 79.0158 413.892C80.9767 413.088 82.0938 417.068 82.0358 418.503C81.9099 420.388 82.9274 423.564 81.3 424.853C72.7516 430.353 61.1474 429.5 51.8301 426.455C50.102 425.715 48.1215 425.213 46.6402 424.029C45.9688 423.348 46.0147 422.232 45.96 421.346L45.9433 420.891C45.8555 418.348 45.864 415.756 46.5614 413.252C46.3749 409.625 46.9172 405.949 47.6313 402.398C48.089 399.534 49.4063 396.81 49.5834 393.92C50.5187 391.334 48.8321 388.914 49.2854 386.328C49.6555 384.753 50.815 383.391 51.4864 381.924L51.5332 381.819C52.1408 380.483 52.5762 379.101 53.1027 377.73C52.0942 377.54 51.0987 377.304 50.1175 377.02C49.6482 378.718 46.9315 378.239 47.0117 376.506C49.2429 348.592 53.6768 320.832 60.5402 293.675C63.7423 277.613 72.0113 262.637 73.2578 246.245C72.2655 246.06 71.1353 246.012 70.1632 246.124L70.0472 246.138C69.4262 246.215 68.8294 246.324 68.1633 246.011C59.6178 240.742 60.4962 224.598 61.1445 215.762C60.7589 215.634 60.39 215.475 60.0544 215.276C59.7575 215.496 59.3069 215.509 59.1335 215.103C58.6958 214.076 58.1336 213.074 57.7533 212.03C47.8515 178.043 54.1743 142.226 56.1677 107.581C56.9445 100.463 56.9504 90.7989 64.0339 86.8763C66.4109 85.7524 69.0933 85.2699 71.6266 84.6217C77.4405 82.8908 83.5127 82.1155 89.1436 79.9009C87.8336 78.0841 88.1451 75.4344 89.2367 73.6071C90.1025 72.2918 91.7645 73.2982 92.7916 73.8575C93.9772 71.4387 94.7906 68.86 95.5718 66.2896ZM79.3745 415.443L79.4269 415.686C79.7045 416.989 79.944 418.357 79.8049 419.681C83.4875 423.263 66.5175 423.719 64.6447 423.711C60.3598 423.667 47.761 422.241 47.1379 417.083L47.145 417.208C47.2284 418.848 46.95 421.91 47.8436 423.123C54.5995 426.63 62.4601 428.018 70.0217 427.156L70.2932 427.118C73.3076 426.706 79.0325 425.487 80.5196 422.98C80.1908 420.645 80.9981 417.299 79.3745 415.443ZM67.1537 392.278C63.0179 387.783 56.2245 391.068 51.8632 393.575C51.6987 395.542 50.3166 396.267 50.2607 398.33C49.3313 404.636 47.1901 411.764 49.9181 417.854C58.0502 422.2 67.7206 421.905 76.5185 420.034C76.7489 419.733 77.0397 419.646 77.4552 419.532C77.7169 417.685 77.1878 415.826 76.8382 414.032C75.9586 410.265 74.8208 406.562 73.8086 402.827C71.9949 401.659 71.332 399.204 70.3857 397.351C70.1289 396.831 69.8666 396.311 69.591 395.796C68.1144 395.314 67.7282 393.552 67.1537 392.278ZM115.636 404.674C115.192 409.207 119.62 411.013 123.201 412.1C127.23 413.529 131.359 414.719 135.51 415.744C144.015 417.93 152.882 418.889 161.6 417.518L161.752 417.492C164.267 417.051 168.773 416.519 169.345 413.611L169.351 413.544C169.39 413.067 169.464 411.273 169.285 410.817C169.219 410.814 169.154 410.8 169.093 410.77C168.364 413.097 165.708 414.511 163.149 414.876C161.942 416.086 159.719 415.639 158.11 415.706C147.489 415.601 137.279 412.319 127.216 409.268C124.013 408.158 117.63 407.36 115.636 404.674ZM116.549 381.345C114.706 380.697 114.355 385.852 114.12 387.108C113.526 392.43 113.54 400.729 117.855 404.505C122.359 406.428 127.219 407.313 131.864 408.827L132.963 409.149C141.767 411.723 150.815 414.128 160.056 413.748C160.754 412.357 165.179 413.515 166.866 411.033C169.13 407.094 163.414 404.558 160.709 402.877C155.515 399.549 150.663 395.679 146.288 391.334C144.231 389.291 142.349 386.95 139.933 385.308L139.807 385.223C137.737 383.853 135.08 383.005 132.65 383.902C130.283 384.779 129.414 387.476 127.428 388.87C123.004 391.734 118.473 387.211 117.036 383.116L116.993 382.991C116.942 382.865 117.082 382.786 117.189 382.821C117.178 382.78 117.171 382.739 117.163 382.698C116.605 382.555 116.552 381.86 116.549 381.345ZM53.625 377.827C54.2027 381.088 52.5744 384.013 51.3596 386.898C51.0325 388.812 52.2345 390.644 51.9566 392.591C55.9338 389.472 61.9535 386.711 66.7523 389.557C66.7781 386.807 67.7259 384.139 68.5495 381.541L68.8842 380.51C69.1448 379.709 69.4098 378.911 69.7029 378.122C64.3598 378.68 58.9499 378.736 53.625 377.827ZM131.887 373.075C127.21 373.718 122.482 374.089 117.774 373.829L118.309 381.933C118.331 382.266 118.19 382.497 117.982 382.628C118.676 385.261 120.861 387.605 123.571 388.175C127.756 388.716 128.318 383.175 131.872 382.152C131.192 380.626 131.68 378.619 131.613 376.959C131.65 375.653 131.717 374.358 131.887 373.075ZM116.487 380.407C116.397 380.594 116.291 380.77 116.174 380.936C116.298 380.948 116.417 380.986 116.529 381.053C116.516 380.837 116.501 380.624 116.487 380.407ZM74.3696 215.269C70.2765 216.684 65.8101 216.974 61.5937 215.898C62.5186 222.818 63.4477 239.209 69.3401 243.206C70.3356 243.063 71.3356 242.993 72.341 243.093C72.9392 243.152 73.531 243.249 74.1242 243.34C74.347 243.371 74.7909 243.395 75.0744 243.375L75.1227 243.371C75.0474 243.376 74.9889 243.375 75.0676 243.37L75.1886 243.363L75.2506 243.359C77.2938 243.176 79.1376 240.294 81.1591 241.677C81.456 241.228 81.9046 240.941 82.2492 240.541C83.7835 237.859 82.1538 234.406 83.1789 231.579C82.7915 231.05 82.9192 230.259 83.5276 229.806C84.4754 228.937 86.4791 229.584 87.0249 228.336C86.9874 228.404 86.9848 228.325 86.9994 228.284L87.0029 228.276L86.9066 228.196C82.7192 224.735 78.6703 220.867 75.9261 216.065L75.8342 215.903C75.3092 216.411 74.4466 216.023 74.3696 215.269ZM169.982 212.92C167.099 214.495 163.994 215.636 160.774 216.296C160.112 222.619 159.352 228.945 158.315 235.217L158.561 235.261C159.999 235.524 161.514 235.878 162.756 234.888C166.847 230.919 168.321 222.936 169.927 217.545L169.991 217.3C170.328 215.978 170.716 214.148 169.982 212.92ZM128.055 82.2248C127.625 84.3713 129.995 107.739 125.674 103.742C122.749 99.1572 119.404 94.8663 116.414 90.3285C116.002 91.9507 117.207 93.8782 116.638 95.2535C124.247 133.324 129.768 171.982 131.814 210.764C135.177 213.122 138.126 215.981 141.017 218.878C141.918 219.643 142.572 220.894 143.692 221.333C148.234 216.205 153.481 211.76 158.256 206.855C158.212 206.519 158.161 206.184 158.104 205.849C157.866 204.456 159.66 203.75 160.353 204.605C161.802 200.933 161.937 196.618 161.578 192.679C160.874 186.057 158.4 179.73 156.632 173.349C151.537 153.827 148.01 133.348 149.679 113.139C149.703 112.951 149.953 112.948 149.975 113.139C151.36 134.489 153.517 155.899 159.947 176.42L160.101 176.927C162.613 185.222 165.72 194.014 163.57 202.712C163.748 203.883 163.185 205.05 162.334 205.892C161.956 206.807 161.534 207.713 161.033 208.567C161.206 210.548 161.122 212.533 160.947 214.504C164.252 213.798 167.335 212.447 170.283 210.819C170.458 209.825 170.612 208.829 170.731 207.828C173.019 189.268 166.039 171.219 159.057 154.371C152.403 134.737 153.702 113.429 148.141 93.5667C144.623 85.8216 135.014 85.2126 128.055 82.2248ZM90.3385 80.7858L90.1098 80.8659C88.5079 81.4293 86.9013 82.0822 85.1887 82.1304C79.8134 83.9162 74.3017 85.2871 68.8374 86.7775L68.3085 86.9222C65.9761 87.5625 63.6208 88.2939 62.0469 90.2498C60.5378 92.1251 59.9065 94.5404 59.4135 96.847C57.1024 117.001 55.7929 137.359 54.6188 157.634C54.0431 174.515 54.3714 191.679 58.6932 208.105C59.3031 210.356 60.0456 212.614 60.3083 214.926C60.6224 214.93 60.9381 214.952 61.2552 214.984C61.2599 214.833 61.49 214.857 61.473 215.005C65.6724 215.667 70.037 215.275 73.9778 213.649C73.0045 184.077 66.6776 151.981 81.0086 124.547C81.0672 124.442 81.2452 124.514 81.2051 124.63L80.8517 125.647C79.715 128.926 78.6044 132.21 77.8051 135.591C78.9441 135.422 79.7748 138.085 79.9903 138.738C86.2015 157.565 82.3757 177.655 81.5852 196.99C92.2792 204.752 103.078 212.388 114.192 219.542C119.24 216.267 123.761 211.973 128.947 209.003C127.465 169.058 119.301 129.536 114.863 90.085C113.217 92.1269 111.541 94.1453 109.867 96.1641C107.714 98.803 105.632 101.51 103.509 104.175C103.07 104.727 102.113 104.513 101.8 103.956C97.6191 96.4116 94.9601 88.0803 90.3385 80.7858ZM77.7333 135.892C71.5642 161.247 76.6901 187.357 76.5931 213.001C77.052 213.406 76.8818 214.174 76.3463 214.452C76.2673 214.806 76.1741 215.157 76.0652 215.508C76.4953 215.916 76.9287 216.321 77.3661 216.722C77.0335 211.139 79.8479 206.068 81.4789 200.827C80.3062 199.782 78.1093 199.135 78.4021 197.229C78.6287 193.082 78.9183 188.939 79.2697 184.803L79.4866 182.487C80.8537 167.806 82.0156 152.886 78.8009 138.369L78.7816 138.258C78.6767 137.623 78.4759 136.021 77.7333 135.892ZM170.259 212.77L170.208 212.797L170.321 212.892C170.297 212.853 170.278 212.812 170.259 212.77ZM133.357 204.131C131.927 202.733 134.134 200.514 135.546 201.946C136.975 203.348 134.766 205.566 133.357 204.131ZM132.415 187.496C132.099 186.669 132.977 185.356 133.907 185.906L133.935 185.924L133.948 185.907C134.827 186.425 134.503 187.499 133.987 188.139C133.415 188.727 132.702 188.028 132.415 187.496ZM131.072 168.343C128.585 165.091 133.81 163.757 132.954 167.761C132.771 168.51 131.267 169.602 131.072 168.343ZM127.394 150.222C126.074 148.612 128.912 147.226 129.505 149.148C129.845 150.431 128.242 151.222 127.394 150.222ZM140.602 110.272C141.383 110.394 145.335 109.588 144.318 111.23C145.908 119.16 150.38 128.835 143.995 135.765L143.939 135.821C142.997 136.76 141.491 138.991 140.05 138.071C136.852 135.378 132.731 133.454 130.287 130.007C129.259 127.304 130.134 124.283 129.863 121.454C129.746 117.876 129.15 114.331 129.022 110.759C129.016 110.586 129.204 110.53 129.322 110.603C133.072 110.306 136.843 110.371 140.602 110.272ZM129.45 110.854C131.146 116.367 131.184 122.261 131.139 127.976C131.166 128.565 131.27 129.138 131.578 129.588C134.004 132.443 137.46 134.232 140.339 136.603C141.505 135.843 142.427 134.872 143.254 133.77C148.313 127.161 143.729 118.843 143.735 111.484L143.086 111.485C138.544 111.491 133.96 111.432 129.45 110.854ZM125.631 131.329L125.675 131.329C127.415 131.333 127.016 134.277 125.374 133.873C123.989 133.546 124.201 131.347 125.631 131.329ZM122.218 116.304C121.012 114.254 124.991 113.461 124.572 115.829L124.581 115.732C124.583 115.713 124.585 115.696 124.586 115.682L124.556 115.903C124.412 116.951 122.34 117.701 122.218 116.304ZM119.547 99.3211C120.653 99.0292 121.469 100.579 120.52 101.274C119.11 102.336 117.896 99.6905 119.547 99.3211ZM92.4359 75.3009L92.3009 75.1764C90.8583 73.854 89.7763 73.1924 89.4563 75.888C89.2335 77.2025 89.4247 78.86 90.6873 79.6376C96.7313 85.6027 99.0222 94.119 102.917 101.456C106.433 97.2044 109.706 92.7788 113.107 88.4415C108.422 85.5913 103.69 82.7634 99.0676 79.7893C96.8584 78.3235 94.4814 76.9888 92.4359 75.3009ZM122.862 78.8173C121.044 81.7791 119.366 84.9826 117.048 87.6037C116.752 87.9 116.446 88.1349 116.128 88.3141C116.582 88.1832 117.183 88.5219 117.125 89.0184C120.5 92.3759 123.258 96.2813 125.893 100.233C126.397 93.6959 125.437 87.1314 125.809 80.5842C124.952 79.7981 123.932 79.2598 122.862 78.8173Z" fill="black"/>
<path fill-rule="evenodd" clip-rule="evenodd" d="M129.9 43.5251C129.591 40.8169 129.991 35.1564 130.018 34.8124C130.187 32.6385 129.166 24.0534 127.237 24.8444C124 22.2872 119.689 21.7225 115.658 21.4528C107.285 20.8924 98.3783 22.1788 91.9129 27.8026C88.7155 30.7232 85.6027 34.9711 85.8528 39.3941C82.9479 43.5865 78.8524 49.337 82.4717 54.2384C83.7021 55.8042 85.6578 56.3875 87.2032 57.5734C90.3122 60.0761 92.2625 63.6676 95.4008 66.1554C103.716 73.6124 117.834 75.17 126.003 66.6885C132.32 60.5457 131.298 51.3561 130.187 43.5251C129.44 38.2602 130.502 48.8084 129.9 43.5251Z" fill="#AE5D29"/>
<path fill-rule="evenodd" clip-rule="evenodd" d="M104.473 9.96838C106.713 9.5174 109.012 9.23677 111.299 9.32125L111.475 9.32806C113.196 9.39671 115.375 9.54852 116.876 10.5471C116.962 10.4606 117.101 10.4162 117.227 10.4762C119.01 11.326 120.973 11.9403 122.851 12.5508C124.72 13.1583 126.659 13.5593 128.619 13.721C129.356 13.7818 129.987 14.5763 129.52 15.2889C129.409 15.4586 129.301 15.6302 129.193 15.8021C129.373 15.7834 129.554 15.764 129.734 15.7459C130.327 15.6863 130.919 16.3178 130.884 16.894C130.862 17.2563 130.823 17.6144 130.765 17.9682C130.991 17.9635 131.215 17.9973 131.432 18.0888C132.53 18.5516 132.454 19.8572 132.372 20.8505C132.258 22.229 131.741 23.6891 130.782 24.7208C131.498 25.4632 132.005 26.3497 132.308 27.4026C132.527 28.1714 132.649 28.9904 132.589 29.7907L132.569 30.0303C132.495 30.8988 132.347 31.8606 131.721 32.4854C131.399 32.8074 131.003 32.9249 130.626 32.8875C130.854 34.889 131.001 36.9022 131.138 38.9081L131.203 39.8666C131.51 44.5026 131.741 49.1687 131.681 53.8123C131.624 58.152 130.765 62.364 128.099 65.8875C125.67 69.0962 122.183 71.4612 118.238 72.3604C116.112 72.8458 113.941 72.88 111.79 72.5708C110.746 72.4206 109.697 72.1901 108.707 71.8265C107.611 71.4227 106.823 70.8285 106.086 69.9378C105.737 69.5155 105.905 68.6163 106.599 68.7008C107.65 68.8279 108.608 68.9813 109.615 69.2911L109.76 69.3367C110.762 69.6573 111.801 69.8963 112.85 69.998C114.997 70.2058 117.178 69.9966 119.235 69.3466C122.584 68.2873 125.469 65.9263 127.318 62.9596C129.513 59.4434 129.761 55.4518 129.729 51.4084C129.695 46.9717 129.551 42.5324 129.315 38.1003L129.275 37.3616C129.15 35.081 129.029 32.7989 128.923 30.5166C128.891 29.8006 128.84 29.0792 128.75 28.3647C127.922 27.8808 127.181 27.2136 126.697 26.3904C125.726 26.7912 124.705 27.0805 123.765 27.311C121.588 27.8453 119.328 27.975 117.113 27.6404C116.515 27.8868 115.905 28.1034 115.287 28.2898C115.119 28.3639 114.952 28.4366 114.785 28.5079C113.293 29.145 111.779 29.6849 110.204 30.08L109.817 30.1761C108.989 30.3801 108.088 30.5809 107.206 30.644C107.061 30.6998 106.905 30.7471 106.734 30.7886C105.931 30.9833 105.097 31.0449 104.274 30.9763C103.472 30.909 102.893 30.0998 103.334 29.3427C103.657 28.7899 103.983 28.2387 104.311 27.6889C103.168 28.1643 101.987 28.5594 100.797 28.8945C99.5947 29.2322 98.3754 29.5171 97.1544 29.7793C96.5018 29.9181 95.8462 30.0414 95.195 30.1802C94.7288 30.279 94.0129 30.3304 93.6326 30.637C93.2124 30.9733 93.0935 31.758 92.9339 32.2419C92.7246 32.8705 92.5281 33.5017 92.3486 34.1403C91.9917 35.4144 91.6989 36.7076 91.4723 38.0133C91.2456 39.3204 91.0934 40.6404 91.0088 41.9649C90.9244 43.2878 90.9616 44.6192 90.8255 45.9363C90.752 46.6351 90.0006 46.9945 89.4455 46.5062C89.3802 46.4489 89.3146 46.391 89.2496 46.3326L89.1527 46.2443C88.6777 45.8148 88.2172 45.3594 87.8374 44.8469C87.7683 44.7522 87.7024 44.6534 87.6406 44.5532C87.6307 44.5532 87.6222 44.5505 87.6119 44.5432L87.5068 44.464C86.3464 43.6022 84.4081 42.4786 83.277 43.9105C82.9165 44.3667 82.7318 44.9474 82.5786 45.5079L82.3098 46.5106C82.1359 47.1652 81.9725 47.8236 81.8768 48.4934C81.6601 49.994 81.769 51.7234 82.8035 52.926C83.2167 53.4073 83.7862 53.7507 84.4215 53.841C84.7761 53.8898 85.126 53.8296 85.4774 53.7852C85.8346 53.7407 86.179 53.8123 86.5362 53.7778C87.1042 53.722 87.3525 54.4009 87.1402 54.8276C87.0254 55.0564 86.8905 55.2542 86.737 55.4217C86.8603 55.5274 86.978 55.642 87.0913 55.7624C87.4269 55.8697 87.7282 56.1002 87.9533 56.4053C88.1358 56.6514 88.2303 56.9191 88.2461 57.2014C88.2661 57.2715 88.2833 57.3431 88.2991 57.4159L88.6069 57.9144C88.6745 58.0237 88.7422 58.1318 88.8098 58.2379C89.5931 59.4691 90.4624 60.5115 91.5425 61.4937C92.5826 62.4385 93.7116 63.2848 94.6884 64.2983L94.8038 64.4187C95.7144 65.3766 96.6748 66.5362 96.3182 67.9293C96.2265 68.2873 95.7255 68.5447 95.3988 68.3028C94.347 67.524 93.8176 66.2899 92.9255 65.3451C92.0072 64.3713 90.9903 63.4967 90.0694 62.5259C89.1986 61.6094 88.5114 60.5714 87.9937 59.4291C87.787 59.6567 87.4857 59.8183 87.0685 59.8814C86.3511 59.9887 85.6824 59.5693 85.3699 58.9495C85.1691 59.0381 84.9638 59.1184 84.7571 59.1813C83.6699 59.5135 82.9856 58.3066 83.3961 57.4147C83.6155 56.9363 83.8892 56.521 84.2295 56.1718C83.1663 56.0257 82.0847 55.4775 81.386 54.7931C79.6333 53.0736 79.3923 50.4893 79.7867 48.1915C79.9961 46.9729 80.3574 45.7402 80.8268 44.5961C80.9085 44.3971 80.996 44.1969 81.0921 43.9991C81.0391 43.9979 80.9843 43.9748 80.9501 43.9304C80.6329 43.4982 80.2473 43.1446 80.0119 42.6607C79.7952 42.2168 79.5543 41.7673 79.3836 41.3047C79.0322 40.3584 78.86 39.2903 78.7452 38.2894C78.5087 36.2406 78.6003 34.2049 78.9145 32.1689C79.4494 28.7012 80.7416 25.3827 82.6454 22.4708C82.5417 22.4165 82.4425 22.3509 82.35 22.2733L82.3043 22.2335L82.2299 22.1665C81.6868 21.6758 81.7336 20.7562 82.2299 20.2592L82.3866 20.1024C82.5851 19.9056 82.7564 19.7497 83.077 19.5354C83.1244 19.5037 83.1727 19.4739 83.2216 19.4462C83.0539 19.1366 82.9956 18.7747 83.1124 18.3754C83.5197 16.9843 85.5251 17.0336 86.7965 17.6402C88.2025 16.3876 89.762 15.3002 91.4521 14.4196C95.4775 12.3236 100.029 10.8618 104.473 9.96838ZM83.6658 46.6064C84.4174 46.3615 85.4159 46.8756 86.0914 47.1847C86.9479 47.5772 87.6766 48.157 88.3823 48.7698C88.734 49.0761 88.7969 49.5773 88.7097 50.0054C88.7009 50.0483 88.6924 50.0928 88.6821 50.1372C88.5887 50.5937 88.0781 50.9531 87.6263 50.9402C86.6808 50.9145 86.2308 50.0998 85.6955 49.4098C85.6326 49.5215 85.5535 49.6246 85.4557 49.7018L85.3898 49.7535C85.1679 49.9221 84.9231 50.0571 84.6297 50.044C84.4215 50.034 84.2224 49.9811 84.0386 49.885C83.5794 49.643 83.3774 49.0504 83.5021 48.5679C83.5794 48.2643 83.7575 48.0267 83.9897 47.8621L83.9033 47.8028C83.7179 47.6742 83.5487 47.5383 83.4169 47.3382L83.3874 47.2908H83.3988C83.2553 47.0445 83.3487 46.7096 83.6658 46.6064Z" fill="black"/>
<path fill-rule="evenodd" clip-rule="evenodd" d="M113.125 60.9811C112.16 60.5887 111.3 59.9338 110.671 59.0971C110.452 58.806 110.396 58.4989 110.441 58.2181C110.493 57.9022 110.68 57.6161 110.936 57.4241C111.192 57.2312 111.512 57.1362 111.822 57.1847C112.091 57.2268 112.359 57.3738 112.571 57.6789L112.615 57.74C112.989 58.2449 113.476 58.6593 114.032 58.9264C114.567 59.1836 115.166 59.3037 115.785 59.2339C116.965 59.1009 117.778 58.4641 118.642 57.5994C118.749 57.4904 118.856 57.3776 118.964 57.2633C119.032 57.1596 119.127 57.093 119.232 57.0579C119.348 57.019 119.48 57.0214 119.6 57.0634C119.716 57.1038 119.82 57.1806 119.89 57.2826C119.956 57.3799 119.994 57.4998 119.982 57.6377C119.903 58.534 119.433 59.3338 118.766 59.9615C118.026 60.6591 117.044 61.1416 116.12 61.3108C115.102 61.4972 114.064 61.3637 113.125 60.9811ZM116.6 47.1564C117.683 47.8136 119.334 49.3461 118.169 50.9753C116.797 52.4117 114.822 50.7646 113.849 50.0197C112.946 49.4426 111.933 50.9274 112.77 51.6013C119.802 56.7978 122.656 47.3282 117.148 46.3837C116.542 46.2797 116.316 46.9533 116.6 47.1564ZM103.998 41.1115C104.118 39.6287 106.38 39.2921 106.605 40.7594C106.807 42.0739 106.57 43.2811 105.976 44.4643C105.409 45.595 103.985 45.0675 103.877 44.038C103.733 42.6583 103.923 42.0338 103.998 41.1115ZM121.221 40.4552C121.536 40.0428 121.992 39.7614 122.538 39.9204C124.243 40.4178 123.74 42.8334 123.141 44.0093C122.816 44.6479 121.764 44.8098 121.289 44.2475C120.515 43.3308 120.144 41.4996 121.128 40.5963C121.155 40.5499 121.185 40.5028 121.221 40.4552ZM105.952 34.6236L106.222 34.5766C107.055 34.4328 108.091 34.2946 108.68 34.9629C108.992 35.3174 109.1 35.9764 108.68 36.3157C107.941 36.9127 107.124 36.6813 106.238 36.7318C105.508 36.7736 104.807 36.8943 104.104 37.0948C102.561 37.5349 101.305 38.3379 99.9873 39.2199C99.8142 39.3356 99.638 39.115 99.7202 38.9537C100.481 37.4671 101.955 36.2461 103.431 35.5015C104.219 35.1044 105.081 34.7747 105.952 34.6236ZM119.667 33.9576L119.873 33.9997C122.116 34.4679 125.031 35.4024 126.093 37.6015C126.133 37.9125 126.091 37.9794 126.056 38.0226L126.044 38.0372C126.016 38.0743 125.993 38.1258 125.858 38.1682C125.82 38.1591 125.782 38.1497 125.744 38.1395C125.257 38.0124 124.872 37.8368 124.499 37.6547L124.095 37.456C123.626 37.2263 123.152 37.0051 122.651 36.8417C121.58 36.4934 120.479 36.2479 119.361 36.1167C119.118 36.0883 118.885 36.0068 118.701 35.8668C118.526 35.7341 118.393 35.5503 118.332 35.3057C118.253 34.9895 118.276 34.7502 118.446 34.4647C118.574 34.2505 118.757 34.102 118.967 34.0167C119.181 33.9296 119.425 33.9091 119.667 33.9576Z" fill="black"/>
<path fill-rule="evenodd" clip-rule="evenodd" d="M116.901 52.0189C115.306 51.3017 112.441 51.9274 111.401 52.1761C108.983 52.755 106.551 54.0055 105.799 55.9649C104.952 58.173 106.642 58.8683 106.891 58.7546C108.565 58.8724 110.558 57.8221 112.312 57.5512C113.736 57.3291 115.238 57.1356 116.572 56.3805C117.546 56.9153 119.746 57.2043 121.522 57.6719C123.034 58.0699 123.689 58.9332 125.091 58.7493C126.771 58.5296 126.083 55.0029 124.211 53.5742C122.161 52.0104 118.695 51.3763 116.901 52.0189ZM120.06 67.0985C118.664 67.438 118.571 64.3851 118.414 63.3061C118.292 62.4636 117.603 60.2903 115.857 60.3841C114.11 60.4779 113.453 62.2988 113.542 63.4312C113.599 64.1656 114.278 67.8855 112.113 68.356C110.733 68.3513 109.137 68.2583 107.686 67.9912C105.979 67.6052 103.758 66.2539 103.172 68.9153C102.96 69.8732 110.483 72.719 113.821 72.9765C117.206 73.6609 121.167 72.6083 123.577 70.0234C124.125 69.4355 125.669 66.995 125.78 66.3968C126.011 65.1405 125.475 64.3322 123.918 64.7749C122.818 65.3614 120.958 66.8802 120.06 67.0985Z" fill="black"/>
<path fill-rule="evenodd" clip-rule="evenodd" d="M130.985 44.8536C129.617 54.0867 120.07 55.1078 118.374 45.9416C118.646 45.8226 118.842 45.5883 118.801 45.1335C118.791 43.1361 119.412 41.0247 121.218 39.9139C123.084 38.7678 125.267 38.6541 127.426 38.683C131.547 38.5852 131.46 42.0221 130.985 44.8536ZM116.879 40.838C115.586 40.7836 113.95 40.8292 112.792 41.6153C112.473 40.7597 111.646 39.8456 110.81 39.3569C113.917 39.4478 117.116 39.1424 120.246 38.9054C119.497 39.4154 118.8 40.1813 118.347 41.0668C117.926 40.8432 117.324 40.864 116.879 40.838ZM111.179 45.8326C107.594 58.1505 98.6436 52.7816 97.6677 51.2029C95.9079 48.5907 95.5768 42.2401 97.1099 40.5422C99.3042 39.0068 102.411 39.4022 105.004 39.3645C109.766 39.4285 113.149 40.8506 111.179 45.8326ZM135.219 40.167C134.244 40.0399 133.203 40.0142 132.298 40.4423C132.019 39.2593 131.143 38.2701 130.155 37.835C130.035 37.6851 130.053 37.6047 129.644 37.6272C127.135 36.8744 124.326 37.2727 121.914 38.0448C118.106 38.3648 114.11 38.6173 110.269 39.0583C106.671 37.4457 95.8122 37.2093 95.1373 41.1843C94.2884 41.0575 92.8429 40.3906 92.1296 41.295C86.8978 40.4099 81.4917 41.6402 76.2374 42.1881C74.9148 42.4312 74.2334 45.0511 75.7349 45.0152C76.5788 44.7867 75.7089 43.3839 76.8455 43.2784C81.9151 42.7258 86.8741 41.9418 91.9958 41.85C91.8175 42.7325 95.3832 42.7901 95.4359 42.2746C95.4436 42.2784 95.4515 42.281 95.4594 42.2845C94.578 45.5617 95.3736 50.278 96.9658 52.3102C99.1967 54.9713 104.798 55.7346 107.281 54.0227C110.485 52.4426 113.818 44.5105 112.882 41.8751C114.581 41.3377 116.26 41.499 118.024 41.7728C117.62 42.9108 116.923 45.7125 117.926 45.9553C117.742 51.5177 122.814 54.9883 127.489 52.7065C131.536 50.8105 132.952 44.8092 132.457 41.1662C132.961 42.1378 137.19 41.08 135.219 40.167Z" fill="black"/>
</svg>
