<svg width="246" height="447" viewBox="0 0 246 447" fill="none" xmlns="http://www.w3.org/2000/svg">
<path fill-rule="evenodd" clip-rule="evenodd" d="M78.4052 222.606C78.266 223.296 78.0562 224.044 77.8378 224.714C78.9261 225.762 80.4665 227.167 81.5718 228.182C80.4784 221.424 83.8051 215.187 85.8413 208.795C85.0733 207.81 82.3987 206.801 82.4848 205.709C82.6912 201.661 82.9957 197.144 83.4348 192.077C84.9215 176.253 86.4006 159.752 82.8919 143.88C82.6521 142.155 82.2884 140.34 79.9758 140.3C73.1456 167.5 78.6802 194.886 78.5296 222.258L78.7284 222.436L78.4052 222.606ZM68.1771 445.467C62.5648 445.469 57.4057 444.448 52.4111 442.382C50.9697 441.874 49.1793 441.244 48.9296 440.223C48.5189 437.429 48.8032 434.683 49.1041 431.776C49.5798 426.789 49.5324 422.913 50.8774 417.543C52.3167 412.557 53.5435 408.66 52.1388 403.503C52.0262 401.968 53.226 400.407 54.0185 398.971C55.1405 396.876 55.7099 394.694 56.6011 392.545C54.8503 392.239 53.0323 391.82 51.3513 391.299L51.0691 392.316C51.0071 392.539 50.8362 392.652 50.5615 392.652C50.3915 392.652 49.9565 392.57 49.893 392.207C50.1568 388.28 50.5388 384.374 50.9401 380.385C55.1066 341.959 61.4155 310.282 72.0104 278.69C74.5551 271.292 77.1544 263.59 77.1729 255.551C75.7262 255.24 74.115 255.062 72.6405 255.266C62.1343 252.83 64.2112 230.593 64.6291 223.938C63.8881 223.715 63.0589 223.4 62.4441 222.978L62.1954 223.099C51.763 197.193 56.0472 154.36 58.4335 125.564C59.9993 115.214 57.797 96.517 66.9689 91.4022C74.3745 88.7782 81.7472 87.3034 89.4857 85.5728C90.9189 84.7497 92.6875 84.2799 94.2867 83.7472L93.4606 82.5852C92.3772 81.0577 92.5213 78.0618 93.9384 77.0091C94.8094 77.0574 96.0331 77.9327 96.8655 78.3437C98.0627 75.8667 99.171 73.2758 99.9664 70.2994L100.252 70.4018C101.089 61.9831 111.999 60.5138 118.15 63.3271C124.865 67.0153 121.368 75.3589 124.421 81.382L125.527 79.9061C127.236 79.8745 130.85 82.116 131.721 82.9573C132.344 83.2479 131.893 85.2038 131.984 85.9906C140.992 88.0314 153.322 88.5917 156.186 98.7083C160.949 117.732 160.28 137.234 165.685 156.19C171.343 171.555 179.654 190.357 179.724 204.428C179.885 207.066 180.24 221.982 178.058 221.382L176.618 222.82C178.58 225.953 177.022 230.642 176.271 234.351C174.419 242.222 170.801 250.703 163.073 246.931C154.761 292.854 133.871 339.179 140.997 386.545C141.082 386.822 140.909 387.126 140.613 387.005L140.262 386.843C139.355 387.123 138.205 387.221 137.259 387.433C138.064 390.453 138.496 393.435 138.914 396.776C139.421 397.078 139.185 397.879 139.21 398.362C146.773 398 151.014 405.923 156.437 410.281C160.018 413.477 164.096 416.521 168.559 419.327C172.247 421.423 175.359 423.824 174.798 427.784C174.852 427.777 175.989 427.601 176.045 427.597C177.761 433.308 172.128 434.489 166.327 435.177C152.151 436.603 140.033 433.451 123.62 427.48C121.608 427.718 120.039 424.724 119.771 422.694C119.506 421.333 120.259 419.949 119.684 418.485C117.705 414.277 116.675 403.139 119.465 398.142C120.445 397.009 121.701 395.964 121.538 394.009C121.492 392.051 121.308 390.094 121.474 388.17C118.12 387.846 114.8 387.123 111.874 385.95C111.356 386.15 110.768 385.904 110.732 385.255C110.17 376.301 109.498 366.518 109.353 357.352C108.679 337.403 113.238 317.937 116.728 298.589C116.97 292.383 118.115 286.387 118.476 280.177C118.864 274.288 118.933 268.523 119.27 262.643L117.257 262.205C100.539 305.33 87.4474 348.49 78.2842 390.722C78.4915 390.9 79.0805 391.099 79.0554 391.459C79.0486 391.652 79.0532 391.664 78.9218 391.683C76.708 392.129 74.5172 392.455 72.3233 392.709C72.9418 397.979 69.6422 404.07 72.5624 409.006C73.338 410.196 73.3714 410.444 72.8962 411.262C77.1506 419.186 79.7872 425.778 81.496 432.861L82.597 431.93C84.1931 433.09 84.2262 435.281 84.2611 437.597C84.1475 438.946 84.8058 440.36 83.7973 441.495C81.3696 444.334 72.9086 445.451 68.1771 445.467V445.467Z" fill="#AE5D29"/>
<path fill-rule="evenodd" clip-rule="evenodd" d="M73.7572 409.56C73.8449 409.921 72.312 410.086 72.4007 410.411C73.3289 413.522 75.9557 414.812 77.1432 417.808L77.6997 419.213C79.1998 423.008 80.6534 426.82 81.5522 430.846L81.7021 431.517C81.7021 431.517 84.6027 434.3 84.6832 436.225C84.6832 436.225 84.9917 441.124 84.0571 441.831C77.2412 446.479 68.0246 446.345 60.1465 445.125C57.0059 444.552 53.9399 443.594 51.0288 442.284C49.9284 441.911 49.1053 441.516 48.6019 440.867C48.1744 440.316 47.9975 439.584 48.0669 438.567C47.8859 436.843 48.0187 435.195 48.1702 433.551L48.2413 432.782C48.3683 431.394 48.4781 430.004 48.4095 428.605C48.6216 423.181 50.3397 417.795 51.5555 412.5L52.8615 410.411C52.8615 410.411 54.9683 407.315 57.6647 407.323C57.6647 407.323 62.2838 404.938 65.8599 405.385C69.436 405.832 73.7572 409.56 73.7572 409.56ZM121.899 396.851C123.422 401.977 125.691 404.541 128.703 404.541C133.222 404.541 133.821 398.573 137.364 398.573C137.364 398.573 140.235 398.427 143.314 398.187C146.369 399.28 148.888 401.766 151.305 404.309L152.606 405.685C153.955 407.108 155.295 408.488 156.694 409.612C160.439 412.956 164.493 415.932 168.741 418.603L169.076 418.801C170.726 419.782 172.532 420.938 173.777 422.439C174.683 423.531 175.287 424.809 175.271 426.345L175.266 426.872C175.266 426.872 176.701 428.242 176.715 428.822L176.719 429.018C176.723 429.174 175.951 432.496 174.702 433.324C172.947 434.489 166.488 435.515 166.264 435.551C151.949 437.086 137.458 433.263 124.188 428.039L123.674 427.835C123.637 427.842 123.601 427.847 123.563 427.852C122.497 427.993 121.58 427.424 120.855 426.602C119.853 425.465 119.2 423.822 119.044 422.547C118.926 422.011 119.239 419.232 119.02 418.55C117.175 414.351 116.932 409.785 117.196 405.311C117.127 400.05 118.271 398.377 119.273 397.161L119.531 396.851L121.899 396.851Z" fill="white"/>
<path fill-rule="evenodd" clip-rule="evenodd" d="M94.0443 76.2129L94.0859 76.2193L120.101 91.2187L126.764 81.3044L128.625 80.0855L128.8 80.1746C130.051 80.8201 131.227 81.6225 131.846 82.1893C132.187 82.4157 132.344 82.6412 132.425 82.8952C132.532 83.2291 132.527 83.6014 132.505 83.9787L132.485 84.2809C132.471 84.4978 132.457 84.7139 132.455 84.9249C132.453 85.0484 132.455 85.1736 132.459 85.2998L132.817 85.3696C133.201 85.4443 133.59 85.5183 133.982 85.592L136.367 86.0377C141.714 87.0422 147.367 88.2313 151.482 91.1455C154.576 93.3365 156.782 96.5165 157.298 101.35C158.933 108.336 159.801 115.394 160.605 122.455L160.766 123.855L161.197 127.618C162.413 138.164 163.77 148.731 167.043 158.864L167.337 159.582C167.483 159.938 167.627 160.29 167.771 160.641L168.69 162.877C173.739 175.175 178.708 187.661 179.92 201.018C180.605 207.667 180.5 214.384 179.363 220.975C179.297 221.331 179.016 221.579 178.695 221.71C178.343 221.854 177.92 221.867 177.605 221.667L176.989 222.286C179.056 225.54 177.628 231.066 176.395 235.35L175.896 237.075C175.776 237.49 175.664 237.887 175.562 238.261C174.584 241.505 173.002 245.037 170.518 246.911C169.578 247.62 168.507 248.086 167.287 248.19C166.167 248.285 164.925 248.076 163.549 247.487C163.376 247.413 163.209 247.337 163.048 247.26L162.935 247.808C162.776 248.585 162.615 249.361 162.453 250.136L149.367 232.865L135.494 219.879L117.888 230.335L83.5907 206.852L83.4206 207.576L83.282 207.485C82.798 207.166 82.3319 206.828 82.0315 206.401C81.8034 206.077 81.6852 205.695 81.7642 205.175C81.9794 201.286 82.2445 197.397 82.5621 193.515L83.0244 188.394C84.2573 174.633 85.2885 160.746 82.8221 147.07C82.7258 146.518 82.6162 145.971 82.5043 145.424L82.437 145.096C82.3464 144.656 82.2557 144.215 82.1711 143.773L82.1546 143.678L82.0986 143.33C82.0202 142.857 81.8956 142.214 81.6724 141.729C81.4419 141.228 81.1045 140.907 80.7002 140.837C80.5576 140.812 80.4123 140.819 80.2669 140.856L80.2149 141.066C80.2063 141.101 80.1977 141.136 80.1891 141.172C75.8389 159.098 76.8761 177.382 77.9716 195.636L78.1221 198.146C78.5894 205.975 79.021 213.794 78.9919 221.573L78.9908 221.821C79.0432 221.838 79.0935 221.865 79.1387 221.906C79.1856 221.949 79.2185 221.998 79.2395 222.051C77.2001 223.651 74.5445 224.559 71.2726 224.773L70.9786 224.792C67.9138 224.975 65.5372 224.826 63.8487 224.346L63.8652 224.128C63.7547 224.097 63.6444 224.063 63.5345 224.026C63.1644 223.903 62.8105 223.751 62.4886 223.559L62.2244 223.402L61.9832 223.593C61.8664 223.598 61.798 223.528 61.7219 223.447C61.4107 223.117 61.1029 222.515 60.7965 221.778L60.7316 221.619C59.6952 219.051 58.7744 215.037 58.4733 213.715L58.434 213.542C52.8092 188.034 54.7279 161.756 56.8315 135.885L57.027 133.486C57.1823 131.582 57.3374 129.681 57.4895 127.782C57.9407 124.398 58.1234 120.937 58.2965 117.466L58.3821 115.754C58.7343 108.827 59.215 101.905 61.9454 95.5422C63.8077 90.795 68.9219 89.547 73.4368 88.5345L74.3785 88.3236C76.394 87.7229 78.4187 87.2363 80.4432 86.769L82.7467 86.2403C86.1028 85.4666 89.4398 84.6495 92.6392 83.3877C92.8312 83.312 93.0224 83.2348 93.2129 83.1561C93.0768 83.0167 92.9515 82.8682 92.8384 82.7107C92.2159 81.8432 91.9721 80.7081 92.036 79.5818C92.1024 78.4136 92.5008 77.2483 93.1839 76.3849C93.4279 76.2054 93.711 76.1722 94.0008 76.2072L94.0443 76.2129Z" fill="#9DDADB"/>
<path fill-rule="evenodd" clip-rule="evenodd" d="M99.2711 69.0308C100.432 69.9714 99.2212 76.7562 98.286 78.1405C104.61 82.2163 111.001 86.1985 117.525 89.9315L118.201 90.3168L118.18 90.3109C118.451 90.4325 118.909 90.5405 119.178 90.4869L119.362 90.4258C119.4 90.4137 119.423 90.4081 119.412 90.4167C119.521 90.3587 119.626 90.2976 119.729 90.2275C121.589 88.5293 122.945 85.6509 124.402 83.4125C121.921 81.2221 123.157 76.9534 123.258 74.0373C123.727 74.0257 123.782 75.5153 123.916 75.9474L123.992 76.3595C124.171 77.3244 124.375 78.3077 124.743 79.2049C125.816 77.8444 131.249 81.0587 132.266 82.093C133.375 82.8003 133.035 84.0583 133.02 85.1643C143.33 87.1719 156.476 88.5841 157.861 101.536C159.491 108.484 160.362 115.556 161.167 122.637L161.298 123.768C162.707 135.952 163.956 148.289 167.932 159.956L169.451 163.581C172.738 171.445 175.944 179.374 178.042 187.648C179.669 191.179 184.001 224.879 177.485 222.279C179.713 225.918 178.045 230.707 177.272 234.597C175.668 240.983 172.468 251.418 163.857 248.341C157.364 283.075 144.503 316.538 141.252 351.876C140.196 363.362 140.218 374.985 142.011 386.4C142.253 387.484 141.218 388.443 140.159 387.967C139.628 388.119 139.065 388.165 138.52 388.268C139.148 390.795 139.516 393.435 139.85 396.018L139.887 396.304L139.888 396.306C140.149 396.595 140.277 396.962 140.265 397.376C144.199 397.39 147.49 399.932 150.111 402.633C154.656 407.394 159.455 411.933 164.894 415.67C168.788 418.837 175.618 420.694 175.837 426.584C177.824 426.247 177.349 430.594 176.996 431.742C176.583 433.029 175.384 433.77 174.234 434.343C157.69 439.893 139.469 434.488 123.74 428.529C120.984 428.895 119.014 425.243 118.719 422.835C118.419 421.507 119.124 420.215 118.713 418.92L118.578 418.564C118.083 417.263 117.615 415.99 117.333 414.611L117.292 414.324C116.621 409.56 116.081 401.492 118.631 397.507C121.605 394.955 120.066 392.51 120.364 389.111C117.427 388.775 114.523 388.11 111.775 387.051C110.692 387.283 109.747 386.404 109.675 385.353L109.569 383.67C109.015 374.917 108.438 366.155 108.293 357.384C107.615 337.481 112.121 318.004 115.669 298.565C116.018 291.071 117.447 283.67 117.648 276.157C117.798 271.631 117.985 267.116 118.212 262.597C102.122 304.096 88.9172 346.754 79.44 390.255C80.3116 390.848 80.407 392.462 79.1092 392.721C77.2108 393.1 75.2991 393.41 73.3799 393.645C73.687 398.316 70.9109 404.634 73.4828 408.594L73.5853 408.752C74.0734 409.511 74.551 410.378 74.052 411.26C77.3943 417.539 80.2915 424.09 82.0744 431.006C84.1109 430.169 85.2714 434.312 85.2112 435.809C85.0804 437.772 86.1371 441.079 84.4467 442.421C75.5676 448.149 63.5142 447.261 53.8364 444.089C52.0413 443.318 49.9841 442.794 48.4455 441.563C47.7482 440.855 47.7959 439.691 47.7391 438.771L47.7217 438.295C47.6305 435.647 47.6394 432.949 48.3636 430.341C48.1699 426.563 48.7331 422.734 49.4751 419.038C49.9503 416.054 51.3186 413.22 51.5028 410.209C52.4742 407.514 50.7223 404.995 51.1932 402.302C51.5774 400.661 52.7818 399.243 53.4791 397.715L53.5281 397.606C54.1591 396.216 54.6112 394.776 55.1582 393.351C54.1107 393.151 53.0766 392.905 52.0574 392.61C51.5699 394.378 48.748 393.878 48.8314 392.076C51.1491 363.007 55.7546 334.099 62.8836 305.818C66.2095 289.092 74.7988 273.497 76.0933 256.428C75.0627 256.234 73.8888 256.185 72.879 256.301L72.7586 256.316C72.1134 256.396 71.4935 256.51 70.8017 256.183C61.9255 250.697 62.8379 233.885 63.5114 224.684C63.1106 224.55 62.7276 224.385 62.3789 224.178C62.0705 224.407 61.6026 224.42 61.4223 223.997C60.9679 222.928 60.3838 221.884 59.9886 220.798C49.7039 185.405 56.2712 148.108 58.342 112.029C59.1488 104.617 59.1549 94.5536 66.5123 90.4689C68.9813 89.2985 71.7677 88.7961 74.3991 88.121C80.4378 86.3186 86.7452 85.5111 92.5941 83.2051C91.2332 81.3131 91.5569 78.5538 92.6908 76.6509C93.59 75.2812 95.3162 76.3292 96.3833 76.9118C97.6148 74.3929 98.4596 71.7074 99.2711 69.0308ZM82.4469 432.622L82.5013 432.875C82.7894 434.231 83.0383 435.655 82.8939 437.035C86.7191 440.767 69.092 441.239 67.1469 441.231C62.696 441.185 49.6098 439.7 48.9626 434.33L48.97 434.459C49.0566 436.167 48.7672 439.356 49.6957 440.619C56.7129 444.273 64.8777 445.718 72.7319 444.818L73.0141 444.78C76.1451 444.35 82.0914 443.082 83.6362 440.47C83.2947 438.038 84.1333 434.554 82.4469 432.622ZM69.7531 408.498C65.4572 403.819 58.4008 407.239 53.8708 409.849C53.6997 411.899 52.2642 412.652 52.2061 414.802C51.2409 421.368 49.0168 428.791 51.8503 435.131C60.297 439.657 70.3419 439.35 79.4801 437.402C79.7194 437.09 80.0216 436.997 80.4531 436.878C80.7249 434.955 80.1755 433.021 79.8124 431.153C78.8987 427.228 77.7167 423.374 76.6654 419.485C74.7816 418.267 74.093 415.71 73.1102 413.781C72.8435 413.24 72.5708 412.698 72.2847 412.162C70.751 411.659 70.3496 409.826 69.7531 408.498ZM120.112 421.407C119.65 426.126 124.25 428.008 127.969 429.141C132.155 430.63 136.443 431.866 140.755 432.935C149.589 435.212 158.799 436.21 167.855 434.782L168.012 434.754C170.625 434.294 175.305 433.741 175.899 430.714L175.906 430.644C175.946 430.148 176.023 428.281 175.837 427.803C175.768 427.802 175.701 427.787 175.637 427.755C174.88 430.178 172.122 431.651 169.464 432.031C168.21 433.291 165.901 432.824 164.229 432.896C153.198 432.787 142.593 429.369 132.14 426.192C128.813 425.035 122.183 424.206 120.112 421.407ZM121.06 397.114C119.145 396.438 118.782 401.806 118.537 403.116C117.92 408.658 117.934 417.299 122.417 421.23C127.095 423.234 132.143 424.155 136.968 425.732L138.109 426.068C147.255 428.747 156.653 431.253 166.251 430.858C166.976 429.408 171.572 430.613 173.325 428.03C175.676 423.928 169.739 421.285 166.929 419.537C161.534 416.071 156.494 412.041 151.95 407.514C149.813 405.387 147.858 402.951 145.349 401.24L145.218 401.152C143.068 399.726 140.309 398.841 137.784 399.778C135.326 400.689 134.423 403.499 132.361 404.951C127.765 407.932 123.059 403.221 121.566 398.957L121.522 398.828C121.468 398.696 121.614 398.615 121.724 398.651C121.714 398.609 121.707 398.566 121.698 398.524C121.118 398.372 121.063 397.65 121.06 397.114ZM55.7006 393.451C56.3009 396.846 54.6096 399.893 53.3475 402.897C53.0078 404.888 54.2564 406.797 53.9676 408.823C58.0989 405.578 64.3515 402.7 69.336 405.664C69.3628 402.801 70.3473 400.023 71.203 397.317L71.5504 396.243C71.8211 395.409 72.0964 394.578 72.401 393.758C66.8509 394.338 61.2318 394.396 55.7006 393.451ZM136.991 388.501C132.134 389.171 127.223 389.556 122.332 389.286L122.888 397.727V397.727C122.911 398.072 122.764 398.312 122.548 398.449C123.269 401.192 125.539 403.632 128.354 404.226C132.7 404.788 133.285 399.019 136.977 397.953C136.27 396.364 136.776 394.275 136.707 392.546C136.746 391.184 136.816 389.836 136.991 388.501ZM120.996 396.138C120.902 396.332 120.792 396.513 120.671 396.688C120.799 396.699 120.923 396.738 121.039 396.808C121.026 396.586 121.011 396.362 120.996 396.138ZM77.2481 224.17C72.9967 225.644 68.3575 225.946 63.9778 224.826C64.9385 232.032 65.9035 249.101 72.024 253.263C73.0581 253.114 74.0967 253.04 75.1412 253.145C75.7625 253.207 76.3772 253.307 76.9933 253.403C77.2247 253.435 77.6858 253.459 77.9802 253.438L78.0304 253.434C77.9524 253.44 77.8915 253.439 77.9734 253.433L78.0989 253.427L78.1633 253.422C80.2855 253.231 82.2006 250.231 84.3005 251.67C84.6088 251.203 85.0749 250.904 85.4329 250.488C87.0265 247.694 85.3336 244.099 86.3985 241.155C85.9962 240.604 86.1288 239.78 86.7606 239.309C87.745 238.404 89.8265 239.078 90.3933 237.778C90.3545 237.848 90.3517 237.767 90.3668 237.724L90.3704 237.715L90.2705 237.633C85.9209 234.028 81.7153 230 78.865 224.999L78.7695 224.83C78.2242 225.36 77.3281 224.955 77.2481 224.17ZM176.561 221.725C173.566 223.365 170.342 224.553 166.996 225.24C166.309 231.825 165.52 238.413 164.443 244.943L164.698 244.989C166.192 245.263 167.765 245.631 169.056 244.6C173.305 240.467 174.836 232.154 176.504 226.54L176.57 226.285C176.921 224.908 177.323 223.003 176.561 221.725ZM133.012 85.625C132.565 87.8601 135.026 112.195 130.538 108.032C127.5 103.257 124.026 98.7891 120.92 94.0635C120.492 95.7529 121.744 97.7602 121.152 99.1925C129.056 138.837 134.791 179.093 136.915 219.48C140.409 221.935 143.472 224.912 146.475 227.929C147.411 228.725 148.091 230.028 149.253 230.486C153.971 225.146 159.421 220.517 164.381 215.409C164.335 215.059 164.283 214.71 164.223 214.361C163.976 212.91 165.84 212.175 166.56 213.065C168.065 209.242 168.205 204.748 167.832 200.646C167.101 193.75 164.53 187.162 162.694 180.517C157.402 160.188 153.739 138.862 155.472 117.817C155.498 117.622 155.757 117.619 155.78 117.817C157.218 140.05 159.459 162.345 166.138 183.715L166.297 184.243C168.907 192.88 172.134 202.036 169.901 211.094C170.086 212.314 169.501 213.529 168.618 214.406C168.224 215.358 167.786 216.302 167.266 217.191C167.445 219.254 167.359 221.321 167.177 223.374C170.61 222.639 173.812 221.232 176.874 219.536C177.056 218.501 177.215 217.464 177.339 216.422C179.716 197.095 172.466 178.299 165.213 160.755C158.302 140.308 159.651 118.119 153.875 97.4359C150.221 89.3704 140.24 88.7364 133.012 85.625ZM93.8353 84.1266L93.5976 84.2097C91.9336 84.7965 90.2651 85.4764 88.486 85.5266C82.9026 87.3862 77.1776 88.814 71.5018 90.366L70.9527 90.5166C68.5298 91.1832 66.0832 91.9449 64.4486 93.9817C62.8811 95.9347 62.2255 98.4499 61.7132 100.852C59.3127 121.839 57.9526 143.039 56.733 164.152C56.1351 181.732 56.4758 199.605 60.9649 216.711C61.5986 219.054 62.3697 221.406 62.6427 223.814C62.969 223.818 63.2968 223.84 63.6261 223.873C63.631 223.716 63.87 223.742 63.8526 223.895C68.2144 224.584 72.748 224.177 76.8413 222.484C75.8302 191.688 69.2585 158.265 84.144 129.697C84.2051 129.588 84.3899 129.663 84.3482 129.783L83.9812 130.843C82.8006 134.257 81.647 137.677 80.8168 141.198C81.9999 141.022 82.8626 143.795 83.0863 144.475C89.538 164.08 85.5644 185.001 84.743 205.135C95.851 213.219 107.068 221.17 118.612 228.62C123.855 225.21 128.551 220.738 133.938 217.645C132.399 176.049 123.919 134.893 119.309 93.8101C117.599 95.9366 115.858 98.0385 114.119 100.141C111.883 102.889 109.721 105.708 107.515 108.482C107.059 109.058 106.066 108.834 105.741 108.254C101.397 100.399 98.6358 91.7225 93.8353 84.1266ZM80.7422 141.511C74.3342 167.914 79.6584 195.105 79.5577 221.808C80.0343 222.23 79.8576 223.03 79.3014 223.32C79.2194 223.688 79.1226 224.054 79.0093 224.419C79.4563 224.844 79.9063 225.266 80.3608 225.683C80.0151 219.87 82.9386 214.589 84.6328 209.131C83.4146 208.044 81.1326 207.37 81.4366 205.384C81.672 201.067 81.973 196.752 82.3378 192.444L82.5632 190.033C83.9832 174.745 85.19 159.209 81.8508 144.09L81.8309 143.976C81.722 143.314 81.5135 141.646 80.7422 141.511ZM176.849 221.568L176.797 221.597L176.913 221.695C176.889 221.655 176.868 221.612 176.849 221.568ZM138.519 212.572C137.033 211.116 139.326 208.805 140.793 210.297C142.276 211.756 139.982 214.066 138.519 212.572ZM137.54 195.249C137.212 194.388 138.124 193.021 139.089 193.593L139.119 193.612L139.133 193.594C140.046 194.134 139.709 195.252 139.173 195.918C138.578 196.531 137.838 195.803 137.54 195.249ZM136.145 175.305C133.562 171.918 138.989 170.528 138.1 174.698C137.91 175.478 136.348 176.615 136.145 175.305ZM132.325 156.434C130.954 154.757 133.901 153.314 134.518 155.316C134.871 156.651 133.206 157.475 132.325 156.434ZM146.043 114.832C146.855 114.958 150.96 114.119 149.904 115.83C151.556 124.088 156.2 134.163 149.569 141.379L149.51 141.437C148.532 142.415 146.968 144.738 145.471 143.781C142.149 140.976 137.869 138.973 135.33 135.383C134.263 132.568 135.171 129.422 134.889 126.476C134.768 122.751 134.148 119.059 134.016 115.339C134.01 115.159 134.205 115.101 134.327 115.177C138.223 114.867 142.139 114.935 146.043 114.832ZM134.46 115.438C136.222 121.179 136.262 127.317 136.215 133.268C136.242 133.881 136.351 134.478 136.671 134.947C139.19 137.92 142.78 139.783 145.771 142.252C146.982 141.46 147.94 140.449 148.799 139.301C154.054 132.419 149.292 123.757 149.298 116.094L148.624 116.095C143.907 116.101 139.145 116.039 134.46 115.438ZM130.494 136.759L130.54 136.759C132.347 136.764 131.933 139.829 130.227 139.409C128.789 139.068 129.008 136.778 130.494 136.759V136.759ZM126.948 121.114C125.696 118.978 129.829 118.152 129.394 120.619L129.403 120.517C129.405 120.498 129.407 120.481 129.408 120.465L129.377 120.696V120.696C129.227 121.787 127.075 122.569 126.948 121.114ZM124.174 103.428C125.323 103.124 126.17 104.738 125.184 105.462C123.72 106.568 122.459 103.813 124.174 103.428ZM96.0137 78.4148L95.8736 78.2852C94.3749 76.9079 93.2512 76.2192 92.9189 79.026C92.6875 80.3948 92.8861 82.1212 94.1974 82.9307C100.475 89.1426 102.855 98.0111 106.9 105.651C110.553 101.224 113.952 96.6153 117.485 92.0986C112.618 89.1308 107.703 86.1857 102.902 83.0888C100.608 81.5622 98.1385 80.1725 96.0137 78.4148ZM127.618 82.0766C125.729 85.1609 123.986 88.4968 121.578 91.2263C121.271 91.5349 120.953 91.7796 120.623 91.9659C121.095 91.8297 121.718 92.1824 121.659 92.6995C125.164 96.1957 128.029 100.263 130.766 104.378C131.289 97.5704 130.292 90.7344 130.678 83.9164C129.789 83.0979 128.729 82.5373 127.618 82.0766Z" fill="black"/>
<path fill-rule="evenodd" clip-rule="evenodd" d="M134.928 45.3247C134.607 42.5046 135.022 36.6101 135.05 36.2519C135.226 33.988 134.166 25.0479 132.161 25.8716C128.8 23.2087 124.322 22.6206 120.135 22.3397C111.438 21.7562 102.186 23.0958 95.4702 28.9522C92.149 31.9935 88.9158 36.417 89.1756 41.0228C86.1582 45.3885 81.9042 51.3772 85.6639 56.4811C86.9418 58.1117 88.9729 58.719 90.5784 59.9539C93.8076 62.5601 95.8335 66.3002 99.0933 68.8909C107.73 76.6561 122.394 78.2782 130.879 69.4459C137.441 63.0492 136.38 53.4795 135.226 45.3247C134.45 39.8422 135.554 50.8264 134.928 45.3247Z" fill="#AE5D29"/>
<path fill-rule="evenodd" clip-rule="evenodd" d="M108.517 10.3804C110.843 9.91077 113.231 9.61855 115.606 9.70651L115.79 9.71363C117.577 9.7851 119.84 9.9432 121.399 10.983C121.489 10.893 121.633 10.8468 121.764 10.9092C123.617 11.7941 125.654 12.4339 127.605 13.0696C129.547 13.7022 131.562 14.1198 133.597 14.2882C134.363 14.3515 135.018 15.1788 134.533 15.9209C134.418 16.0977 134.305 16.2763 134.193 16.4554C134.381 16.4358 134.568 16.4157 134.755 16.3968C135.371 16.3348 135.986 16.9924 135.949 17.5924C135.927 17.9697 135.886 18.3426 135.826 18.711C136.06 18.7061 136.294 18.7413 136.519 18.8365C137.66 19.3186 137.58 20.6781 137.495 21.7126C137.376 23.148 136.84 24.6685 135.844 25.7428C136.588 26.5159 137.114 27.4391 137.428 28.5355C137.656 29.3361 137.783 30.189 137.72 31.0224L137.7 31.2719C137.623 32.1764 137.469 33.1777 136.819 33.8283C136.485 34.1638 136.074 34.286 135.682 34.2473C135.919 36.3316 136.071 38.4279 136.214 40.5167L136.281 41.515C136.6 46.3426 136.84 51.2017 136.777 56.0373C136.719 60.5563 135.826 64.9426 133.056 68.6118C130.534 71.953 126.911 74.416 122.814 75.3523C120.606 75.8577 118.351 75.8935 116.116 75.5715C115.033 75.4149 113.942 75.1749 112.914 74.7962C111.776 74.3758 110.958 73.757 110.192 72.8297C109.829 72.3898 110.004 71.4535 110.725 71.5415C111.816 71.6738 112.812 71.8334 113.858 72.1562L114.007 72.2035C115.049 72.5374 116.128 72.7864 117.217 72.8923C119.448 73.1085 121.713 72.8908 123.849 72.2139C127.329 71.1106 130.325 68.6521 132.246 65.5628C134.526 61.9011 134.783 57.7444 134.75 53.534C134.715 48.9138 134.565 44.291 134.32 39.6756L134.278 38.9064C134.148 36.5314 134.023 34.1548 133.913 31.7783C133.879 31.0328 133.827 30.2814 133.733 29.5374C132.873 29.0335 132.103 28.3387 131.601 27.4814C130.592 27.8989 129.531 28.2001 128.555 28.4401C126.294 28.9965 123.946 29.1316 121.645 28.7832C121.024 29.0397 120.391 29.2653 119.748 29.4594C119.575 29.5365 119.401 29.6123 119.227 29.6865C117.677 30.35 116.105 30.9121 114.47 31.3236L114.068 31.4238C113.207 31.6362 112.272 31.8453 111.355 31.911C111.205 31.9691 111.042 32.0183 110.865 32.0616C110.031 32.2643 109.165 32.3284 108.31 32.2569C107.477 32.1868 106.875 31.3444 107.334 30.5557C107.669 29.9802 108.007 29.4062 108.348 28.8337C107.161 29.3287 105.935 29.7402 104.698 30.0891C103.449 30.4409 102.183 30.7376 100.914 31.0105C100.236 31.1551 99.5557 31.2833 98.8792 31.4279C98.395 31.5308 97.6514 31.5845 97.2564 31.9035C96.82 32.2539 96.6963 33.0709 96.5308 33.5749C96.3132 34.2294 96.1091 34.8869 95.9228 35.5518C95.5519 36.8788 95.248 38.2251 95.0125 39.5848C94.7771 40.946 94.619 42.3207 94.5311 43.6998C94.4434 45.0774 94.4819 46.464 94.3405 47.8356C94.2644 48.5632 93.4838 48.9374 92.9071 48.429C92.8395 48.3694 92.7713 48.3091 92.7038 48.2481L92.6031 48.1562C92.1098 47.7089 91.6315 47.2348 91.2368 46.701C91.1653 46.6026 91.0967 46.4998 91.0326 46.3954C91.0222 46.3954 91.0133 46.3924 91.0028 46.385L90.8934 46.3026C89.6883 45.405 87.675 44.2349 86.4999 45.726C86.1255 46.201 85.9338 46.8058 85.7747 47.3893L85.4955 48.4336C85.3149 49.1154 85.1449 49.8009 85.0455 50.4985C84.8205 52.061 84.9337 53.862 86.0082 55.1144C86.4373 55.6153 87.0289 55.9732 87.6888 56.0671C88.057 56.1178 88.4206 56.0552 88.7856 56.0089C89.1567 55.9627 89.5141 56.0373 89.8853 56.0015C90.4754 55.9433 90.7331 56.65 90.5126 57.0943C90.3934 57.3329 90.2532 57.5386 90.0939 57.7131C90.2219 57.8234 90.3442 57.9427 90.4619 58.0679C90.8106 58.1797 91.1234 58.4198 91.3575 58.7374C91.5467 58.9938 91.6449 59.2726 91.6614 59.5663C91.6821 59.6394 91.7 59.7139 91.7166 59.79L92.0362 60.3091C92.1065 60.4229 92.1766 60.5354 92.2469 60.6457C93.0604 61.928 93.9636 63.0133 95.0856 64.0361C96.1658 65.0201 97.3384 65.9013 98.3532 66.9569L98.4728 67.0822C99.4189 68.0798 100.416 69.2874 100.046 70.7379C99.9506 71.1106 99.4304 71.379 99.0908 71.127C97.9986 70.3159 97.4486 69.0308 96.522 68.0467C95.5682 67.0329 94.5117 66.1219 93.5553 65.1111C92.6507 64.1569 91.9369 63.076 91.3992 61.8862C91.1845 62.1233 90.8717 62.2917 90.4381 62.3573C89.6931 62.4692 88.9986 62.0323 88.6739 61.3867C88.4651 61.4792 88.2522 61.5627 88.0375 61.6283C86.908 61.9742 86.1974 60.7173 86.6236 59.7885C86.8514 59.2905 87.136 58.8581 87.4893 58.4943C86.385 58.3423 85.2615 57.7712 84.5359 57.0586C82.7152 55.268 82.4649 52.5768 82.8746 50.1839C83.0922 48.9151 83.4675 47.6314 83.9549 46.4401C84.0397 46.2329 84.1307 46.0242 84.2304 45.8184C84.1753 45.8169 84.1187 45.7931 84.0829 45.7469C83.7536 45.2966 83.3529 44.9283 83.1084 44.4244C82.8834 43.9622 82.6332 43.4941 82.4558 43.0125C82.0909 42.027 81.9121 40.9147 81.7929 39.8726C81.547 37.739 81.6422 35.6189 81.9687 33.4988C82.5243 29.8878 83.8666 26.4321 85.844 23.3998C85.7363 23.3432 85.6332 23.2749 85.537 23.1941L85.4895 23.1526L85.4123 23.0829C84.8481 22.5719 84.8968 21.6143 85.4123 21.0968L85.5752 20.9335C85.7813 20.7285 85.9592 20.5661 86.2922 20.343C86.3414 20.31 86.3916 20.279 86.4424 20.2501C86.2681 19.9278 86.2076 19.5508 86.329 19.135C86.7522 17.6864 88.8353 17.7377 90.1556 18.3694C91.6163 17.065 93.236 15.9327 94.9915 15.0157C99.1728 12.833 103.901 11.3108 108.517 10.3804ZM86.9038 48.5334C87.6845 48.2785 88.7216 48.8137 89.4234 49.1358C90.313 49.5443 91.0699 50.1481 91.803 50.7862C92.1681 51.1053 92.2335 51.6271 92.1428 52.0729C92.1337 52.1176 92.1249 52.1639 92.1143 52.2101C92.0174 52.6857 91.487 53.0599 91.0176 53.0465C90.0357 53.0197 89.568 52.1713 89.012 51.4527C88.9466 51.569 88.8647 51.6763 88.7632 51.7568L88.6947 51.8105C88.464 51.9862 88.2097 52.1267 87.9049 52.1132C87.6889 52.1027 87.4819 52.0476 87.291 51.9477C86.8142 51.6957 86.6043 51.0785 86.7337 50.576C86.8142 50.2599 86.999 50.0124 87.2404 49.841L87.1504 49.7794C86.9579 49.6453 86.7823 49.504 86.6454 49.2954L86.6145 49.2461H86.6265C86.4775 48.9897 86.5745 48.6408 86.9038 48.5334Z" fill="black"/>
<path fill-rule="evenodd" clip-rule="evenodd" d="M117.503 63.5026C116.502 63.0937 115.608 62.4117 114.955 61.5405C114.727 61.2376 114.669 60.9178 114.716 60.6253C114.77 60.2963 114.964 59.9982 115.23 59.7983C115.496 59.5977 115.828 59.4988 116.15 59.5492C116.43 59.593 116.708 59.7462 116.928 60.0638L116.974 60.1274C117.363 60.6532 117.869 61.0846 118.446 61.3627C119.002 61.6308 119.623 61.7559 120.267 61.6831C121.492 61.5446 122.337 60.8815 123.234 59.9811C123.346 59.8674 123.457 59.7501 123.569 59.631C123.64 59.523 123.738 59.4536 123.847 59.4171C123.967 59.3767 124.104 59.379 124.229 59.4227C124.35 59.4649 124.458 59.5448 124.531 59.6512C124.599 59.7523 124.638 59.8773 124.626 60.0209C124.544 60.9541 124.056 61.787 123.363 62.4409C122.594 63.1672 121.575 63.6697 120.615 63.8459C119.557 64.04 118.479 63.9009 117.503 63.5026V63.5026ZM121.113 49.1063C122.239 49.7906 123.953 51.3864 122.743 53.0829C121.318 54.5789 119.266 52.8637 118.256 52.088C117.318 51.4868 116.265 53.033 117.135 53.735C124.439 59.1463 127.404 49.2852 121.683 48.3016C121.053 48.1932 120.819 48.8945 121.113 49.1063ZM108.023 42.8114C108.148 41.2674 110.498 40.9167 110.732 42.4446C110.941 43.8133 110.694 45.0706 110.078 46.3029C109.49 47.4801 108.01 46.9309 107.898 45.8589C107.748 44.422 107.946 43.7719 108.023 42.8114ZM125.913 42.1278C126.241 41.6984 126.714 41.4053 127.281 41.571C129.052 42.0888 128.53 44.6044 127.908 45.8289C127.57 46.4939 126.478 46.6625 125.984 46.077C125.179 45.1222 124.794 43.2155 125.817 42.275C125.845 42.2264 125.875 42.1773 125.913 42.1278ZM110.053 36.0551L110.333 36.0061C111.199 35.8564 112.275 35.7125 112.887 36.4086C113.211 36.7778 113.323 37.4639 112.887 37.8172C112.119 38.439 111.27 38.198 110.35 38.2507C109.592 38.2942 108.864 38.4197 108.133 38.6286C106.531 39.0868 105.226 39.9232 103.857 40.8416C103.678 40.9621 103.495 40.7323 103.58 40.5643C104.37 39.0163 105.901 37.7446 107.434 36.9695C108.253 36.5558 109.148 36.2126 110.053 36.0551ZM124.299 35.3617L124.513 35.4055C126.843 35.8928 129.87 36.8663 130.974 39.1563C131.016 39.4801 130.971 39.5495 130.935 39.5949L130.923 39.61C130.893 39.6487 130.87 39.702 130.729 39.7461C130.69 39.7368 130.651 39.727 130.611 39.7166C130.106 39.584 129.705 39.4013 129.318 39.2117L128.898 39.0046C128.411 38.7655 127.919 38.5351 127.398 38.3651C126.286 38.0022 125.143 37.7466 123.981 37.6101C123.729 37.5805 123.487 37.4955 123.296 37.3498C123.114 37.2115 122.976 37.02 122.912 36.7655C122.83 36.4362 122.854 36.1868 123.031 35.8897C123.163 35.6666 123.353 35.5119 123.572 35.4231C123.794 35.3326 124.047 35.3112 124.299 35.3617Z" fill="black"/>
<path fill-rule="evenodd" clip-rule="evenodd" d="M121.426 54.1694C119.769 53.4226 116.793 54.0743 115.713 54.3334C113.202 54.9361 110.675 56.2384 109.894 58.2787C109.014 60.5782 110.77 61.302 111.028 61.1838C112.767 61.3064 114.837 60.2128 116.659 59.9305C118.138 59.6994 119.698 59.4977 121.084 58.7114C122.096 59.2683 124.381 59.5693 126.225 60.0562C127.796 60.4707 128.476 61.3696 129.932 61.1784C131.678 60.9494 130.963 57.2768 129.018 55.789C126.89 54.1608 123.289 53.5004 121.426 54.1694ZM124.707 69.8727C123.257 70.2264 123.16 67.047 122.998 65.9237C122.871 65.0461 122.155 62.783 120.341 62.8807C118.527 62.9783 117.845 64.8744 117.937 66.0537C117.996 66.8184 118.701 70.6921 116.453 71.1822C115.019 71.1771 113.361 71.0804 111.854 70.8023C110.08 70.4004 107.774 68.9931 107.165 71.7646C106.945 72.762 114.759 75.7255 118.226 75.9936C121.742 76.7066 125.856 75.6103 128.36 72.9187C128.929 72.3064 130.533 69.7649 130.648 69.1421C130.888 67.8339 130.332 66.992 128.714 67.4531C127.571 68.0638 125.639 69.6453 124.707 69.8727Z" fill="black"/>
<path fill-rule="evenodd" clip-rule="evenodd" d="M136.055 46.7083C134.634 56.3231 124.717 57.3865 122.955 47.8412C123.238 47.7173 123.442 47.4734 123.399 46.9999C123.389 44.9197 124.035 42.7212 125.91 41.5644C127.848 40.3708 130.116 40.2524 132.359 40.2825C136.638 40.1805 136.548 43.7598 136.055 46.7083M121.403 42.5266C120.06 42.47 118.361 42.5174 117.157 43.3362C116.827 42.4449 115.967 41.4933 115.099 40.9844C118.326 41.0789 121.649 40.7611 124.901 40.5143C124.122 41.0452 123.398 41.8429 122.928 42.765C122.491 42.532 121.865 42.5538 121.403 42.5266M115.483 47.7276C111.758 60.555 102.462 54.964 101.448 53.3201C99.6201 50.5997 99.2762 43.9869 100.869 42.2188C103.148 40.6199 106.375 41.0314 109.068 40.9922C114.015 41.059 117.529 42.5398 115.483 47.7276M140.452 41.8278C139.441 41.6954 138.359 41.6688 137.418 42.1145C137.129 40.8826 136.219 39.8527 135.193 39.3994C135.068 39.2435 135.087 39.1597 134.662 39.1831C132.056 38.3991 129.139 38.8139 126.633 39.6178C122.677 39.9512 118.526 40.2141 114.537 40.6734C110.799 38.994 99.5208 38.7479 98.8199 42.8871C97.9382 42.7552 96.4367 42.0609 95.6958 43.0027C90.2615 42.0809 84.6462 43.362 79.1884 43.9326C77.8145 44.1858 77.1069 46.9139 78.6664 46.8766C79.5431 46.6385 78.6394 45.1778 79.82 45.0679C85.086 44.4924 90.2367 43.676 95.5567 43.5804C95.3716 44.4996 99.0752 44.5594 99.1299 44.0226C99.1378 44.0267 99.1462 44.0294 99.1542 44.0329C98.239 47.4457 99.0651 52.3571 100.719 54.4733C103.036 57.2444 108.854 58.0394 111.434 56.2565C114.762 54.611 118.224 46.3509 117.251 43.6067C119.016 43.047 120.761 43.215 122.592 43.5001C122.173 44.6852 121.449 47.6027 122.49 47.8557C122.299 53.648 127.568 57.2621 132.424 54.886C136.628 52.9116 138.098 46.6619 137.584 42.8685C138.107 43.8803 142.501 42.7788 140.452 41.8278" fill="black"/>
</svg>
