<svg width="270" height="490" viewBox="0 0 270 490" fill="none" xmlns="http://www.w3.org/2000/svg">
<path fill-rule="evenodd" clip-rule="evenodd" d="M86.3585 244.162C86.205 244.92 85.9739 245.74 85.7334 246.475C86.932 247.625 88.6287 249.165 89.8464 250.279C88.6421 242.866 92.3062 236.025 94.5486 229.015C93.7027 227.934 90.7569 226.828 90.8517 225.629C91.0791 221.19 91.4144 216.235 91.8982 210.677C93.5356 193.321 95.1649 175.221 91.3002 157.813C91.0362 155.92 90.6356 153.93 88.0883 153.886C80.5652 183.721 86.6613 213.759 86.4955 243.781L86.7142 243.977L86.3585 244.162ZM75.0928 488.605C68.9113 488.608 63.2286 487.487 57.7274 485.22C56.1399 484.663 54.1678 483.972 53.8928 482.854C53.4406 479.789 53.7538 476.775 54.0851 473.588C54.609 468.117 54.5567 463.868 56.0381 457.976C57.6236 452.509 58.9749 448.233 57.4276 442.579C57.3036 440.893 58.6252 439.181 59.4978 437.605C60.7339 435.309 61.361 432.916 62.3425 430.559C60.414 430.222 58.4118 429.761 56.5603 429.191L56.2494 430.305C56.1811 430.552 55.9928 430.676 55.6903 430.676C55.5031 430.676 55.024 430.586 54.954 430.189C55.2445 425.879 55.6652 421.597 56.1074 417.221C60.6964 375.074 67.6454 340.33 79.315 305.678C82.1175 297.563 84.9807 289.115 85.0011 280.298C83.4076 279.957 81.6331 279.762 80.0088 279.986C68.437 277.314 70.7246 252.923 71.1849 245.623C70.3688 245.379 69.4553 245.033 68.7783 244.57L68.5043 244.704C57.0135 216.288 61.7325 169.307 64.3608 137.724C66.0853 126.371 63.6597 105.863 73.7619 100.253C81.9189 97.3752 90.0393 95.7576 98.5631 93.8594C100.142 92.9565 102.089 92.4414 103.851 91.857L102.941 90.5826C101.748 88.907 101.906 85.6212 103.467 84.4663C104.427 84.5193 105.774 85.4793 106.691 85.9303C108.01 83.2136 109.231 80.3717 110.107 77.1069L110.422 77.2194C111.344 67.9855 123.36 66.3736 130.135 69.4595C137.531 73.505 133.679 82.6565 137.042 89.2628L138.26 87.6439C140.142 87.6092 144.123 90.0679 145.082 90.9905C145.769 91.3092 145.272 93.4548 145.372 94.3177C155.294 96.556 168.875 97.1705 172.029 108.267C177.276 129.132 176.538 150.523 182.491 171.314C188.724 188.168 197.878 208.79 197.955 224.225C198.132 227.117 198.523 243.478 196.12 242.82L194.534 244.397C196.695 247.833 194.979 252.976 194.151 257.045C192.112 265.678 188.127 274.981 179.615 270.843C170.46 321.213 147.45 372.023 155.299 423.977C155.393 424.281 155.203 424.614 154.876 424.481L154.49 424.304C153.491 424.611 152.224 424.718 151.182 424.951C152.069 428.263 152.545 431.534 153.005 435.199C153.564 435.529 153.303 436.407 153.332 436.938C161.661 436.541 166.332 445.232 172.306 450.012C176.25 453.517 180.742 456.855 185.657 459.932C189.719 462.232 193.146 464.866 192.529 469.208C192.588 469.202 193.842 469.008 193.903 469.005C195.792 475.267 189.588 476.565 183.199 477.319C167.585 478.882 154.237 475.427 136.16 468.875C133.943 469.138 132.215 465.854 131.92 463.627C131.628 462.135 132.458 460.617 131.825 459.011C129.645 454.395 128.51 442.178 131.583 436.697C132.662 435.456 134.046 434.308 133.866 432.165C133.816 430.015 133.613 427.869 133.796 425.759C130.102 425.405 126.445 424.611 123.223 423.326C122.652 423.543 122.004 423.273 121.964 422.562C121.346 412.742 120.606 402.01 120.445 391.957C119.703 370.077 124.725 348.724 128.568 327.504C128.835 320.696 130.096 314.12 130.494 307.309C130.921 300.85 130.997 294.526 131.369 288.076L129.151 287.597C110.738 334.899 96.3176 382.237 86.2251 428.56C86.4533 428.753 87.1021 428.974 87.0747 429.367C87.067 429.578 87.072 429.591 86.9273 429.614C84.4889 430.102 82.076 430.459 79.6594 430.739C80.3407 436.517 76.7065 443.2 79.923 448.614C80.7772 449.919 80.8141 450.189 80.2905 451.087C84.9766 459.779 87.8806 467.009 89.7626 474.779L90.9753 473.758C92.7333 475.03 92.7698 477.433 92.8083 479.973C92.683 481.452 93.4083 483.004 92.2975 484.249C89.6236 487.363 80.3042 488.588 75.0928 488.605Z" fill="#AE5D29"/>
<path fill-rule="evenodd" clip-rule="evenodd" d="M81.2388 449.221C81.3356 449.618 79.647 449.799 79.7448 450.152C80.7672 453.567 83.6605 454.982 84.9686 458.267L85.5813 459.809C87.2338 463.971 88.8347 468.15 89.8246 472.566L89.9897 473.304C89.9897 473.304 93.1848 476.355 93.2733 478.468C93.2733 478.468 93.6129 483.842 92.5835 484.616C85.0764 489.716 74.925 489.569 66.2478 488.231C62.7884 487.6 59.4114 486.552 56.2049 485.113C54.9929 484.703 54.0864 484.272 53.532 483.558C53.061 482.954 52.8664 482.153 52.9428 481.038C52.7434 479.145 52.8895 477.339 53.0563 475.534L53.1347 474.692C53.2747 473.17 53.3957 471.645 53.32 470.11C53.5534 464.162 55.4461 458.253 56.7851 452.446L58.2235 450.152C58.2235 450.152 60.544 446.758 63.514 446.768C63.514 446.768 68.6018 444.151 72.5405 444.642C76.4793 445.132 81.2388 449.221 81.2388 449.221ZM134.264 435.279C135.942 440.903 138.44 443.714 141.759 443.714C146.736 443.714 147.396 437.168 151.297 437.168C151.297 437.168 154.46 437.011 157.851 436.748C161.217 437.946 163.991 440.673 166.653 443.46L168.086 444.969C169.572 446.531 171.048 448.043 172.588 449.278C176.714 452.946 181.179 456.211 185.858 459.138L186.227 459.358C188.044 460.433 190.033 461.702 191.405 463.347C192.402 464.545 193.068 465.947 193.05 467.633L193.044 468.21C193.044 468.21 194.625 469.712 194.64 470.347L194.645 470.564C194.65 470.734 193.799 474.379 192.424 475.287C190.49 476.565 183.376 477.69 183.129 477.727C167.362 479.412 151.401 475.22 136.786 469.489L136.219 469.265C136.179 469.272 136.138 469.278 136.097 469.285C134.923 469.439 133.913 468.814 133.114 467.913C132.011 466.665 131.292 464.862 131.12 463.467C130.989 462.876 131.335 459.829 131.093 459.081C129.061 454.475 128.793 449.468 129.084 444.562C129.008 438.79 130.268 436.955 131.371 435.619L131.656 435.279H134.264Z" fill="white"/>
<path fill-rule="evenodd" clip-rule="evenodd" d="M103.584 83.5931L103.63 83.6001L132.284 100.052L139.623 89.1777L141.673 87.8405L141.866 87.9383C143.243 88.6463 144.538 89.5265 145.22 90.148C145.596 90.3963 145.769 90.644 145.858 90.9224C145.976 91.2885 145.971 91.6971 145.946 92.1107L145.925 92.4424C145.909 92.6801 145.894 92.9174 145.891 93.1487C145.889 93.2839 145.892 93.4214 145.896 93.56L146.289 93.6364C146.713 93.7185 147.141 93.7996 147.572 93.8804L150.2 94.3691C156.089 95.4709 162.316 96.7753 166.849 99.9717C170.256 102.375 172.686 105.863 173.254 111.164C175.055 118.827 176.011 126.568 176.896 134.313L177.074 135.849L177.548 139.976C178.888 151.543 180.383 163.134 183.988 174.248L184.312 175.036C184.472 175.426 184.631 175.813 184.79 176.197L185.802 178.649C191.363 192.138 196.835 205.833 198.171 220.484C198.925 227.777 198.81 235.145 197.558 242.374C197.485 242.764 197.175 243.037 196.822 243.18C196.434 243.338 195.969 243.352 195.621 243.133L194.942 243.811C197.219 247.381 195.647 253.442 194.289 258.141L193.739 260.032C193.607 260.488 193.483 260.924 193.371 261.334C192.294 264.892 190.552 268.766 187.816 270.822C186.78 271.599 185.6 272.11 184.257 272.224C183.022 272.328 181.655 272.099 180.139 271.453C179.949 271.372 179.765 271.288 179.588 271.204L179.463 271.806C179.287 272.657 179.111 273.508 178.932 274.359L164.518 255.415L149.238 241.171L129.847 252.64L92.0703 226.883L91.8827 227.676L91.73 227.577C91.197 227.227 90.6838 226.857 90.3529 226.388C90.1016 226.033 89.9713 225.614 90.0584 225.044C90.2956 220.777 90.5873 216.513 90.9371 212.254L91.4466 206.638C92.8043 191.544 93.9402 176.312 91.2238 161.312C91.1176 160.707 90.9967 160.107 90.8734 159.507L90.7994 159.147C90.6996 158.664 90.5997 158.18 90.5066 157.695L90.4885 157.591L90.4266 157.209C90.3405 156.69 90.2031 155.986 89.9572 155.453C89.7033 154.904 89.3318 154.552 88.8866 154.475C88.7295 154.447 88.5694 154.455 88.4093 154.496L88.352 154.726C88.3426 154.765 88.3329 154.804 88.3235 154.842C83.5322 174.505 84.6745 194.56 85.8811 214.58L86.0469 217.334C86.5615 225.92 87.0372 234.497 87.005 243.029L87.0036 243.302C87.0616 243.32 87.1169 243.35 87.1665 243.395C87.2184 243.441 87.2546 243.496 87.2777 243.554C85.0312 245.309 82.1065 246.304 78.5027 246.54L78.1787 246.56C74.8031 246.761 72.1855 246.598 70.3256 246.072L70.3437 245.832C70.2221 245.798 70.1005 245.761 69.9796 245.72C69.5719 245.585 69.182 245.418 68.8276 245.208L68.5365 245.036L68.2708 245.245C68.1422 245.25 68.0668 245.174 67.9831 245.085C67.6404 244.723 67.3014 244.063 66.9637 243.254L66.8923 243.08C65.7507 240.263 64.7367 235.861 64.4051 234.41L64.3615 234.22C58.1662 206.243 60.2797 177.42 62.5968 149.044L62.8119 146.413C62.983 144.324 63.1539 142.239 63.3214 140.156C63.8182 136.445 64.0195 132.648 64.2101 128.841L64.3046 126.963C64.6925 119.365 65.2218 111.773 68.2293 104.794C70.2804 99.5872 75.9132 98.2183 80.8864 97.1078L81.9236 96.8765C84.1435 96.2176 86.3735 95.6839 88.6032 95.1715L91.1404 94.5914C94.837 93.7429 98.5125 92.8467 102.037 91.4628C102.248 91.3797 102.459 91.2949 102.668 91.2084C102.519 91.0559 102.381 90.893 102.256 90.7201C101.57 89.7685 101.302 88.5234 101.372 87.2881C101.445 86.0067 101.884 84.7286 102.637 83.7817C102.905 83.5847 103.217 83.5483 103.536 83.5867L103.584 83.5931Z" fill="#9DDADB"/>
<path fill-rule="evenodd" clip-rule="evenodd" d="M109.341 75.7153C110.619 76.7471 109.286 84.1889 108.256 85.7073C115.222 90.1777 122.261 94.5456 129.446 98.6402L130.19 99.0628L130.167 99.0561C130.466 99.1896 130.971 99.3081 131.267 99.2494L131.47 99.1823C131.512 99.1689 131.536 99.1629 131.524 99.1723C131.644 99.1085 131.761 99.0414 131.874 98.9646C133.923 97.1021 135.416 93.9448 137.021 91.4898C134.288 89.0872 135.65 84.4052 135.76 81.2068C136.277 81.1938 136.338 82.8277 136.486 83.3017L136.569 83.7536C136.766 84.8121 136.99 85.8905 137.397 86.8745C138.579 85.3825 144.562 88.908 145.683 90.0425C146.904 90.8182 146.53 92.1981 146.514 93.4111C157.869 95.6131 172.348 97.1622 173.874 111.369C175.669 118.989 176.628 126.746 177.516 134.513L177.66 135.753C179.211 149.118 180.587 162.648 184.966 175.445L186.639 179.422C190.26 188.048 193.791 196.744 196.102 205.819C197.894 209.692 202.666 246.656 195.488 243.804C197.942 247.795 196.105 253.048 195.254 257.315C193.487 264.319 189.962 275.765 180.478 272.39C173.327 310.487 159.161 347.189 155.58 385.952C154.417 398.549 154.441 411.296 156.416 423.817C156.683 425.008 155.542 426.06 154.376 425.536C153.791 425.703 153.171 425.753 152.571 425.866C153.263 428.64 153.668 431.534 154.035 434.368L154.076 434.681H154.078C154.365 434.999 154.506 435.402 154.493 435.856C158.826 435.873 162.451 438.66 165.338 441.624C170.344 446.845 175.63 451.825 181.621 455.92C185.909 459.395 193.432 461.435 193.673 467.893C195.862 467.523 195.338 472.293 194.95 473.551C194.495 474.963 193.174 475.774 191.907 476.405C173.686 482.49 153.616 476.562 136.292 470.026C133.256 470.427 131.086 466.421 130.761 463.781C130.431 462.326 131.208 460.907 130.755 459.489L130.606 459.098C130.06 457.669 129.545 456.274 129.235 454.762L129.189 454.445C128.451 449.221 127.856 440.372 130.664 436C133.94 433.203 132.245 430.519 132.573 426.791C129.338 426.424 126.14 425.693 123.113 424.531C121.92 424.785 120.879 423.823 120.8 422.668L120.684 420.823C120.073 411.223 119.437 401.613 119.278 391.99C118.531 370.16 123.494 348.798 127.401 327.477C127.786 319.257 129.36 311.14 129.581 302.899C129.747 297.935 129.953 292.983 130.203 288.026C112.481 333.544 97.9366 380.331 87.4981 428.046C88.4582 428.697 88.563 430.466 87.1336 430.753C85.0426 431.167 82.9372 431.507 80.8231 431.764C81.1615 436.888 78.1037 443.817 80.9363 448.16L81.0496 448.333C81.5869 449.168 82.1132 450.119 81.5634 451.084C85.2446 457.973 88.4357 465.156 90.3994 472.743C92.6428 471.825 93.9208 476.371 93.8545 478.01C93.7104 480.163 94.8745 483.792 93.0127 485.264C83.2327 491.545 69.9568 490.571 59.2972 487.093C57.3201 486.248 55.0542 485.674 53.3595 484.322C52.5914 483.545 52.644 482.27 52.5813 481.258L52.5622 480.737C52.4617 477.833 52.4715 474.873 53.2694 472.012C53.056 467.87 53.6764 463.671 54.4934 459.615C55.017 456.344 56.5241 453.233 56.7268 449.932C57.7967 446.978 55.8672 444.214 56.3858 441.26C56.8092 439.461 58.1358 437.906 58.9039 436.23L58.9575 436.11C59.6526 434.585 60.1507 433.006 60.753 431.44C59.5993 431.223 58.4604 430.953 57.3378 430.629C56.8008 432.569 53.6928 432.021 53.7846 430.042C56.3372 398.158 61.4099 366.452 69.262 335.433C72.9255 317.087 82.3858 299.981 83.8119 281.259C82.6766 281.047 81.3836 280.993 80.2714 281.12L80.1387 281.137C79.4282 281.225 78.7455 281.349 77.9834 280.991C68.2068 274.973 69.2118 256.534 69.9534 246.442C69.5123 246.295 69.0902 246.114 68.7063 245.886C68.3666 246.138 67.8511 246.153 67.6528 245.688C67.1519 244.516 66.5088 243.371 66.0736 242.179C54.7453 203.359 61.9791 162.45 64.2597 122.878C65.1484 114.748 65.1551 103.71 73.2591 99.2293C75.9785 97.9456 79.0474 97.3945 81.9457 96.6542C88.5972 94.6771 95.5441 93.7916 101.986 91.2622C100.488 89.187 100.844 86.1606 102.093 84.0734C103.083 82.571 104.985 83.7206 106.16 84.3594C107.516 81.5967 108.447 78.6513 109.341 75.7153ZM90.8098 474.516L90.8697 474.793C91.1873 476.281 91.4613 477.843 91.3022 479.356C95.5153 483.448 76.1005 483.968 73.9579 483.958C69.0557 483.908 54.6418 482.28 53.929 476.388L53.937 476.532C54.0325 478.404 53.7139 481.902 54.7363 483.288C62.4655 487.293 71.4585 488.878 80.1096 487.894L80.4201 487.85C83.8688 487.38 90.4185 485.988 92.1199 483.124C91.7437 480.457 92.6673 476.635 90.8098 474.516ZM76.8284 448.056C72.0967 442.923 64.3247 446.674 59.335 449.538C59.1468 451.785 57.5656 452.613 57.5016 454.969C56.4384 462.172 53.9886 470.313 57.1097 477.269C66.4133 482.233 77.4769 481.896 87.5423 479.759C87.8059 479.416 88.1386 479.315 88.6139 479.185C88.9134 477.076 88.3081 474.953 87.9081 472.903C86.9018 468.601 85.6 464.372 84.442 460.106C82.3671 458.771 81.6087 455.967 80.526 453.851C80.2322 453.257 79.9321 452.663 79.6168 452.075C77.9275 451.524 77.4856 449.512 76.8284 448.056ZM132.296 462.216C131.787 467.393 136.854 469.455 140.95 470.697C145.56 472.329 150.283 473.688 155.033 474.859C164.763 477.356 174.907 478.451 184.881 476.886L185.055 476.855C187.932 476.351 193.088 475.744 193.742 472.423L193.749 472.346C193.793 471.802 193.878 469.752 193.673 469.232C193.598 469.228 193.524 469.212 193.453 469.178C192.62 471.835 189.582 473.451 186.654 473.868C185.273 475.25 182.729 474.739 180.888 474.816C168.738 474.696 157.057 470.947 145.543 467.463C141.88 466.194 134.577 465.283 132.296 462.216ZM133.34 435.569C131.231 434.828 130.83 440.716 130.561 442.152C129.881 448.23 129.897 457.709 134.835 462.022C139.987 464.218 145.547 465.23 150.861 466.959L152.119 467.326C162.192 470.266 172.543 473.014 183.115 472.58C183.913 470.991 188.976 472.313 190.906 469.479C193.496 464.979 186.957 462.082 183.862 460.163C177.92 456.361 172.369 451.942 167.363 446.978C165.01 444.645 162.857 441.971 160.093 440.095L159.949 439.999C157.58 438.433 154.541 437.465 151.76 438.49C149.052 439.491 148.058 442.572 145.787 444.164C140.725 447.435 135.542 442.268 133.897 437.592L133.848 437.449C133.789 437.305 133.95 437.215 134.072 437.255C134.06 437.208 134.052 437.161 134.042 437.115C133.404 436.951 133.343 436.157 133.34 435.569ZM61.3506 431.551C62.0116 435.276 60.1487 438.617 58.7588 441.911C58.3847 444.098 59.7598 446.19 59.4419 448.413C63.992 444.852 70.879 441.698 76.3691 444.949C76.3986 441.808 77.483 438.76 78.4253 435.793L78.8082 434.615C79.1063 433.7 79.4095 432.789 79.7448 431.888C73.6319 432.525 67.4427 432.589 61.3506 431.551ZM150.887 426.123C145.537 426.857 140.128 427.281 134.741 426.984L135.353 436.24C135.378 436.621 135.217 436.884 134.979 437.035C135.773 440.042 138.273 442.719 141.373 443.37C146.161 443.987 146.805 437.659 150.871 436.491C150.092 434.748 150.65 432.455 150.574 430.559C150.616 429.067 150.693 427.588 150.887 426.123ZM133.269 434.498C133.166 434.711 133.044 434.912 132.911 435.102C133.052 435.115 133.189 435.159 133.317 435.236C133.302 434.989 133.286 434.745 133.269 434.498ZM85.0838 245.878C80.401 247.495 75.2911 247.826 70.4673 246.597C71.5255 254.501 72.5885 273.223 79.3297 277.788C80.4687 277.624 81.6127 277.544 82.763 277.658C83.4474 277.727 84.1244 277.836 84.8031 277.941C85.058 277.977 85.5659 278.003 85.8901 277.98L85.9454 277.976C85.8593 277.982 85.7923 277.981 85.8824 277.975L86.0208 277.968L86.0918 277.962C88.4294 277.753 90.5388 274.462 92.8515 276.041C93.1912 275.529 93.7044 275.2 94.0987 274.744C95.854 271.68 93.9895 267.737 95.1623 264.507C94.7191 263.904 94.8651 263 95.5612 262.483C96.6456 261.49 98.9379 262.229 99.5623 260.803C99.5194 260.881 99.5164 260.791 99.5332 260.744L99.5372 260.735L99.427 260.644C94.6363 256.69 90.0041 252.272 86.8646 246.787L86.7594 246.602C86.1588 247.183 85.1719 246.739 85.0838 245.878ZM194.471 243.196C191.172 244.995 187.621 246.298 183.936 247.052C183.179 254.274 182.309 261.499 181.123 268.663L181.404 268.713C183.049 269.013 184.782 269.417 186.204 268.287C190.884 263.753 192.571 254.635 194.408 248.478L194.481 248.198C194.867 246.688 195.31 244.598 194.471 243.196ZM146.504 93.9164C146.012 96.3681 148.723 123.059 143.779 118.494C140.433 113.256 136.606 108.355 133.185 103.172C132.714 105.025 134.093 107.227 133.442 108.798C142.147 152.282 148.463 196.436 150.804 240.733C154.651 243.427 158.025 246.692 161.333 250.001C162.364 250.874 163.112 252.303 164.393 252.805C169.589 246.948 175.592 241.871 181.056 236.268C181.005 235.884 180.947 235.502 180.882 235.119C180.609 233.528 182.662 232.722 183.455 233.698C185.112 229.504 185.267 224.575 184.857 220.076C184.051 212.512 181.22 205.286 179.197 197.998C173.368 175.7 169.334 152.309 171.243 129.226C171.271 129.012 171.557 129.009 171.582 129.226C173.166 153.612 175.634 178.066 182.991 201.505L183.166 202.085C186.04 211.559 189.595 221.601 187.135 231.536C187.339 232.874 186.695 234.206 185.721 235.168C185.288 236.213 184.806 237.248 184.233 238.223C184.43 240.486 184.335 242.753 184.135 245.004C187.916 244.198 191.443 242.655 194.815 240.795C195.016 239.66 195.191 238.522 195.328 237.379C197.945 216.181 189.96 195.565 181.972 176.322C174.359 153.895 175.846 129.558 169.484 106.871C165.459 98.0247 154.465 97.3291 146.504 93.9164ZM103.353 92.2729L103.092 92.3643C101.259 93.0079 99.421 93.7536 97.4616 93.8086C91.3119 95.8484 85.0061 97.4142 78.7546 99.1165L78.1496 99.2817C75.4811 100.013 72.7864 100.849 70.9859 103.083C69.2594 105.224 68.5371 107.983 67.973 110.618C65.3289 133.638 63.8309 156.891 62.4876 180.048C61.829 199.33 62.2045 218.934 67.1489 237.696C67.8467 240.267 68.6962 242.846 68.9967 245.487C69.3562 245.492 69.7173 245.516 70.0801 245.552C70.0854 245.38 70.3487 245.408 70.3293 245.577C75.1337 246.333 80.127 245.886 84.6356 244.028C83.5221 210.251 76.2837 173.591 92.6793 142.256C92.7463 142.137 92.95 142.219 92.9041 142.351L92.4998 143.513C91.1994 147.258 89.9288 151.009 89.0142 154.871C90.3173 154.678 91.2677 157.72 91.5143 158.465C98.6203 179.969 94.2434 202.915 93.3389 225C105.574 233.866 117.928 242.587 130.643 250.759C136.418 247.019 141.591 242.113 147.525 238.721C145.829 193.097 136.488 147.955 131.411 102.894C129.528 105.226 127.61 107.532 125.695 109.838C123.232 112.852 120.85 115.944 118.421 118.987C117.919 119.619 116.824 119.373 116.466 118.737C111.683 110.12 108.641 100.605 103.353 92.2729ZM88.9322 155.215C81.8743 184.175 87.7386 213.998 87.6277 243.287C88.1526 243.75 87.958 244.628 87.3453 244.946C87.2549 245.349 87.1484 245.75 87.0237 246.151C87.5158 246.617 88.0116 247.08 88.5121 247.537C88.1315 241.161 91.3514 235.369 93.2173 229.382C91.8757 228.19 89.3623 227.451 89.6973 225.273C89.9566 220.537 90.2879 215.804 90.6899 211.08L90.9381 208.435C92.5021 191.667 93.8314 174.626 90.1535 158.043L90.1314 157.918C90.0115 157.192 89.7817 155.362 88.9322 155.215ZM194.788 243.024L194.73 243.055L194.858 243.163C194.832 243.119 194.809 243.072 194.788 243.024ZM152.569 233.157C150.933 231.559 153.459 229.026 155.074 230.661C156.708 232.262 154.181 234.795 152.569 233.157ZM151.491 214.156C151.13 213.211 152.135 211.712 153.198 212.34L153.231 212.361L153.246 212.341C154.252 212.933 153.881 214.159 153.29 214.89C152.635 215.562 151.82 214.764 151.491 214.156ZM149.955 192.28C147.109 188.566 153.088 187.042 152.108 191.615C151.899 192.47 150.178 193.718 149.955 192.28ZM145.747 171.582C144.237 169.743 147.484 168.16 148.163 170.356C148.552 171.821 146.718 172.724 145.747 171.582ZM160.858 125.952C161.752 126.091 166.273 125.17 165.11 127.046C166.929 136.104 172.045 147.155 164.741 155.069L164.676 155.133C163.598 156.206 161.875 158.754 160.227 157.704C156.568 154.628 151.854 152.43 149.057 148.493C147.882 145.405 148.883 141.954 148.572 138.724C148.439 134.637 147.756 130.588 147.61 126.508C147.603 126.31 147.818 126.246 147.953 126.33C152.244 125.99 156.557 126.065 160.858 125.952ZM148.099 126.616C150.04 132.913 150.084 139.646 150.032 146.173C150.062 146.846 150.182 147.5 150.534 148.014C153.309 151.275 157.263 153.319 160.557 156.027C161.891 155.159 162.947 154.05 163.892 152.791C169.681 145.243 164.435 135.741 164.442 127.336L163.7 127.337C158.504 127.344 153.259 127.276 148.099 126.616ZM143.731 150.002L143.781 150.003C145.772 150.008 145.315 153.37 143.436 152.909C141.852 152.535 142.094 150.023 143.731 150.002ZM139.825 132.842C138.446 130.5 142.998 129.594 142.519 132.299L142.529 132.188C142.531 132.166 142.533 132.147 142.535 132.13L142.501 132.384C142.335 133.58 139.965 134.438 139.825 132.842ZM136.77 113.444C138.035 113.11 138.968 114.881 137.883 115.674C136.27 116.887 134.881 113.866 136.77 113.444ZM105.753 86.008L105.598 85.8658C103.948 84.3554 102.71 83.5997 102.344 86.6786C102.089 88.18 102.308 90.0732 103.752 90.9614C110.667 97.7747 113.288 107.502 117.743 115.882C121.767 111.026 125.511 105.971 129.402 101.017C124.042 97.7617 118.628 94.5316 113.34 91.1347C110.813 89.4604 108.093 87.936 105.753 86.008ZM140.562 90.0245C138.483 93.4074 136.563 97.0664 133.911 100.06C133.573 100.399 133.222 100.667 132.859 100.872C133.378 100.722 134.065 101.109 133.999 101.676C137.86 105.511 141.015 109.972 144.03 114.485C144.607 107.019 143.508 99.5207 143.933 92.0426C142.954 91.1447 141.787 90.5298 140.562 90.0245Z" fill="black"/>
<path fill-rule="evenodd" clip-rule="evenodd" d="M148.615 49.714C148.261 46.6208 148.718 40.1553 148.749 39.7624C148.943 37.2794 147.775 27.4735 145.568 28.377C141.865 25.4562 136.933 24.8113 132.321 24.5032C122.742 23.8631 112.551 25.3324 105.155 31.7559C101.497 35.0917 97.9353 39.9437 98.2214 44.9955C94.898 49.7841 90.2125 56.3523 94.3533 61.9506C95.7609 63.739 97.9983 64.4053 99.7663 65.7598C103.323 68.6184 105.555 72.7206 109.145 75.5621C118.658 84.0794 134.81 85.8585 144.156 76.171C151.383 69.1547 150.214 58.6585 148.943 49.714C148.088 43.7005 149.304 55.7485 148.615 49.714Z" fill="#AE5D29"/>
<path fill-rule="evenodd" clip-rule="evenodd" d="M119.525 11.3858C122.087 10.8707 124.717 10.5502 127.333 10.6467L127.535 10.6544C129.504 10.7328 131.997 10.9062 133.714 12.0468C133.812 11.948 133.972 11.8973 134.116 11.9659C136.156 12.9364 138.401 13.6381 140.549 14.3354C142.688 15.0293 144.907 15.4873 147.149 15.672C147.992 15.7415 148.714 16.6489 148.18 17.4628C148.053 17.6567 147.929 17.8527 147.806 18.0491C148.012 18.0276 148.218 18.0055 148.424 17.9848C149.103 17.9167 149.78 18.6381 149.74 19.2961C149.715 19.71 149.67 20.119 149.604 20.5231C149.862 20.5177 150.119 20.5563 150.367 20.6608C151.624 21.1895 151.536 22.6807 151.442 23.8153C151.312 25.3898 150.721 27.0575 149.624 28.2359C150.443 29.0838 151.023 30.0964 151.369 31.299C151.62 32.1771 151.759 33.1126 151.69 34.0266L151.668 34.3003C151.583 35.2924 151.414 36.3908 150.698 37.1045C150.33 37.4723 149.877 37.6065 149.445 37.5638C149.706 39.8499 149.873 42.1493 150.031 44.4405L150.105 45.5353C150.457 50.8305 150.721 56.1601 150.652 61.464C150.587 66.4207 149.604 71.2316 146.553 75.2561C143.775 78.921 139.785 81.6224 135.272 82.6494C132.84 83.2039 130.356 83.2429 127.895 82.8898C126.701 82.7182 125.5 82.4548 124.368 82.0396C123.114 81.5783 122.213 80.8997 121.369 79.8823C120.97 79.4 121.162 78.373 121.957 78.4694C123.159 78.6146 124.255 78.7899 125.407 79.1437L125.572 79.1958C126.72 79.5619 127.908 79.8349 129.108 79.9511C131.564 80.1884 134.059 79.9494 136.413 79.2071C140.245 77.9971 143.545 75.3004 145.661 71.9118C148.172 67.8957 148.456 63.3365 148.419 58.7182C148.38 53.6507 148.215 48.5801 147.945 43.5179L147.899 42.6741C147.756 40.0692 147.618 37.4626 147.497 34.8558C147.46 34.038 147.402 33.214 147.298 32.3979C146.352 31.8452 145.503 31.0831 144.95 30.1428C143.839 30.6007 142.671 30.9311 141.595 31.1943C139.105 31.8046 136.52 31.9528 133.985 31.5706C133.301 31.8521 132.604 32.0995 131.896 32.3124C131.704 32.3969 131.513 32.48 131.322 32.5615C129.615 33.2892 127.883 33.9058 126.081 34.3571L125.638 34.4669C124.69 34.6999 123.66 34.9292 122.651 35.0013C122.486 35.065 122.307 35.1191 122.111 35.1665C121.192 35.3888 120.238 35.4592 119.296 35.3808C118.379 35.304 117.716 34.3798 118.221 33.5149C118.591 32.8836 118.963 32.254 119.339 31.6261C118.031 32.169 116.681 32.6203 115.318 33.003C113.943 33.3888 112.548 33.7142 111.151 34.0136C110.405 34.1722 109.655 34.313 108.909 34.4716C108.376 34.5844 107.557 34.6431 107.122 34.9933C106.641 35.3775 106.505 36.2737 106.323 36.8264C106.083 37.5444 105.858 38.2654 105.653 38.9947C105.245 40.45 104.91 41.927 104.65 43.4184C104.391 44.9114 104.217 46.4192 104.12 47.9319C104.024 49.4429 104.066 50.9637 103.91 52.4681C103.826 53.2661 102.967 53.6767 102.332 53.1189C102.257 53.0535 102.182 52.9874 102.108 52.9207L101.997 52.8199C101.453 52.3292 100.926 51.8092 100.492 51.2237C100.413 51.1155 100.337 51.0027 100.267 50.8882C100.255 50.8882 100.246 50.8852 100.234 50.8769L100.114 50.7864C98.7862 49.8021 96.5685 48.5187 95.2745 50.1542C94.8621 50.6753 94.6507 51.3385 94.4756 51.9787L94.168 53.1239C93.969 53.8716 93.7821 54.6237 93.6726 55.3887C93.4247 57.1027 93.5493 59.078 94.7328 60.4516C95.2055 61.0013 95.857 61.3935 96.584 61.4967C96.9896 61.5524 97.3899 61.4837 97.7919 61.4329C98.2006 61.3822 98.5946 61.464 99.0032 61.4246C99.6531 61.3608 99.9372 62.1362 99.6943 62.6235C99.563 62.8849 99.4086 63.1109 99.233 63.3021C99.3741 63.423 99.5087 63.5538 99.6384 63.6913C100.022 63.8138 100.367 64.0772 100.625 64.4257C100.833 64.7067 100.941 65.0125 100.96 65.3349C100.982 65.415 101.002 65.4968 101.02 65.5799L101.372 66.1493C101.45 66.2742 101.527 66.3977 101.604 66.5188C102.501 67.9251 103.495 69.1157 104.731 70.2376C105.921 71.3167 107.212 72.2833 108.33 73.4409L108.462 73.5784C109.504 74.6726 110.603 75.9971 110.195 77.5882C110.09 77.9971 109.516 78.2912 109.143 78.0148C107.939 77.1253 107.334 75.7157 106.313 74.6365C105.262 73.5244 104.099 72.5253 103.046 71.4165C102.049 70.3697 101.263 69.1841 100.671 67.8793C100.434 68.1394 100.09 68.324 99.6122 68.3961C98.7915 68.5186 98.0264 68.0396 97.669 67.3316C97.4392 67.4327 97.2044 67.5245 96.9679 67.5963C95.7241 67.9758 94.9412 66.5973 95.4108 65.5786C95.6617 65.0321 95.975 64.5578 96.3642 64.159C95.1479 63.9921 93.9104 63.3659 93.1111 62.5841C91.1059 60.6201 90.8302 57.6685 91.2814 55.0439C91.521 53.652 91.9343 52.2441 92.4713 50.9373C92.5648 50.71 92.6649 50.4814 92.7748 50.2554C92.7142 50.254 92.6515 50.2277 92.6123 50.1769C92.2496 49.6833 91.8084 49.2794 91.539 48.7266C91.2912 48.2196 91.0155 47.7062 90.8202 47.1779C90.4182 46.0971 90.2212 44.8771 90.0899 43.7338C89.8192 41.3937 89.9241 39.0685 90.2835 36.743C90.8955 32.7822 92.3738 28.9919 94.5519 25.666C94.4333 25.6039 94.3198 25.529 94.2139 25.4403L94.1617 25.3949L94.0766 25.3183C93.4552 24.7579 93.5088 23.7076 94.0766 23.1399L94.2558 22.9608C94.4829 22.736 94.6789 22.5579 95.0457 22.3131C95.1 22.277 95.1552 22.243 95.2112 22.2113C95.0192 21.8577 94.9526 21.4443 95.0862 20.9882C95.5522 19.3993 97.8465 19.4556 99.301 20.1484C100.91 18.7177 102.694 17.4757 104.627 16.47C109.233 14.0759 114.44 12.4062 119.525 11.3858ZM95.7194 53.2334C96.5793 52.9537 97.7216 53.5408 98.4944 53.894C99.4742 54.3423 100.308 55.0045 101.115 55.7045C101.518 56.0543 101.59 56.6267 101.49 57.1157C101.48 57.1648 101.47 57.2155 101.458 57.2662C101.352 57.7876 100.767 58.1982 100.25 58.1835C99.1687 58.1541 98.6538 57.2235 98.0415 56.4355C97.9695 56.563 97.879 56.6808 97.7671 56.7689L97.6918 56.828C97.4378 57.0206 97.1578 57.1748 96.8221 57.1598C96.584 57.1484 96.3562 57.088 96.1458 56.9782C95.6205 56.7018 95.3894 56.0249 95.5321 55.4738C95.6205 55.127 95.8242 54.8556 96.0899 54.6677L95.991 54.6C95.779 54.4531 95.5854 54.2979 95.4346 54.0692L95.4008 54.0152H95.4138C95.2497 53.7338 95.3566 53.3513 95.7194 53.2334Z" fill="black"/>
<path fill-rule="evenodd" clip-rule="evenodd" d="M129.422 69.6521C128.319 69.2038 127.335 68.4558 126.615 67.5002C126.365 67.1677 126.3 66.8169 126.352 66.4961C126.411 66.1353 126.626 65.8085 126.918 65.5892C127.211 65.3689 127.577 65.2605 127.932 65.3159C128.24 65.3639 128.546 65.5318 128.789 65.8803L128.84 65.9501C129.267 66.5269 129.825 67.0002 130.46 67.3052C131.073 67.599 131.757 67.7362 132.466 67.6564C133.815 67.5045 134.746 66.7772 135.735 65.7895C135.857 65.665 135.98 65.5362 136.103 65.4057C136.181 65.2872 136.289 65.2111 136.409 65.171C136.542 65.1266 136.693 65.1293 136.831 65.1774C136.964 65.2234 137.083 65.3112 137.162 65.4277C137.238 65.5388 137.281 65.6757 137.267 65.8332C137.177 66.857 136.639 67.7705 135.877 68.4875C135.029 69.2843 133.906 69.8354 132.849 70.0286C131.684 70.2416 130.497 70.089 129.422 69.6521ZM133.398 53.8616C134.638 54.6123 136.526 56.3627 135.193 58.2236C133.624 59.8641 131.364 57.9829 130.251 57.1321C129.218 56.4728 128.058 58.1688 129.016 58.9385C137.062 64.8739 140.327 54.0579 134.026 52.9791C133.331 52.8603 133.074 53.6296 133.398 53.8616ZM118.981 46.9572C119.118 45.2636 121.706 44.8791 121.964 46.555C122.194 48.0564 121.923 49.4353 121.244 50.7868C120.596 52.0782 118.966 51.4757 118.843 50.2998C118.677 48.724 118.895 48.0107 118.981 46.9572ZM138.685 46.2075C139.046 45.7366 139.567 45.4151 140.192 45.5967C142.142 46.1648 141.567 48.9239 140.882 50.2671C140.51 50.9964 139.307 51.1813 138.763 50.5391C137.877 49.492 137.452 47.4005 138.579 46.3688C138.609 46.3157 138.644 46.2619 138.685 46.2075ZM121.217 39.5468L121.525 39.4931C122.478 39.3288 123.663 39.171 124.337 39.9343C124.695 40.3392 124.818 41.0919 124.337 41.4794C123.492 42.1614 122.557 41.897 121.544 41.9548C120.709 42.0025 119.906 42.1403 119.102 42.3693C117.337 42.872 115.899 43.7892 114.392 44.7966C114.194 44.9288 113.993 44.6768 114.087 44.4925C114.957 42.7946 116.643 41.4 118.332 40.5495C119.233 40.0959 120.219 39.7194 121.217 39.5468ZM136.907 38.7861L137.143 38.8342C139.709 39.3689 143.044 40.4364 144.259 42.9481C144.305 43.3033 144.256 43.3797 144.217 43.4291L144.203 43.4458C144.171 43.4882 144.144 43.5469 143.99 43.5953C143.947 43.585 143.904 43.5743 143.86 43.5626C143.303 43.4174 142.862 43.2168 142.435 43.0089L141.973 42.7819C141.436 42.5195 140.894 42.2668 140.321 42.0803C139.096 41.6824 137.836 41.402 136.557 41.2521C136.28 41.2198 136.013 41.1266 135.802 40.9667C135.602 40.8152 135.45 40.6053 135.38 40.3259C135.29 39.9647 135.316 39.6913 135.51 39.3652C135.656 39.1206 135.866 38.951 136.106 38.8535C136.351 38.7541 136.63 38.7307 136.907 38.7861Z" fill="black"/>
<path fill-rule="evenodd" clip-rule="evenodd" d="M133.743 59.4155C131.918 58.5964 128.641 59.311 127.451 59.5951C124.684 60.2563 121.902 61.6846 121.042 63.9226C120.073 66.4447 122.006 67.2388 122.291 67.109C124.206 67.2435 126.486 66.0439 128.493 65.7344C130.122 65.4808 131.84 65.2598 133.367 64.3973C134.481 65.0081 136.998 65.3382 139.029 65.8723C140.759 66.3269 141.508 67.3129 143.112 67.103C145.035 66.852 144.248 62.8238 142.105 61.1919C139.761 59.4058 135.796 58.6815 133.743 59.4155ZM137.357 76.6393C135.76 77.0271 135.653 73.5401 135.474 72.3077C135.334 71.3454 134.546 68.863 132.548 68.9702C130.55 69.0773 129.798 71.1571 129.9 72.4506C129.965 73.2894 130.741 77.5382 128.265 78.0756C126.687 78.0702 124.86 77.9641 123.2 77.659C121.247 77.2181 118.706 75.6746 118.035 78.7144C117.794 79.8086 126.4 83.059 130.218 83.3531C134.092 84.1348 138.623 82.9325 141.38 79.9801C142.008 79.3086 143.774 76.5211 143.9 75.8378C144.165 74.4029 143.552 73.4796 141.77 73.9853C140.512 74.6552 138.384 76.3899 137.357 76.6393Z" fill="black"/>
<path fill-rule="evenodd" clip-rule="evenodd" d="M149.856 51.2314C148.291 61.7774 137.368 62.9436 135.427 52.474C135.739 52.3382 135.963 52.0705 135.916 51.5511C135.905 49.2697 136.616 46.8581 138.682 45.5894C140.816 44.2802 143.314 44.1504 145.784 44.1834C150.498 44.0716 150.399 47.9973 149.856 51.2314ZM133.717 46.6448C132.238 46.5827 130.366 46.6348 129.041 47.5327C128.677 46.5553 127.73 45.5112 126.774 44.9532C130.329 45.057 133.988 44.7082 137.57 44.4375C136.713 45.0199 135.915 45.8948 135.397 46.9061C134.916 46.6508 134.227 46.6745 133.717 46.6448ZM127.197 52.3496C123.095 66.419 112.855 60.2867 111.738 58.4836C109.725 55.4998 109.346 48.2463 111.1 46.307C113.611 44.5533 117.165 45.0049 120.131 44.9618C125.58 45.0349 129.45 46.6591 127.197 52.3496ZM154.699 45.8784C153.585 45.7332 152.394 45.7038 151.357 46.1928C151.039 44.8417 150.037 43.7118 148.906 43.2148C148.769 43.0436 148.789 42.9518 148.322 42.9775C145.451 42.1176 142.238 42.5726 139.478 43.4545C135.121 43.8199 130.549 44.1083 126.155 44.612C122.038 42.7702 109.616 42.5002 108.844 47.0403C107.872 46.8955 106.219 46.1338 105.403 47.1668C99.417 46.1558 93.2321 47.561 87.2207 48.1869C85.7076 48.4646 84.9281 51.457 86.6459 51.4159C87.6113 51.1549 86.6161 49.5527 87.9165 49.4322C93.7165 48.8011 99.3898 47.9055 105.249 47.8007C105.045 48.8087 109.125 48.8745 109.185 48.2857C109.194 48.29 109.203 48.293 109.212 48.297C108.204 52.0401 109.114 57.4271 110.935 59.7483C113.488 62.7878 119.896 63.6596 122.737 61.7043C126.403 59.8995 130.215 50.8395 129.144 47.8294C131.088 47.2156 133.01 47.3998 135.027 47.7126C134.566 49.0123 133.768 52.2124 134.915 52.4897C134.705 58.8431 140.508 62.8071 145.857 60.2009C150.486 58.0353 152.106 51.1806 151.539 47.0196C152.116 48.1295 156.955 46.9212 154.699 45.8784Z" fill="black"/>
</svg>
