<svg width="263" height="478" viewBox="0 0 263 478" fill="none" xmlns="http://www.w3.org/2000/svg">
<path fill-rule="evenodd" clip-rule="evenodd" d="M84.1195 238.183C83.9701 238.922 83.745 239.722 83.5107 240.439C84.6782 241.56 86.3309 243.063 87.517 244.149C86.344 236.919 89.9131 230.245 92.0973 223.406C91.2734 222.352 88.4039 221.273 88.4963 220.104C88.7178 215.773 89.0444 210.94 89.5156 205.518C91.1106 188.587 92.6977 170.93 88.9332 153.948C88.676 152.102 88.2858 150.161 85.8046 150.118C78.4765 179.221 84.4145 208.524 84.253 237.811L84.4661 238.002L84.1195 238.183ZM73.146 476.639C67.1247 476.642 61.5893 475.548 56.2308 473.337C54.6844 472.793 52.7635 472.119 52.4956 471.029C52.0551 468.039 52.3602 465.099 52.6829 461.99C53.1932 456.653 53.1423 452.508 54.5852 446.761C56.1296 441.427 57.4459 437.256 55.9387 431.74C55.818 430.096 57.1053 428.425 57.9553 426.888C59.1593 424.648 59.7702 422.314 60.7262 420.015C58.8477 419.686 56.8974 419.237 55.0939 418.68L54.7911 419.767C54.7246 420.008 54.5412 420.129 54.2465 420.129C54.0641 420.129 53.5975 420.041 53.5293 419.653C53.8122 415.45 54.2221 411.272 54.6528 407.003C59.1228 365.888 65.8916 331.995 77.2587 298.192C79.9886 290.276 82.7775 282.035 82.7974 273.433C81.2451 273.101 79.5167 272.91 77.9345 273.129C66.6627 270.522 68.891 246.729 69.3393 239.608C68.5445 239.37 67.6546 239.033 66.9952 238.581L66.7283 238.711C55.5354 210.991 60.132 165.161 62.6922 134.351C64.372 123.276 62.0093 103.271 71.8496 97.7982C79.7951 94.9905 87.705 93.4125 96.0077 91.5608C97.5453 90.68 99.4427 90.1776 101.158 89.6074L100.272 88.3642C99.1099 86.7296 99.2642 83.5243 100.785 82.3977C101.719 82.4495 103.032 83.3859 103.925 83.8258C105.21 81.1757 106.399 78.4034 107.252 75.2186L107.559 75.3283C108.457 66.3205 120.162 64.7482 126.761 67.7585C133.966 71.7049 130.213 80.6322 133.489 87.0768L134.676 85.4975C136.509 85.4637 140.387 87.8621 141.321 88.7621C141.989 89.0731 141.506 91.1661 141.603 92.0078C151.268 94.1914 164.497 94.7909 167.569 105.616C172.68 125.97 171.961 146.837 177.76 167.119C183.831 183.56 192.747 203.677 192.822 218.733C192.995 221.555 193.376 237.515 191.035 236.873L189.491 238.412C191.595 241.764 189.924 246.781 189.118 250.75C187.131 259.172 183.25 268.247 174.958 264.211C166.04 313.346 143.627 362.912 151.273 413.594C151.365 413.89 151.179 414.216 150.861 414.085L150.484 413.913C149.512 414.212 148.278 414.317 147.262 414.544C148.126 417.775 148.59 420.966 149.038 424.541C149.582 424.863 149.329 425.72 149.356 426.237C157.47 425.85 162.02 434.329 167.839 438.992C171.681 442.41 176.056 445.667 180.844 448.669C184.801 450.912 188.139 453.481 187.538 457.718C187.595 457.711 188.816 457.522 188.876 457.519C190.716 463.627 184.673 464.894 178.449 465.63C163.24 467.154 150.239 463.784 132.63 457.392C130.471 457.649 128.787 454.445 128.5 452.273C128.216 450.818 129.024 449.336 128.407 447.77C126.284 443.267 125.179 431.349 128.172 426.003C129.223 424.792 130.571 423.671 130.396 421.581C130.347 419.484 130.149 417.39 130.327 415.332C126.729 414.987 123.167 414.212 120.028 412.959C119.472 413.17 118.841 412.907 118.802 412.213C118.2 402.634 117.479 392.165 117.323 382.358C116.599 361.014 121.491 340.184 125.235 319.484C125.495 312.843 126.723 306.427 127.111 299.783C127.527 293.482 127.601 287.313 127.963 281.021L125.802 280.553C107.867 326.697 93.8205 372.876 83.9897 418.064C84.2119 418.253 84.8439 418.468 84.8172 418.852C84.8097 419.057 84.8146 419.07 84.6736 419.093C82.2984 419.569 79.9481 419.917 77.5941 420.191C78.2578 425.827 74.7178 432.346 77.8509 437.627C78.683 438.9 78.7189 439.164 78.2089 440.04C82.7736 448.519 85.6023 455.572 87.4354 463.152L88.6167 462.156C90.3291 463.396 90.3647 465.741 90.4022 468.219C90.2801 469.661 90.9866 471.175 89.9046 472.39C87.3 475.428 78.2223 476.623 73.146 476.639Z" fill="#AE5D29"/>
<path fill-rule="evenodd" clip-rule="evenodd" d="M79.1326 438.22C79.227 438.607 77.5821 438.783 77.6773 439.128C78.6732 442.459 81.4915 443.84 82.7657 447.044L83.3625 448.548C84.9722 452.609 86.5316 456.685 87.4958 460.993L87.6567 461.713C87.6567 461.713 90.7689 464.689 90.8551 466.75C90.8551 466.75 91.1859 471.992 90.1832 472.748C82.8708 477.723 72.9825 477.58 64.5303 476.274C61.1605 475.659 57.8711 474.636 54.7477 473.233C53.5672 472.832 52.6842 472.412 52.1441 471.716C51.6854 471.126 51.4958 470.345 51.5702 469.257C51.376 467.411 51.5183 465.649 51.6808 463.888L51.7572 463.067C51.8935 461.583 52.0113 460.095 51.9376 458.597C52.165 452.794 54.0086 447.031 55.3129 441.365L56.714 439.128C56.714 439.128 58.9743 435.817 61.8673 435.827C61.8673 435.827 66.8232 433.274 70.6599 433.752C74.4965 434.231 79.1326 438.22 79.1326 438.22ZM130.783 424.619C132.418 430.106 134.851 432.847 138.083 432.847C142.932 432.847 143.575 426.462 147.375 426.462C147.375 426.462 150.456 426.309 153.759 426.052C157.037 427.221 159.74 429.881 162.333 432.6L163.728 434.072C165.175 435.595 166.613 437.07 168.114 438.275C172.132 441.854 176.482 445.038 181.039 447.894L181.399 448.109C183.169 449.157 185.107 450.395 186.443 452C187.414 453.169 188.062 454.536 188.045 456.181L188.039 456.744C188.039 456.744 189.579 458.209 189.594 458.828L189.599 459.04C189.603 459.206 188.775 462.761 187.435 463.647C185.551 464.894 178.622 465.991 178.381 466.027C163.023 467.672 147.476 463.582 133.24 457.991L132.687 457.773C132.648 457.779 132.609 457.786 132.569 457.792C131.425 457.942 130.441 457.333 129.663 456.454C128.588 455.236 127.888 453.478 127.72 452.117C127.593 451.541 127.93 448.568 127.695 447.838C125.715 443.345 125.454 438.461 125.738 433.674C125.664 428.044 126.891 426.254 127.965 424.951L128.243 424.619H130.783Z" fill="white"/>
<path fill-rule="evenodd" clip-rule="evenodd" d="M100.899 81.5459L100.943 81.5527L128.855 97.6016L136.003 86.9937L138 85.6893L138.188 85.7847C139.529 86.4753 140.791 87.334 141.455 87.9403C141.822 88.1825 141.989 88.4241 142.076 88.6957C142.191 89.0529 142.186 89.4514 142.163 89.8549L142.141 90.1785C142.126 90.4104 142.111 90.6419 142.108 90.8675C142.107 90.9994 142.109 91.1336 142.114 91.2687L142.497 91.3433C142.91 91.4234 143.326 91.5025 143.746 91.5813L146.306 92.058C152.042 93.1328 158.107 94.4053 162.523 97.5234C165.842 99.8675 168.209 103.27 168.762 108.442C170.517 115.917 171.448 123.468 172.31 131.024L172.483 132.522L172.945 136.548C174.25 147.832 175.706 159.139 179.218 169.98L179.533 170.749C179.69 171.13 179.845 171.507 179.999 171.882L180.985 174.274C186.402 187.433 191.732 200.792 193.033 215.084C193.768 222.198 193.656 229.386 192.436 236.438C192.365 236.818 192.063 237.085 191.719 237.225C191.341 237.378 190.888 237.392 190.549 237.179L189.888 237.84C192.106 241.322 190.575 247.235 189.252 251.819L188.716 253.664C188.588 254.109 188.467 254.534 188.357 254.934C187.309 258.405 185.611 262.184 182.946 264.189C181.938 264.948 180.788 265.446 179.48 265.557C178.277 265.659 176.945 265.435 175.469 264.805C175.284 264.726 175.105 264.645 174.932 264.562L174.811 265.149C174.639 265.98 174.467 266.81 174.293 267.64L160.253 249.159L145.369 235.265L126.48 246.453L89.6833 221.326L89.5006 222.101L89.3518 222.004C88.8327 221.662 88.3328 221.301 88.0104 220.844C87.7657 220.497 87.6387 220.089 87.7236 219.533C87.9546 215.371 88.2388 211.21 88.5794 207.056L89.0758 201.577C90.3983 186.853 91.5048 171.994 88.8588 157.362C88.7553 156.771 88.6375 156.186 88.5174 155.6L88.4453 155.25C88.3481 154.778 88.2509 154.306 88.1601 153.833L88.1425 153.732L88.0822 153.359C87.9983 152.853 87.8645 152.166 87.625 151.646C87.3777 151.11 87.0158 150.767 86.5821 150.692C86.4291 150.665 86.2731 150.673 86.1172 150.713L86.0614 150.937C86.0522 150.975 86.0428 151.013 86.0336 151.05C81.3665 170.231 82.4792 189.795 83.6546 209.325L83.8161 212.012C84.3173 220.388 84.7806 228.754 84.7493 237.078L84.748 237.343C84.8044 237.361 84.8583 237.39 84.9066 237.434C84.9572 237.479 84.9924 237.532 85.0149 237.589C82.8267 239.301 79.9778 240.272 76.4674 240.502L76.1519 240.522C72.8637 240.718 70.314 240.559 68.5024 240.045L68.52 239.811C68.4015 239.779 68.2831 239.742 68.1653 239.703C67.7682 239.57 67.3884 239.408 67.0431 239.203L66.7596 239.035L66.5008 239.239C66.3755 239.244 66.3021 239.17 66.2205 239.083C65.8867 238.729 65.5565 238.086 65.2276 237.297L65.1581 237.127C64.0461 234.379 63.0583 230.084 62.7353 228.669L62.6929 228.484C56.6582 201.192 58.7169 173.075 60.9739 145.394L61.1834 142.827C61.3501 140.79 61.5166 138.755 61.6797 136.724C62.1636 133.103 62.3597 129.399 62.5454 125.685L62.6374 123.853C63.0153 116.442 63.5308 109.036 66.4604 102.228C68.4583 97.1483 73.9451 95.813 78.7894 94.7296L79.7996 94.504C81.962 93.8612 84.1342 93.3406 86.3061 92.8408L88.7775 92.2748C92.3783 91.4471 95.9585 90.5729 99.3912 89.2229C99.5971 89.1418 99.8023 89.0591 100.007 88.9748C99.8607 88.8259 99.7263 88.6671 99.6049 88.4984C98.937 87.5701 98.6753 86.3555 98.7441 85.1504C98.8152 83.9004 99.2427 82.6536 99.9756 81.7299C100.237 81.5378 100.541 81.5023 100.852 81.5397L100.899 81.5459Z" fill="#9DDADB"/>
<path fill-rule="evenodd" clip-rule="evenodd" d="M106.506 73.8611C107.751 74.8676 106.452 82.1271 105.449 83.6083C112.234 87.9693 119.091 92.2302 126.09 96.2245L126.815 96.6368L126.792 96.6302C127.083 96.7605 127.575 96.8761 127.864 96.8188L128.061 96.7533C128.102 96.7403 128.126 96.7344 128.115 96.7436C128.231 96.6814 128.345 96.6159 128.455 96.541C130.451 94.7241 131.905 91.6441 133.469 89.2493C130.807 86.9055 132.133 82.3381 132.241 79.2181C132.744 79.2054 132.803 80.7993 132.947 81.2616L133.028 81.7025C133.22 82.735 133.439 83.7871 133.835 84.747C134.986 83.2915 140.814 86.7306 141.906 87.8374C143.095 88.5941 142.731 89.9402 142.715 91.1235C153.776 93.2715 167.88 94.7827 169.366 108.641C171.115 116.075 172.049 123.642 172.913 131.219L173.054 132.428C174.565 145.466 175.906 158.665 180.171 171.148L181.801 175.028C185.327 183.442 188.766 191.925 191.018 200.779C192.764 204.557 197.411 240.615 190.42 237.833C192.811 241.727 191.021 246.851 190.191 251.013C188.471 257.846 185.037 269.011 175.799 265.719C168.833 302.883 155.035 338.686 151.546 376.5C150.413 388.789 150.437 401.224 152.361 413.437C152.621 414.6 151.51 415.626 150.374 415.114C149.804 415.277 149.2 415.326 148.616 415.437C149.289 418.143 149.684 420.966 150.042 423.73L150.082 424.036H150.083C150.363 424.346 150.5 424.74 150.488 425.182C154.708 425.199 158.24 427.917 161.052 430.809C165.928 435.902 171.076 440.76 176.912 444.755C181.089 448.145 188.417 450.134 188.652 456.435C190.784 456.073 190.274 460.726 189.896 461.954C189.453 463.331 188.166 464.122 186.932 464.738C169.183 470.674 149.633 464.891 132.759 458.515C129.801 458.906 127.688 454.999 127.371 452.423C127.049 451.003 127.806 449.62 127.365 448.236L127.22 447.855C126.688 446.461 126.186 445.1 125.884 443.625L125.84 443.316C125.12 438.22 124.541 429.588 127.277 425.322C130.468 422.594 128.816 419.976 129.136 416.339C125.985 415.981 122.87 415.267 119.921 414.134C118.759 414.382 117.745 413.444 117.668 412.317L117.555 410.517C116.96 401.152 116.341 391.778 116.186 382.39C115.458 361.095 120.292 340.256 124.098 319.457C124.473 311.439 126.006 303.52 126.222 295.482C126.383 290.638 126.584 285.808 126.828 280.973C109.565 325.376 95.3975 371.017 85.2296 417.563C86.1648 418.198 86.2669 419.924 84.8746 420.204C82.8378 420.607 80.787 420.94 78.7277 421.19C79.0573 426.189 76.0788 432.948 78.838 437.184L78.9483 437.354C79.4717 438.168 79.9843 439.096 79.4488 440.037C83.0346 446.758 86.1429 453.765 88.0557 461.166C90.241 460.27 91.4858 464.705 91.4212 466.304C91.2809 468.404 92.4148 471.944 90.6012 473.38C81.0748 479.508 68.1431 478.557 57.7598 475.164C55.834 474.34 53.6269 473.78 51.9761 472.461C51.2279 471.703 51.2791 470.459 51.2181 469.472L51.1995 468.964C51.1016 466.131 51.1111 463.243 51.8883 460.453C51.6805 456.412 52.2848 452.316 53.0807 448.359C53.5907 445.168 55.0587 442.134 55.2561 438.913C56.2983 436.032 54.4188 433.336 54.9239 430.454C55.3364 428.699 56.6285 427.182 57.3768 425.547L57.429 425.43C58.106 423.942 58.5912 422.402 59.1779 420.875C58.0542 420.663 56.9447 420.399 55.8513 420.083C55.3282 421.975 52.3008 421.441 52.3902 419.51C54.8766 388.408 59.8178 357.478 67.4664 327.218C71.0348 309.321 80.2499 292.635 81.639 274.371C80.5331 274.164 79.2736 274.111 78.1903 274.236L78.0611 274.252C77.369 274.338 76.704 274.459 75.9616 274.11C66.4385 268.239 67.4174 250.252 68.1398 240.407C67.7101 240.263 67.299 240.086 66.925 239.865C66.5941 240.11 66.092 240.124 65.8988 239.671C65.411 238.528 64.7845 237.411 64.3606 236.248C53.326 198.378 60.3722 158.471 62.5937 119.868C63.4594 111.938 63.4659 101.17 71.3598 96.7992C74.0087 95.5469 76.998 95.0093 79.8212 94.2871C86.3002 92.3585 93.0671 91.4947 99.3422 89.0272C97.8823 87.0028 98.2295 84.0505 99.446 82.0145C100.411 80.5489 102.263 81.6703 103.408 82.2935C104.729 79.5984 105.635 76.7252 106.506 73.8611ZM88.4555 462.895L88.5139 463.165C88.8232 464.617 89.0901 466.141 88.9351 467.616C93.039 471.608 74.1275 472.116 72.0405 472.106C67.2654 472.058 53.2252 470.469 52.5308 464.722L52.5387 464.862C52.6317 466.688 52.3213 470.101 53.3172 471.452C60.846 475.359 69.6059 476.906 78.0327 475.945L78.3352 475.903C81.6945 475.444 88.0743 474.086 89.7316 471.292C89.3652 468.691 90.2648 464.963 88.4555 462.895ZM74.8366 437.084C70.2275 432.076 62.657 435.735 57.7967 438.529C57.6133 440.721 56.0732 441.528 56.0109 443.827C54.9752 450.854 52.5889 458.795 55.6291 465.581C64.6915 470.423 75.4683 470.094 85.2727 468.01C85.5295 467.675 85.8535 467.577 86.3165 467.45C86.6082 465.392 86.0186 463.321 85.629 461.322C84.6488 457.125 83.3808 452.999 82.2528 448.838C80.2316 447.536 79.4929 444.801 78.4383 442.736C78.1521 442.157 77.8598 441.577 77.5527 441.004C75.9072 440.467 75.4768 438.503 74.8366 437.084ZM128.866 450.896C128.37 455.946 133.306 457.959 137.296 459.17C141.786 460.762 146.387 462.087 151.014 463.23C160.492 465.666 170.373 466.734 180.088 465.207L180.257 465.177C183.06 464.686 188.082 464.093 188.719 460.853L188.726 460.778C188.769 460.248 188.852 458.248 188.652 457.74C188.578 457.737 188.506 457.721 188.438 457.688C187.626 460.28 184.666 461.856 181.815 462.263C180.47 463.611 177.992 463.113 176.199 463.188C164.363 463.071 152.985 459.414 141.77 456.015C138.201 454.777 131.088 453.888 128.866 450.896ZM129.883 424.902C127.829 424.179 127.439 429.923 127.176 431.323C126.514 437.253 126.529 446.5 131.339 450.707C136.357 452.85 141.773 453.836 146.95 455.523L148.175 455.881C157.987 458.75 168.07 461.43 178.368 461.006C179.145 459.456 184.076 460.746 185.957 457.981C188.479 453.592 182.11 450.766 179.095 448.894C173.307 445.185 167.9 440.874 163.024 436.032C160.732 433.756 158.634 431.148 155.942 429.318L155.802 429.223C153.495 427.696 150.535 426.752 147.826 427.751C145.188 428.728 144.219 431.734 142.007 433.287C137.077 436.478 132.028 431.437 130.426 426.876L130.378 426.736C130.321 426.596 130.477 426.508 130.596 426.547C130.584 426.501 130.577 426.456 130.567 426.41C129.945 426.25 129.886 425.475 129.883 424.902ZM59.7601 420.982C60.4039 424.616 58.5893 427.875 57.2355 431.089C56.871 433.222 58.2105 435.263 57.9008 437.432C62.333 433.958 69.0414 430.881 74.3892 434.052C74.4179 430.988 75.4742 428.015 76.392 425.12L76.765 423.971C77.0554 423.079 77.3507 422.19 77.6773 421.311C71.723 421.933 65.6942 421.995 59.7601 420.982ZM146.976 415.687C141.764 416.404 136.495 416.817 131.248 416.528L131.844 425.557C131.868 425.928 131.711 426.185 131.48 426.332C132.253 429.266 134.689 431.877 137.708 432.512C142.372 433.114 142.999 426.941 146.96 425.801C146.201 424.101 146.745 421.864 146.67 420.015C146.712 418.559 146.787 417.117 146.976 415.687ZM129.814 423.857C129.713 424.066 129.595 424.261 129.466 424.446C129.603 424.46 129.736 424.502 129.86 424.577C129.846 424.336 129.83 424.098 129.814 423.857ZM82.878 239.856C78.3166 241.434 73.3392 241.757 68.6404 240.558C69.6712 248.268 70.7065 266.532 77.2731 270.985C78.3825 270.825 79.4968 270.747 80.6173 270.859C81.284 270.925 81.9434 271.032 82.6045 271.134C82.8528 271.169 83.3475 271.195 83.6634 271.173L83.7172 271.168C83.6333 271.174 83.5681 271.173 83.6559 271.167L83.7906 271.16L83.8598 271.155C86.1367 270.951 88.1915 267.741 90.4443 269.281C90.7751 268.781 91.275 268.461 91.6591 268.016C93.3689 265.027 91.5527 261.18 92.6951 258.03C92.2634 257.441 92.4057 256.559 93.0837 256.055C94.14 255.086 96.3729 255.807 96.9811 254.416C96.9393 254.492 96.9364 254.404 96.9527 254.359L96.9566 254.349L96.8493 254.261C92.1828 250.404 87.6707 246.094 84.6126 240.744L84.5101 240.563C83.9251 241.13 82.9638 240.697 82.878 239.856ZM189.429 237.24C186.216 238.995 182.756 240.266 179.167 241.002C178.43 248.047 177.583 255.095 176.427 262.083L176.701 262.132C178.304 262.425 179.992 262.819 181.377 261.716C185.935 257.294 187.578 248.4 189.368 242.393L189.439 242.119C189.815 240.646 190.247 238.608 189.429 237.24ZM142.706 91.6165C142.227 94.0081 144.867 120.045 140.051 115.592C136.793 110.483 133.065 105.702 129.732 100.646C129.274 102.453 130.617 104.601 129.982 106.133C138.462 148.553 144.614 191.625 146.894 234.838C150.642 237.465 153.928 240.651 157.151 243.878C158.155 244.731 158.884 246.124 160.131 246.614C165.193 240.9 171.04 235.947 176.362 230.482C176.312 230.108 176.256 229.734 176.192 229.361C175.927 227.809 177.927 227.022 178.699 227.975C180.313 223.884 180.464 219.075 180.064 214.686C179.279 207.308 176.522 200.259 174.551 193.149C168.873 171.397 164.944 148.579 166.803 126.061C166.83 125.852 167.109 125.849 167.133 126.061C168.676 149.85 171.081 173.705 178.246 196.57L178.417 197.136C181.217 206.378 184.68 216.174 182.283 225.866C182.482 227.171 181.855 228.471 180.906 229.409C180.485 230.428 180.015 231.438 179.457 232.389C179.649 234.596 179.556 236.808 179.361 239.004C183.044 238.218 186.479 236.713 189.765 234.898C189.96 233.791 190.131 232.681 190.264 231.566C192.814 210.887 185.035 190.776 177.254 172.004C169.839 150.127 171.287 126.385 165.09 104.254C161.169 95.6241 150.46 94.9455 142.706 91.6165ZM100.674 90.0131L100.419 90.1024C98.6338 90.7301 96.8434 91.4576 94.9348 91.5113C88.9446 93.5011 82.8023 95.0286 76.7128 96.6892L76.1235 96.8504C73.5242 97.5638 70.8994 98.3788 69.1455 100.558C67.4637 102.648 66.7602 105.339 66.2107 107.909C63.6352 130.365 62.176 153.049 60.8675 175.639C60.226 194.448 60.5918 213.572 65.408 231.875C66.0877 234.383 66.9152 236.899 67.2079 239.475C67.558 239.48 67.9098 239.504 68.2632 239.539C68.2684 239.371 68.5249 239.398 68.506 239.563C73.1858 240.3 78.0497 239.864 82.4414 238.052C81.3567 205.102 74.306 169.34 90.2765 138.772C90.3418 138.656 90.5402 138.736 90.4955 138.865L90.1016 139.999C88.8349 143.652 87.5973 147.311 86.7065 151.078C87.9758 150.89 88.9015 153.857 89.1417 154.585C96.0635 175.562 91.8001 197.946 90.919 219.49C102.837 228.139 114.871 236.647 127.256 244.618C132.882 240.969 137.92 236.184 143.7 232.875C142.048 188.368 132.95 144.332 128.004 100.374C126.17 102.65 124.302 104.899 122.436 107.148C120.037 110.088 117.717 113.105 115.351 116.073C114.862 116.689 113.795 116.45 113.447 115.829C108.787 107.424 105.824 98.1408 100.674 90.0131ZM86.6265 151.413C79.7517 179.664 85.4639 208.757 85.3559 237.329C85.8672 237.781 85.6776 238.637 85.0808 238.947C84.9927 239.341 84.889 239.732 84.7676 240.123C85.2469 240.577 85.7298 241.029 86.2173 241.475C85.8467 235.255 88.9831 229.605 90.8006 223.765C89.4937 222.602 87.0455 221.881 87.3718 219.756C87.6244 215.136 87.9471 210.519 88.3386 205.911L88.5804 203.33C90.1039 186.973 91.3987 170.349 87.8162 154.173L87.7947 154.05C87.6779 153.343 87.454 151.557 86.6265 151.413ZM189.738 237.073L189.681 237.103L189.806 237.208C189.781 237.165 189.758 237.119 189.738 237.073ZM148.614 227.447C147.02 225.889 149.48 223.417 151.054 225.012C152.645 226.574 150.184 229.045 148.614 227.447ZM147.564 208.911C147.212 207.99 148.191 206.528 149.226 207.14L149.258 207.16L149.273 207.141C150.253 207.718 149.891 208.915 149.316 209.628C148.678 210.283 147.884 209.505 147.564 208.911ZM146.067 187.571C143.296 183.948 149.119 182.461 148.165 186.922C147.961 187.757 146.284 188.973 146.067 187.571ZM141.968 167.38C140.497 165.586 143.66 164.042 144.322 166.184C144.701 167.613 142.914 168.494 141.968 167.38ZM156.687 122.868C157.558 123.003 161.962 122.105 160.829 123.935C162.601 132.771 167.585 143.551 160.469 151.272L160.406 151.334C159.357 152.38 157.679 154.866 156.073 153.841C152.509 150.841 147.917 148.697 145.193 144.857C144.048 141.844 145.023 138.478 144.72 135.327C144.59 131.34 143.925 127.39 143.783 123.41C143.776 123.217 143.986 123.155 144.117 123.236C148.297 122.905 152.499 122.978 156.687 122.868ZM144.259 123.515C146.15 129.658 146.193 136.226 146.142 142.593C146.172 143.25 146.288 143.888 146.631 144.39C149.334 147.57 153.186 149.564 156.395 152.206C157.694 151.359 158.722 150.277 159.643 149.049C165.281 141.686 160.172 132.417 160.179 124.217L159.456 124.219C154.395 124.225 149.286 124.159 144.259 123.515ZM140.004 146.329L140.053 146.329C141.993 146.334 141.548 149.614 139.718 149.164C138.175 148.8 138.41 146.349 140.004 146.329ZM136.2 129.588C134.857 127.304 139.291 126.42 138.824 129.059L138.834 128.951C138.836 128.93 138.838 128.911 138.84 128.895L138.806 129.142C138.645 130.309 136.336 131.145 136.2 129.588ZM133.224 110.665C134.456 110.34 135.365 112.068 134.308 112.841C132.737 114.024 131.384 111.077 133.224 110.665ZM103.011 83.9017L102.861 83.763C101.253 82.2896 100.047 81.5524 99.6907 84.5559C99.4424 86.0205 99.6555 87.8673 101.062 88.7338C107.798 95.3802 110.351 104.869 114.691 113.044C118.61 108.307 122.257 103.376 126.047 98.5432C120.826 95.3675 115.553 92.2166 110.402 88.9028C107.94 87.2695 105.291 85.7824 103.011 83.9017ZM136.918 87.8198C134.893 91.1199 133.022 94.6893 130.439 97.6097C130.11 97.9399 129.768 98.2017 129.414 98.4013C129.92 98.2554 130.589 98.6328 130.525 99.186C134.286 102.927 137.359 107.278 140.296 111.682C140.858 104.398 139.788 97.0835 140.202 89.7885C139.248 88.9126 138.111 88.3128 136.918 87.8198Z" fill="black"/>
<path fill-rule="evenodd" clip-rule="evenodd" d="M144.762 48.4965C144.417 45.479 144.863 39.1719 144.893 38.7887C145.081 36.3664 143.944 26.8007 141.794 27.6821C138.187 24.8328 133.383 24.2036 128.891 23.9031C119.56 23.2787 109.633 24.712 102.428 30.9782C98.8651 34.2323 95.3962 38.9655 95.6749 43.8936C92.4376 48.5649 87.8736 54.9723 91.9071 60.4335C93.2782 62.1781 95.4576 62.828 97.1798 64.1494C100.644 66.9379 102.818 70.9397 106.315 73.7116C115.581 82.0203 131.315 83.7558 140.418 74.3055C147.458 67.4612 146.32 57.2219 145.081 48.4965C144.249 42.6302 145.433 54.3832 144.762 48.4965Z" fill="#AE5D29"/>
<path fill-rule="evenodd" clip-rule="evenodd" d="M116.426 11.107C118.921 10.6045 121.484 10.2918 124.032 10.3859L124.229 10.3935C126.146 10.47 128.574 10.6392 130.247 11.7518C130.343 11.6554 130.498 11.606 130.639 11.6728C132.626 12.6196 134.813 13.3041 136.906 13.9843C138.989 14.6612 141.15 15.1081 143.334 15.2882C144.155 15.3559 144.859 16.2412 144.338 17.0351C144.214 17.2243 144.094 17.4155 143.974 17.607C144.175 17.5861 144.376 17.5646 144.576 17.5443C145.237 17.478 145.897 18.1817 145.858 18.8236C145.834 19.2273 145.79 19.6263 145.725 20.0205C145.977 20.0152 146.227 20.0529 146.469 20.1548C147.693 20.6706 147.607 22.1253 147.516 23.2321C147.389 24.768 146.813 26.3949 145.744 27.5444C146.543 28.3716 147.107 29.3593 147.444 30.5325C147.689 31.3891 147.825 32.3016 147.758 33.1933L147.736 33.4603C147.653 34.4281 147.488 35.4996 146.791 36.1958C146.432 36.5546 145.991 36.6855 145.571 36.6439C145.825 38.874 145.988 41.1171 146.142 43.3521L146.213 44.4201C146.556 49.5857 146.813 54.7847 146.746 59.9587C146.683 64.7941 145.726 69.4871 142.754 73.4131C140.047 76.9883 136.161 79.6235 131.765 80.6254C129.396 81.1662 126.977 81.2043 124.579 80.8598C123.417 80.6925 122.247 80.4356 121.143 80.0305C119.922 79.5805 119.044 78.9185 118.223 77.9261C117.834 77.4555 118.021 76.4536 118.795 76.5477C119.966 76.6894 121.034 76.8603 122.156 77.2055L122.317 77.2563C123.434 77.6135 124.592 77.8798 125.76 77.9931C128.153 78.2246 130.583 77.9915 132.876 77.2673C136.609 76.087 139.824 73.4564 141.884 70.1507C144.33 66.233 144.607 61.7854 144.571 57.2802C144.534 52.3368 144.372 47.3904 144.109 42.4521L144.065 41.629C143.926 39.0879 143.791 36.5452 143.673 34.0022C143.637 33.2044 143.58 32.4006 143.48 31.6045C142.557 31.0653 141.731 30.3219 141.192 29.4047C140.11 29.8513 138.972 30.1736 137.924 30.4304C135.499 31.0258 132.98 31.1703 130.511 30.7975C129.845 31.072 129.166 31.3134 128.476 31.5211C128.29 31.6036 128.103 31.6846 127.917 31.764C126.254 32.4739 124.568 33.0755 122.813 33.5157L122.381 33.6228C121.458 33.8501 120.454 34.0738 119.471 34.1441C119.31 34.2063 119.136 34.2591 118.945 34.3053C118.05 34.5222 117.121 34.5909 116.204 34.5143C115.31 34.4395 114.664 33.5378 115.156 32.6942C115.516 32.0783 115.879 31.4641 116.245 30.8516C114.971 31.3812 113.656 31.8215 112.329 32.1948C110.989 32.5711 109.63 32.8886 108.27 33.1806C107.542 33.3353 106.812 33.4727 106.086 33.6274C105.566 33.7374 104.769 33.7947 104.345 34.1363C103.877 34.5111 103.744 35.3854 103.566 35.9246C103.333 36.625 103.114 37.3283 102.914 38.0398C102.516 39.4594 102.19 40.9003 101.937 42.3551C101.685 43.8116 101.515 45.2824 101.421 46.758C101.327 48.2321 101.368 49.7156 101.217 51.1831C101.135 51.9617 100.297 52.3622 99.6786 51.8181C99.6059 51.7543 99.5328 51.6898 99.4604 51.6247L99.3523 51.5263C98.8231 51.0477 98.3098 50.5404 97.8866 49.9692C97.8096 49.8637 97.7362 49.7537 97.6673 49.642C97.6562 49.642 97.6468 49.6391 97.6353 49.6309L97.5182 49.5427C96.2251 48.5825 94.0649 47.3305 92.8044 48.926C92.4027 49.4343 92.1969 50.0813 92.0262 50.7058L91.7267 51.823C91.5328 52.5523 91.3507 53.2859 91.244 54.0322C91.0026 55.7043 91.124 57.6312 92.2768 58.9711C92.7372 59.5074 93.3719 59.89 94.0799 59.9906C94.4751 60.045 94.865 59.9779 95.2566 59.9284C95.6547 59.879 96.0384 59.9587 96.4365 59.9203C97.0695 59.8581 97.3462 60.6145 97.1097 61.0899C96.9818 61.3449 96.8313 61.5653 96.6603 61.7519C96.7977 61.8697 96.9289 61.9974 97.0552 62.1315C97.4291 62.251 97.7649 62.508 98.0158 62.8479C98.2191 63.1221 98.3245 63.4203 98.3421 63.7349C98.3643 63.813 98.3836 63.8928 98.4012 63.9739L98.7441 64.5294C98.8195 64.6511 98.8949 64.7716 98.9702 64.8898C99.8431 66.2616 100.812 67.4231 102.016 68.5175C103.175 69.5702 104.433 70.5131 105.521 71.6424L105.65 71.7765C106.665 72.8439 107.735 74.1359 107.338 75.6881C107.235 76.087 106.677 76.3739 106.313 76.1043C105.141 75.2365 104.551 73.8614 103.557 72.8087C102.533 71.7238 101.4 70.7492 100.374 69.6675C99.4036 68.6464 98.6377 67.4898 98.0608 66.217C97.8305 66.4707 97.4947 66.6507 97.0297 66.7211C96.2303 66.8406 95.485 66.3733 95.1368 65.6827C94.913 65.7813 94.6843 65.8709 94.4539 65.9409C93.2423 66.3111 92.4798 64.9663 92.9372 63.9726C93.1816 63.4395 93.4867 62.9768 93.8659 62.5877C92.6811 62.4249 91.4757 61.8141 90.6972 61.0515C88.7439 59.1356 88.4754 56.2562 88.9149 53.6959C89.1482 52.3381 89.5509 50.9646 90.0739 49.6899C90.165 49.4681 90.2625 49.2451 90.3696 49.0246C90.3105 49.0233 90.2495 48.9976 90.2113 48.9481C89.8579 48.4665 89.4282 48.0725 89.1658 47.5333C88.9244 47.0387 88.6558 46.5379 88.4656 46.0225C88.074 44.9682 87.8821 43.778 87.7542 42.6628C87.4906 40.3799 87.5927 38.1117 87.9428 35.8432C88.539 31.9794 89.979 28.2819 92.1006 25.0374C91.9851 24.9769 91.8745 24.9038 91.7714 24.8173L91.7204 24.7729L91.6376 24.6983C91.0323 24.1516 91.0845 23.127 91.6376 22.5732L91.8121 22.3985C92.0334 22.1792 92.2243 22.0055 92.5816 21.7667C92.6344 21.7314 92.6883 21.6982 92.7428 21.6673C92.5558 21.3224 92.4909 20.9191 92.621 20.4742C93.0749 18.9242 95.3098 18.9791 96.7266 19.655C98.2935 18.2593 100.031 17.0477 101.915 16.0666C106.401 13.7312 111.473 12.1024 116.426 11.107ZM93.2378 51.9298C94.0754 51.6569 95.1881 52.2297 95.9408 52.5741C96.8953 53.0114 97.7075 53.6575 98.4938 54.3403C98.8857 54.6815 98.9559 55.2399 98.8587 55.717C98.8489 55.7648 98.8394 55.8143 98.828 55.8638C98.7239 56.3724 98.1548 56.7729 97.6513 56.7586C96.5977 56.7299 96.0962 55.8221 95.4997 55.0534C95.4295 55.1778 95.3414 55.2927 95.2324 55.3787L95.159 55.4363C94.9117 55.6242 94.6389 55.7746 94.312 55.7599C94.0799 55.7489 93.8581 55.6899 93.6531 55.5828C93.1415 55.3132 92.9163 54.6529 93.0554 54.1153C93.1415 53.777 93.3399 53.5122 93.5987 53.3289L93.5024 53.2628C93.2958 53.1195 93.1072 52.9681 92.9604 52.7451L92.9274 52.6923H92.9402C92.7803 52.4179 92.8844 52.0447 93.2378 51.9298Z" fill="black"/>
<path fill-rule="evenodd" clip-rule="evenodd" d="M126.067 67.9463C124.992 67.509 124.034 66.7793 123.332 65.8471C123.089 65.5228 123.026 65.1806 123.076 64.8677C123.134 64.5157 123.343 64.1969 123.627 63.983C123.913 63.7681 124.27 63.6622 124.615 63.7163C124.915 63.7632 125.213 63.927 125.45 64.2669L125.499 64.335C125.916 64.8976 126.459 65.3593 127.078 65.657C127.674 65.9435 128.341 66.0773 129.032 65.9995C130.346 65.8513 131.252 65.1418 132.216 64.1783C132.335 64.0569 132.454 63.9312 132.575 63.8039C132.65 63.6883 132.756 63.6141 132.872 63.575C133.002 63.5317 133.149 63.5343 133.283 63.5812C133.413 63.6261 133.529 63.7117 133.606 63.8254C133.68 63.9338 133.722 64.0673 133.708 64.221C133.62 65.2197 133.097 66.1109 132.354 66.8103C131.529 67.5875 130.435 68.1251 129.405 68.3136C128.27 68.5214 127.114 68.3726 126.067 67.9463ZM129.94 52.5426C131.147 53.2749 132.987 54.9824 131.688 56.7977C130.159 58.3981 127.958 56.5629 126.874 55.7329C125.868 55.0898 124.738 56.7443 125.671 57.4951C133.508 63.2852 136.689 52.734 130.551 51.6816C129.875 51.5657 129.624 52.3163 129.94 52.5426ZM115.896 45.8073C116.029 44.1551 118.551 43.78 118.802 45.4149C119.026 46.8795 118.762 48.2246 118.101 49.543C117.469 50.8028 115.882 50.2151 115.761 49.0679C115.601 47.5307 115.813 46.8349 115.896 45.8073ZM135.09 45.0759C135.441 44.6165 135.949 44.3029 136.557 44.4801C138.457 45.0343 137.897 47.7258 137.23 49.036C136.867 49.7475 135.695 49.9279 135.165 49.3014C134.302 48.28 133.889 46.2397 134.986 45.2332C135.016 45.1814 135.049 45.129 135.09 45.0759ZM118.074 38.5783L118.374 38.5259C119.302 38.3657 120.457 38.2117 121.114 38.9564C121.462 39.3513 121.582 40.0856 121.114 40.4636C120.29 41.1288 119.379 40.871 118.392 40.9273C117.579 40.9739 116.797 41.1083 116.014 41.3317C114.295 41.8221 112.895 42.7169 111.427 43.6996C111.234 43.8285 111.037 43.5827 111.129 43.4029C111.977 41.7465 113.619 40.3861 115.264 39.5565C116.142 39.114 117.103 38.7467 118.074 38.5783ZM133.358 37.8362L133.587 37.8831C136.087 38.4048 139.335 39.4461 140.519 41.8963C140.564 42.2428 140.516 42.3173 140.478 42.3655L140.465 42.3818C140.433 42.4232 140.407 42.4805 140.257 42.5277C140.215 42.5176 140.173 42.5072 140.13 42.4958C139.588 42.3541 139.158 42.1584 138.743 41.9556L138.292 41.7342C137.769 41.4782 137.242 41.2317 136.683 41.0497C135.49 40.6616 134.263 40.3881 133.017 40.2419C132.746 40.2103 132.487 40.1194 132.281 39.9635C132.087 39.8156 131.938 39.6108 131.87 39.3383C131.782 38.986 131.807 38.7193 131.997 38.4012C132.139 38.1625 132.343 37.9971 132.577 37.902C132.816 37.805 133.088 37.7822 133.358 37.8362Z" fill="black"/>
<path fill-rule="evenodd" clip-rule="evenodd" d="M130.276 57.9604C128.498 57.1614 125.305 57.8585 124.146 58.1356C121.452 58.7806 118.741 60.1739 117.904 62.3572C116.96 64.8175 118.843 65.5921 119.12 65.4655C120.986 65.5967 123.207 64.4264 125.161 64.1246C126.748 63.8771 128.422 63.6616 129.909 62.8202C130.994 63.4161 133.446 63.7381 135.425 64.2591C137.11 64.7026 137.84 65.6644 139.402 65.4596C141.274 65.2148 140.508 61.2853 138.421 59.6933C136.137 57.951 132.275 57.2444 130.276 57.9604ZM133.796 74.7624C132.24 75.1407 132.136 71.7391 131.962 70.5369C131.826 69.5982 131.058 67.1766 129.111 67.2811C127.165 67.3856 126.433 69.4145 126.532 70.6763C126.596 71.4945 127.352 75.6393 124.94 76.1635C123.402 76.1583 121.623 76.0547 120.006 75.7571C118.103 75.327 115.629 73.8214 114.975 76.7867C114.74 77.8541 123.123 81.0249 126.842 81.3118C130.615 82.0743 135.029 80.9015 137.715 78.0214C138.326 77.3663 140.047 74.6471 140.17 73.9806C140.427 72.5808 139.831 71.6801 138.095 72.1734C136.869 72.8269 134.796 74.5191 133.796 74.7624Z" fill="black"/>
<path fill-rule="evenodd" clip-rule="evenodd" d="M145.971 49.9767C144.446 60.2645 133.807 61.4021 131.916 51.189C132.22 51.0564 132.438 50.7953 132.392 50.2886C132.382 48.0631 133.074 45.7105 135.086 44.4729C137.165 43.1958 139.598 43.0692 142.005 43.1014C146.596 42.9923 146.5 46.8218 145.971 49.9767ZM130.251 45.5025C128.81 45.4419 126.987 45.4927 125.696 46.3686C125.341 45.4152 124.419 44.3967 123.487 43.8523C126.95 43.9535 130.515 43.6133 134.003 43.3492C133.168 43.9174 132.391 44.7708 131.886 45.7574C131.418 45.5083 130.747 45.5314 130.251 45.5025ZM123.899 51.0675C119.903 64.7924 109.929 58.8103 108.842 57.0513C106.88 54.1407 106.511 47.0648 108.22 45.1729C110.665 43.4622 114.128 43.9027 117.017 43.8607C122.324 43.932 126.094 45.5165 123.899 51.0675ZM150.689 44.7549C149.603 44.6132 148.443 44.5846 147.433 45.0616C147.123 43.7435 146.147 42.6413 145.045 42.1565C144.912 41.9894 144.932 41.8999 144.476 41.925C141.68 41.0862 138.55 41.53 135.862 42.3903C131.618 42.7468 127.164 43.0281 122.884 43.5195C118.874 41.7228 106.774 41.4593 106.022 45.8883C105.076 45.747 103.465 45.004 102.67 46.0117C96.8395 45.0254 90.8149 46.3963 84.9594 47.0068C83.4855 47.2777 82.7262 50.1968 84.3995 50.1568C85.3399 49.9021 84.3705 48.3392 85.6372 48.2217C91.2868 47.6059 96.813 46.7323 102.521 46.6301C102.322 47.6134 106.296 47.6776 106.354 47.1032C106.363 47.1074 106.372 47.1103 106.381 47.1142C105.398 50.7657 106.285 56.0207 108.059 58.2851C110.545 61.2501 116.787 62.1006 119.555 60.1931C123.125 58.4326 126.839 49.5944 125.796 46.6581C127.69 46.0593 129.561 46.239 131.526 46.5441C131.077 47.812 130.3 50.9337 131.417 51.2043C131.212 57.402 136.865 61.269 142.075 58.7266C146.585 56.614 148.162 49.9272 147.611 45.8681C148.172 46.9508 152.886 45.7721 150.689 44.7549Z" fill="black"/>
</svg>
