<svg width="293" height="533" viewBox="0 0 293 533" fill="none" xmlns="http://www.w3.org/2000/svg">
<path fill-rule="evenodd" clip-rule="evenodd" d="M93.7149 265.589C93.5484 266.412 93.2976 267.305 93.0366 268.104C94.3373 269.355 96.1785 271.031 97.4999 272.242C96.1931 264.179 100.169 256.738 102.603 249.112C101.685 247.936 98.488 246.733 98.5909 245.429C98.8377 240.6 99.2016 235.211 99.7265 229.165C101.503 210.286 103.272 190.598 99.0776 171.662C98.7912 169.603 98.3564 167.439 95.5922 167.391C87.4282 199.843 94.0436 232.517 93.8636 265.174L94.101 265.387L93.7149 265.589ZM81.4896 531.482C74.7815 531.486 68.6147 530.266 62.6449 527.801C60.9222 527.194 58.7821 526.443 58.4837 525.226C57.9929 521.893 58.3328 518.615 58.6923 515.147C59.2609 509.196 59.2042 504.574 60.8117 498.166C62.5322 492.219 63.9987 487.568 62.3196 481.417C62.1851 479.584 63.6192 477.721 64.5662 476.007C65.9076 473.509 66.5881 470.906 67.6532 468.343C65.5604 467.976 63.3876 467.475 61.3784 466.854L61.0411 468.067C60.9669 468.336 60.7626 468.47 60.4343 468.47C60.2311 468.47 59.7113 468.372 59.6353 467.94C59.9505 463.252 60.4071 458.594 60.8869 453.834C65.8668 407.988 73.4078 370.195 86.0715 332.503C89.1127 323.675 92.2198 314.486 92.2419 304.895C90.5127 304.525 88.5871 304.312 86.8243 304.556C74.2668 301.649 76.7493 275.118 77.2488 267.178C76.3632 266.912 75.3719 266.536 74.6372 266.033L74.3398 266.178C61.8703 235.269 66.9912 184.165 69.8434 149.81C71.7148 137.461 69.0826 115.153 80.0453 109.051C88.8971 105.92 97.7093 104.161 106.959 102.096C108.672 101.114 110.786 100.554 112.697 99.9179L111.71 98.5316C110.415 96.709 110.587 93.1348 112.281 91.8786C113.322 91.9363 114.785 92.9805 115.78 93.4711C117.211 90.516 118.536 87.4247 119.486 83.8734L119.828 83.9958C120.828 73.9516 133.868 72.1983 141.221 75.5549C149.247 79.9554 145.067 89.91 148.716 97.096L150.038 95.3351C152.08 95.2973 156.401 97.9718 157.441 98.9753C158.186 99.3221 157.647 101.656 157.755 102.595C168.523 105.029 183.261 105.698 186.683 117.768C192.377 140.464 191.576 163.732 198.037 186.348C204.8 204.681 214.734 227.112 214.817 243.902C215.01 247.048 215.434 264.844 212.826 264.129L211.105 265.844C213.45 269.582 211.589 275.176 210.69 279.602C208.477 288.993 204.153 299.112 194.916 294.611C184.98 349.401 160.011 404.67 168.528 461.183C168.631 461.513 168.424 461.876 168.069 461.731L167.65 461.539C166.567 461.873 165.192 461.989 164.06 462.243C165.023 465.845 165.54 469.403 166.039 473.39C166.645 473.749 166.362 474.704 166.393 475.281C175.432 474.849 180.501 484.304 186.984 489.503C191.264 493.315 196.138 496.946 201.473 500.294C205.881 502.795 209.6 505.66 208.93 510.384C208.994 510.376 210.354 510.166 210.421 510.162C212.471 516.974 205.738 518.386 198.805 519.207C181.86 520.906 167.376 517.148 147.759 510.021C145.353 510.307 143.478 506.735 143.158 504.313C142.841 502.69 143.742 501.038 143.054 499.292C140.689 494.27 139.457 480.982 142.792 475.02C143.963 473.669 145.465 472.42 145.27 470.089C145.215 467.751 144.995 465.416 145.193 463.122C141.185 462.737 137.216 461.873 133.719 460.475C133.1 460.711 132.397 460.417 132.354 459.643C131.683 448.962 130.879 437.289 130.706 426.353C129.9 402.553 135.35 379.327 139.52 356.244C139.81 348.839 141.178 341.685 141.61 334.277C142.074 327.251 142.156 320.372 142.559 313.356L140.153 312.835C120.171 364.288 104.522 415.78 93.5703 466.168C93.8178 466.379 94.522 466.618 94.4921 467.047C94.4838 467.275 94.4892 467.29 94.3322 467.315C91.6861 467.845 89.0676 468.234 86.4452 468.539C87.1846 474.824 83.2407 482.093 86.7313 487.982C87.6583 489.401 87.6983 489.695 87.1301 490.672C92.2154 500.127 95.3668 507.991 97.4091 516.444L98.725 515.332C100.633 516.716 100.672 519.33 100.714 522.093C100.578 523.701 101.365 525.39 100.16 526.744C97.2582 530.132 87.145 531.464 81.4896 531.482Z" fill="#AE5D29"/>
<path fill-rule="evenodd" clip-rule="evenodd" d="M88.1592 488.643C88.2642 489.075 86.4317 489.271 86.5379 489.656C87.6473 493.37 90.7871 494.909 92.2067 498.482L92.8715 500.16C94.6648 504.687 96.4021 509.233 97.4763 514.036L97.6555 514.839C97.6555 514.839 101.123 518.157 101.219 520.456C101.219 520.456 101.587 526.301 100.47 527.144C92.3237 532.691 81.3075 532.532 71.8911 531.076C68.137 530.389 64.4723 529.249 60.9927 527.684C59.6775 527.238 58.6938 526.77 58.0921 525.993C57.581 525.335 57.3698 524.464 57.4527 523.251C57.2364 521.193 57.3949 519.228 57.5759 517.264L57.661 516.349C57.813 514.694 57.9442 513.034 57.862 511.364C58.1154 504.894 60.1693 498.468 61.6223 492.15L63.1833 489.656C63.1833 489.656 65.7014 485.963 68.9244 485.974C68.9244 485.974 74.4456 483.127 78.7199 483.661C82.9942 484.195 88.1592 488.643 88.1592 488.643ZM145.701 473.477C147.522 479.595 150.233 482.652 153.834 482.652C159.236 482.652 159.952 475.532 164.186 475.532C164.186 475.532 167.618 475.361 171.298 475.074C174.95 476.378 177.961 479.344 180.85 482.376L182.404 484.017C184.017 485.716 185.618 487.361 187.29 488.704C191.767 492.695 196.613 496.246 201.69 499.43L202.09 499.669C204.063 500.838 206.221 502.218 207.71 504.008C208.792 505.312 209.514 506.837 209.495 508.67L209.489 509.298C209.489 509.298 211.204 510.932 211.221 511.622L211.226 511.858C211.231 512.043 210.308 516.008 208.816 516.995C206.717 518.386 198.997 519.61 198.729 519.65C181.619 521.483 164.298 516.923 148.438 510.689L147.823 510.446C147.779 510.453 147.735 510.46 147.691 510.467C146.417 510.634 145.321 509.955 144.454 508.975C143.256 507.617 142.476 505.657 142.289 504.139C142.148 503.496 142.523 500.181 142.261 499.368C140.055 494.357 139.765 488.911 140.081 483.574C139.998 477.296 141.365 475.299 142.562 473.847L142.871 473.477H145.701Z" fill="white"/>
<path fill-rule="evenodd" clip-rule="evenodd" d="M112.408 90.9288L112.458 90.9364L143.553 108.832L151.516 97.0035L153.742 95.549L153.951 95.6553C155.445 96.4254 156.851 97.3829 157.591 98.0589C157.999 98.3291 158.186 98.5985 158.283 98.9013C158.41 99.2996 158.405 99.744 158.379 100.194L158.355 100.555C158.339 100.813 158.322 101.071 158.319 101.323C158.317 101.47 158.32 101.62 158.324 101.77L158.751 101.853C159.211 101.943 159.675 102.031 160.143 102.119L162.995 102.65C169.386 103.849 176.142 105.268 181.062 108.745C184.76 111.359 187.396 115.153 188.013 120.919C189.967 129.254 191.004 137.675 191.965 146.1L192.158 147.77L192.673 152.259C194.126 164.842 195.749 177.45 199.661 189.539L200.013 190.396C200.187 190.821 200.359 191.241 200.531 191.659L201.629 194.326C207.665 209 213.603 223.896 215.052 239.832C215.87 247.765 215.746 255.78 214.387 263.643C214.308 264.067 213.971 264.364 213.588 264.521C213.167 264.692 212.662 264.707 212.285 264.469L211.549 265.207C214.019 269.089 212.313 275.683 210.839 280.794L210.243 282.851C210.1 283.348 209.965 283.821 209.843 284.267C208.675 288.137 206.784 292.352 203.815 294.587C202.691 295.433 201.41 295.989 199.953 296.113C198.613 296.226 197.129 295.977 195.484 295.274C195.278 295.187 195.079 295.095 194.886 295.003L194.751 295.658C194.56 296.584 194.368 297.51 194.174 298.435L178.533 277.828L161.951 262.335L140.908 274.811L99.9134 246.793L99.7098 247.656L99.544 247.548C98.9657 247.167 98.4087 246.765 98.0496 246.255C97.7769 245.868 97.6355 245.413 97.73 244.793C97.9874 240.152 98.304 235.513 98.6836 230.881L99.2365 224.771C100.71 208.353 101.943 191.784 98.9947 175.468C98.8795 174.809 98.7483 174.157 98.6145 173.504L98.5342 173.113C98.4258 172.587 98.3175 172.061 98.2164 171.534L98.1968 171.421L98.1295 171.005C98.0361 170.441 97.8871 169.674 97.6203 169.095C97.3447 168.497 96.9415 168.115 96.4584 168.031C96.2879 168.001 96.1142 168.01 95.9404 168.054L95.8783 168.304C95.8681 168.346 95.8575 168.388 95.8473 168.431C90.6479 189.818 91.8875 211.633 93.1969 233.411L93.3768 236.406C93.9352 245.746 94.4514 255.075 94.4165 264.356L94.4151 264.653C94.4779 264.672 94.5379 264.705 94.5917 264.754C94.6481 264.804 94.6873 264.864 94.7124 264.927C92.2746 266.836 89.1007 267.919 85.1899 268.175L84.8384 268.197C81.1752 268.415 78.3346 268.238 76.3163 267.666L76.3359 267.405C76.204 267.368 76.072 267.327 75.9408 267.284C75.4984 267.136 75.0752 266.955 74.6906 266.726L74.3747 266.539L74.0865 266.766C73.9469 266.772 73.8651 266.689 73.7742 266.593C73.4023 266.198 73.0344 265.481 72.668 264.601L72.5906 264.412C71.3517 261.348 70.2513 256.559 69.8914 254.981L69.8441 254.774C63.1211 224.341 65.4146 192.99 67.9291 162.123L68.1625 159.261C68.3482 156.99 68.5336 154.721 68.7154 152.456C69.2545 148.418 69.473 144.288 69.6798 140.147L69.7823 138.104C70.2033 129.84 70.7777 121.582 74.0414 113.99C76.2672 108.326 82.3799 106.837 87.7768 105.629L88.9022 105.378C91.3113 104.661 93.7313 104.081 96.1509 103.523L98.9042 102.892C102.916 101.969 106.904 100.994 110.729 99.4891C110.958 99.3987 111.187 99.3065 111.414 99.2124C111.252 99.0465 111.102 98.8693 110.967 98.6812C110.223 97.6461 109.931 96.2918 110.008 94.9481C110.087 93.5542 110.563 92.164 111.38 91.1339C111.671 90.9197 112.01 90.8801 112.356 90.9219L112.408 90.9288Z" fill="#9DDADB"/>
<path fill-rule="evenodd" clip-rule="evenodd" d="M118.655 82.3598C120.042 83.482 118.595 91.5769 117.477 93.2285C125.037 98.0912 132.676 102.842 140.473 107.296L141.281 107.756L141.255 107.749C141.58 107.894 142.128 108.023 142.449 107.959L142.669 107.886C142.715 107.872 142.741 107.865 142.728 107.875C142.859 107.806 142.985 107.733 143.108 107.649C145.331 105.623 146.951 102.189 148.693 99.5185C145.727 96.9051 147.205 91.8122 147.325 88.3331C147.886 88.319 147.952 90.0962 148.113 90.6118L148.203 91.1034C148.416 92.2548 148.66 93.4279 149.101 94.4982C150.383 92.8753 156.876 96.7101 158.093 97.9442C159.418 98.788 159.012 100.289 158.994 101.608C171.317 104.004 187.03 105.689 188.685 121.142C190.634 129.431 191.674 137.869 192.637 146.317L192.794 147.666C194.477 162.203 195.971 176.922 200.723 190.841L202.538 195.167C206.467 204.55 210.299 214.009 212.807 223.881C214.752 228.094 219.93 268.301 212.141 265.199C214.804 269.541 212.811 275.254 211.886 279.895C209.969 287.514 206.144 299.964 195.852 296.293C188.091 337.734 172.719 377.657 168.833 419.821C167.571 433.524 167.597 447.39 169.741 461.009C170.03 462.305 168.792 463.449 167.527 462.879C166.892 463.06 166.219 463.115 165.568 463.238C166.318 466.255 166.758 469.403 167.157 472.486L167.201 472.827H167.203C167.515 473.172 167.667 473.611 167.653 474.105C172.356 474.123 176.29 477.155 179.422 480.379C184.855 486.058 190.591 491.475 197.092 495.93C201.745 499.709 209.909 501.928 210.171 508.953C212.547 508.55 211.978 513.739 211.557 515.108C211.064 516.643 209.63 517.526 208.255 518.212C188.481 524.831 166.702 518.383 147.902 511.273C144.607 511.709 142.253 507.352 141.9 504.48C141.542 502.897 142.385 501.354 141.893 499.811L141.731 499.386C141.139 497.832 140.58 496.315 140.243 494.67L140.194 494.325C139.393 488.643 138.747 479.017 141.795 474.261C145.35 471.219 143.51 468.299 143.867 464.244C140.356 463.844 136.885 463.049 133.601 461.786C132.306 462.062 131.176 461.016 131.091 459.76L130.964 457.752C130.301 447.31 129.611 436.857 129.439 426.389C128.628 402.644 134.014 379.407 138.254 356.214C138.671 347.273 140.38 338.444 140.62 329.48C140.8 324.08 141.023 318.693 141.295 313.302C122.063 362.814 106.279 413.707 94.9516 465.609C95.9935 466.317 96.1073 468.241 94.5561 468.554C92.287 469.004 90.0022 469.374 87.708 469.654C88.0752 475.227 84.757 482.764 87.8309 487.488L87.9538 487.677C88.5369 488.585 89.108 489.619 88.5114 490.669C92.5062 498.163 95.9691 505.976 98.1001 514.229C100.535 513.23 101.921 518.176 101.849 519.958C101.693 522.3 102.956 526.247 100.936 527.848C90.3229 534.681 75.9161 533.621 64.3484 529.838C62.2029 528.919 59.744 528.295 57.9049 526.824C57.0714 525.978 57.1284 524.591 57.0605 523.491L57.0398 522.925C56.9307 519.766 56.9412 516.545 57.8071 513.434C57.5756 508.928 58.2488 504.36 59.1355 499.949C59.7037 496.391 61.3391 493.007 61.5591 489.416C62.7202 486.203 60.6263 483.196 61.189 479.983C61.6485 478.026 63.0881 476.334 63.9216 474.512L63.9798 474.381C64.7341 472.722 65.2746 471.004 65.9283 469.301C64.6763 469.065 63.4403 468.771 62.2221 468.419C61.6394 470.529 58.2666 469.933 58.3662 467.78C61.1363 433.099 66.6411 398.61 75.1621 364.869C79.1376 344.913 89.4039 326.306 90.9514 305.941C89.7194 305.71 88.3162 305.651 87.1093 305.79L86.9654 305.808C86.1943 305.904 85.4535 306.039 84.6265 305.65C74.017 299.104 75.1076 279.046 75.9124 268.069C75.4337 267.908 74.9756 267.711 74.559 267.464C74.1904 267.738 73.631 267.754 73.4158 267.249C72.8723 265.973 72.1743 264.728 71.7021 263.431C59.4088 221.204 67.2588 176.705 69.7336 133.661C70.6981 124.817 70.7053 112.811 79.4997 107.937C82.4508 106.541 85.781 105.941 88.9262 105.136C96.1443 102.986 103.683 102.022 110.674 99.2709C109.048 97.0136 109.434 93.7216 110.79 91.4513C111.865 89.817 113.928 91.0675 115.203 91.7624C116.675 88.7572 117.685 85.5534 118.655 82.3598ZM98.5454 516.157L98.6105 516.458C98.9551 518.077 99.2525 519.777 99.0798 521.421C103.652 525.873 82.5831 526.439 80.258 526.428C74.9382 526.374 59.2965 524.602 58.5229 518.194L58.5316 518.35C58.6353 520.387 58.2895 524.192 59.399 525.699C67.7866 530.055 77.5457 531.78 86.9337 530.709L87.2707 530.662C91.0132 530.15 98.1208 528.636 99.9671 525.521C99.5589 522.62 100.561 518.462 98.5454 516.157ZM83.373 487.376C78.2383 481.791 69.8042 485.872 64.3895 488.988C64.1852 491.431 62.4693 492.332 62.3999 494.895C61.2461 502.73 58.5876 511.586 61.9746 519.152C72.0707 524.551 84.0768 524.184 94.9996 521.861C95.2857 521.487 95.6467 521.378 96.1625 521.236C96.4875 518.942 95.8306 516.632 95.3966 514.403C94.3045 509.723 92.8919 505.123 91.6352 500.483C89.3835 499.03 88.5605 495.98 87.3856 493.679C87.0668 493.032 86.7411 492.386 86.399 491.747C84.5658 491.148 84.0863 488.959 83.373 487.376ZM143.566 502.777C143.013 508.409 148.512 510.653 152.957 512.003C157.96 513.779 163.085 515.256 168.239 516.531C178.799 519.247 189.807 520.438 200.63 518.735L200.819 518.702C203.941 518.154 209.536 517.493 210.246 513.88L210.254 513.797C210.302 513.205 210.394 510.976 210.171 510.409C210.089 510.406 210.009 510.387 209.933 510.351C209.028 513.241 205.731 514.999 202.554 515.452C201.055 516.956 198.295 516.4 196.297 516.484C183.112 516.353 170.435 512.275 157.942 508.485C153.966 507.105 146.041 506.114 143.566 502.777ZM144.698 473.793C142.41 472.987 141.975 479.391 141.683 480.953C140.945 487.564 140.962 497.876 146.32 502.567C151.911 504.956 157.945 506.056 163.712 507.937L165.077 508.336C176.008 511.535 187.241 514.523 198.714 514.051C199.58 512.323 205.073 513.76 207.169 510.678C209.979 505.784 202.882 502.632 199.524 500.544C193.076 496.409 187.052 491.602 181.62 486.203C179.066 483.665 176.73 480.757 173.73 478.716L173.574 478.611C171.004 476.908 167.706 475.855 164.688 476.97C161.749 478.059 160.67 481.41 158.205 483.142C152.713 486.7 147.088 481.08 145.303 475.993L145.25 475.837C145.186 475.681 145.361 475.583 145.493 475.626C145.48 475.575 145.471 475.525 145.461 475.474C144.768 475.296 144.702 474.432 144.698 473.793ZM66.5768 469.421C67.294 473.473 65.2725 477.108 63.7642 480.691C63.3582 483.069 64.8504 485.346 64.5054 487.764C69.4432 483.89 76.9168 480.459 82.8746 483.995C82.9066 480.579 84.0834 477.264 85.1059 474.036L85.5215 472.754C85.845 471.759 86.174 470.768 86.5379 469.788C79.9043 470.481 73.1878 470.55 66.5768 469.421ZM163.741 463.518C157.935 464.316 152.065 464.777 146.219 464.454L146.883 474.523C146.91 474.936 146.736 475.223 146.477 475.387C147.339 478.658 150.052 481.57 153.416 482.278C158.612 482.95 159.311 476.066 163.723 474.795C162.878 472.9 163.483 470.405 163.401 468.343C163.447 466.72 163.53 465.112 163.741 463.518ZM144.622 472.627C144.509 472.86 144.378 473.077 144.233 473.284C144.386 473.299 144.534 473.346 144.673 473.43C144.657 473.161 144.639 472.896 144.622 472.627ZM92.3317 267.455C87.25 269.214 81.7048 269.574 76.4701 268.237C77.6185 276.835 78.7719 297.199 86.0875 302.165C87.3234 301.987 88.5649 301.9 89.8132 302.024C90.5559 302.098 91.2906 302.218 92.0271 302.332C92.3037 302.37 92.8548 302.399 93.2067 302.374L93.2667 302.37C93.1733 302.376 93.1006 302.375 93.1983 302.368L93.3485 302.361L93.4255 302.355C95.9622 302.127 98.2513 298.548 100.761 300.265C101.13 299.708 101.687 299.351 102.114 298.854C104.019 295.522 101.996 291.232 103.269 287.719C102.788 287.063 102.946 286.079 103.702 285.517C104.878 284.437 107.366 285.241 108.044 283.69C107.997 283.774 107.994 283.677 108.012 283.626L108.016 283.616L107.897 283.517C102.698 279.216 97.6711 274.41 94.2642 268.444L94.15 268.243C93.4983 268.875 92.4273 268.392 92.3317 267.455ZM211.037 264.538C207.457 266.494 203.603 267.912 199.605 268.732C198.783 276.588 197.839 284.447 196.552 292.239L196.857 292.294C198.642 292.62 200.523 293.06 202.066 291.83C207.144 286.899 208.975 276.981 210.969 270.283L211.048 269.978C211.467 268.336 211.948 266.063 211.037 264.538ZM158.984 102.158C158.45 104.825 161.392 133.858 156.027 128.892C152.396 123.195 148.243 117.864 144.531 112.226C144.02 114.242 145.516 116.637 144.809 118.345C154.256 165.645 161.11 213.674 163.65 261.859C167.825 264.788 171.487 268.34 175.077 271.939C176.195 272.89 177.007 274.443 178.397 274.99C184.036 268.619 190.55 263.096 196.479 257.002C196.424 256.584 196.361 256.168 196.29 255.752C195.994 254.021 198.222 253.144 199.083 254.206C200.881 249.644 201.049 244.282 200.604 239.389C199.729 231.162 196.657 223.301 194.462 215.373C188.137 191.119 183.759 165.675 185.83 140.566C185.86 140.333 186.171 140.33 186.198 140.566C187.917 167.092 190.596 193.692 198.579 219.188L198.769 219.819C201.888 230.124 205.746 241.047 203.076 251.855C203.297 253.31 202.599 254.759 201.542 255.805C201.072 256.942 200.549 258.068 199.927 259.128C200.141 261.589 200.038 264.056 199.82 266.505C203.923 265.628 207.751 263.949 211.411 261.926C211.628 260.691 211.819 259.454 211.967 258.211C214.807 235.152 206.142 212.727 197.473 191.795C189.212 167.4 190.825 140.927 183.921 116.25C179.553 106.627 167.623 105.87 158.984 102.158ZM112.158 100.37L111.874 100.47C109.885 101.17 107.89 101.981 105.764 102.041C99.0903 104.26 92.2474 105.963 85.4633 107.815L84.8068 107.994C81.9109 108.79 78.9868 109.699 77.0328 112.129C75.1592 114.458 74.3755 117.459 73.7633 120.325C70.894 145.365 69.2683 170.659 67.8106 195.848C67.0959 216.822 67.5034 238.146 72.869 258.555C73.6262 261.352 74.5481 264.157 74.8742 267.03C75.2643 267.035 75.6561 267.062 76.0498 267.101C76.0557 266.913 76.3414 266.944 76.3203 267.127C81.534 267.949 86.9526 267.463 91.8453 265.443C90.637 228.702 82.7819 188.825 100.574 154.74C100.647 154.61 100.868 154.699 100.818 154.843L100.379 156.107C98.9682 160.181 97.5893 164.261 96.5969 168.462C98.011 168.252 99.0423 171.561 99.3099 172.371C107.021 195.762 102.272 220.722 101.29 244.745C114.567 254.389 127.974 263.876 141.772 272.765C148.039 268.696 153.652 263.36 160.091 259.671C158.251 210.042 148.115 160.939 142.606 111.924C140.562 114.461 138.481 116.968 136.402 119.477C133.729 122.755 131.145 126.119 128.509 129.429C127.964 130.116 126.776 129.849 126.388 129.157C121.197 119.784 117.895 109.433 112.158 100.37ZM96.5079 168.835C88.8488 200.337 95.2126 232.777 95.0923 264.637C95.6619 265.141 95.4507 266.095 94.7858 266.441C94.6877 266.88 94.5721 267.316 94.4369 267.752C94.9709 268.259 95.5089 268.762 96.052 269.26C95.639 262.325 99.1332 256.024 101.158 249.512C99.7021 248.215 96.9746 247.411 97.3381 245.042C97.6195 239.89 97.979 234.742 98.4153 229.604L98.6846 226.726C100.382 208.487 101.824 189.95 97.8333 171.912L97.8093 171.776C97.6791 170.987 97.4298 168.996 96.5079 168.835ZM211.381 264.351L211.318 264.384L211.457 264.502C211.429 264.454 211.404 264.403 211.381 264.351ZM165.566 253.618C163.791 251.88 166.531 249.124 168.284 250.903C170.057 252.644 167.315 255.4 165.566 253.618ZM164.396 232.949C164.004 231.922 165.095 230.291 166.248 230.974L166.284 230.996L166.3 230.975C167.392 231.619 166.989 232.953 166.348 233.748C165.638 234.479 164.753 233.611 164.396 232.949ZM162.729 209.154C159.641 205.113 166.129 203.456 165.065 208.43C164.839 209.36 162.971 210.717 162.729 209.154ZM158.163 186.64C156.524 184.639 160.047 182.917 160.784 185.305C161.206 186.899 159.216 187.881 158.163 186.64ZM174.56 137.005C175.531 137.156 180.437 136.155 179.175 138.195C181.149 148.048 186.701 160.068 178.774 168.677L178.703 168.747C177.534 169.913 175.665 172.686 173.876 171.543C169.905 168.197 164.789 165.807 161.755 161.524C160.479 158.165 161.565 154.412 161.228 150.898C161.083 146.452 160.343 142.048 160.184 137.61C160.177 137.395 160.41 137.325 160.556 137.416C165.213 137.046 169.894 137.128 174.56 137.005ZM160.715 137.727C162.821 144.577 162.869 151.901 162.813 159C162.845 159.732 162.975 160.444 163.357 161.003C166.369 164.55 170.66 166.773 174.234 169.719C175.681 168.775 176.827 167.568 177.853 166.199C184.135 157.988 178.443 147.653 178.45 138.51L177.645 138.512C172.006 138.519 166.315 138.445 160.715 137.727ZM155.974 163.166L156.029 163.166C158.189 163.172 157.694 166.829 155.655 166.327C153.936 165.921 154.199 163.188 155.974 163.166ZM151.737 144.499C150.24 141.952 155.179 140.966 154.659 143.909L154.671 143.788C154.673 143.765 154.675 143.744 154.677 143.726L154.64 144.001C154.46 145.302 151.888 146.235 151.737 144.499ZM148.42 123.399C149.793 123.036 150.806 124.962 149.628 125.825C147.878 127.144 146.371 123.858 148.42 123.399ZM114.761 93.5557L114.594 93.401C112.803 91.7581 111.46 90.936 111.062 94.2851C110.786 95.9182 111.023 97.9776 112.591 98.9438C120.094 106.355 122.939 116.936 127.773 126.051C132.139 120.769 136.203 115.271 140.426 109.882C134.608 106.341 128.733 102.827 122.995 99.1322C120.252 97.311 117.301 95.6528 114.761 93.5557ZM152.536 97.9246C150.28 101.604 148.196 105.584 145.318 108.841C144.951 109.209 144.57 109.501 144.176 109.724C144.74 109.561 145.485 109.982 145.414 110.599C149.603 114.77 153.028 119.622 156.299 124.532C156.925 116.41 155.733 108.254 156.194 100.12C155.131 99.1431 153.865 98.4743 152.536 97.9246Z" fill="black"/>
<path fill-rule="evenodd" clip-rule="evenodd" d="M161.274 54.0766C160.891 50.712 161.387 43.6791 161.42 43.2518C161.631 40.5508 160.363 29.8845 157.968 30.8673C153.95 27.6901 148.598 26.9886 143.593 26.6535C133.198 25.9572 122.139 27.5555 114.112 34.5427C110.143 38.1712 106.278 43.4489 106.588 48.9441C102.982 54.1529 97.8973 61.2975 102.391 67.3871C103.918 69.3325 106.346 70.0572 108.265 71.5306C112.125 74.64 114.546 79.1022 118.443 82.1931C128.765 91.4578 146.294 93.393 156.435 82.8554C164.278 75.2234 163.01 63.8061 161.631 54.0766C160.703 47.5354 162.022 60.6407 161.274 54.0766Z" fill="#AE5D29"/>
<path fill-rule="evenodd" clip-rule="evenodd" d="M129.706 12.385C132.487 11.8247 135.341 11.476 138.18 11.581L138.399 11.5894C140.535 11.6747 143.241 11.8633 145.104 13.104C145.211 12.9965 145.384 12.9414 145.54 13.0159C147.755 14.0716 150.191 14.8349 152.522 15.5934C154.843 16.3482 157.251 16.8464 159.684 17.0473C160.599 17.1229 161.382 18.1099 160.802 18.9952C160.665 19.2062 160.531 19.4193 160.397 19.633C160.62 19.6097 160.844 19.5856 161.068 19.563C161.804 19.489 162.539 20.2737 162.496 20.9895C162.469 21.4397 162.42 21.8846 162.348 22.3241C162.628 22.3183 162.907 22.3602 163.176 22.4739C164.54 23.049 164.445 24.6711 164.343 25.9052C164.201 27.6179 163.56 29.4319 162.369 30.7137C163.258 31.6361 163.888 32.7375 164.263 34.0456C164.536 35.0009 164.687 36.0184 164.612 37.0126L164.588 37.3104C164.496 38.3894 164.312 39.5843 163.535 40.3606C163.136 40.7607 162.644 40.9067 162.176 40.8602C162.459 43.3469 162.64 45.8482 162.812 48.3404L162.892 49.5313C163.273 55.2911 163.56 61.0884 163.485 66.8578C163.415 72.2495 162.349 77.4825 159.038 81.8602C156.022 85.8468 151.693 88.7852 146.795 89.9024C144.156 90.5054 141.461 90.5479 138.79 90.1638C137.494 89.9772 136.191 89.6907 134.962 89.239C133.601 88.7373 132.624 87.9991 131.708 86.8925C131.275 86.3678 131.484 85.2506 132.346 85.3555C133.65 85.5135 134.84 85.7041 136.09 86.089L136.269 86.1456C137.514 86.5439 138.804 86.8409 140.106 86.9672C142.772 87.2254 145.479 86.9654 148.033 86.1579C152.192 84.8418 155.773 81.9085 158.069 78.2225C160.794 73.8539 161.102 68.8946 161.062 63.8711C161.02 58.3588 160.841 52.8433 160.548 47.3368L160.498 46.4189C160.343 43.5855 160.193 40.7502 160.062 37.9145C160.021 37.025 159.958 36.1287 159.846 35.241C158.819 34.6398 157.898 33.8108 157.298 32.788C156.092 33.2861 154.824 33.6454 153.657 33.9318C150.955 34.5957 148.149 34.7568 145.398 34.3411C144.656 34.6473 143.899 34.9164 143.131 35.148C142.923 35.24 142.716 35.3303 142.508 35.4189C140.656 36.2105 138.777 36.8812 136.822 37.3721L136.341 37.4916C135.312 37.745 134.194 37.9944 133.099 38.0728C132.919 38.1422 132.725 38.201 132.513 38.2526C131.516 38.4944 130.481 38.571 129.459 38.4857C128.463 38.4022 127.744 37.3968 128.292 36.456C128.693 35.7693 129.097 35.0845 129.505 34.4014C128.086 34.992 126.62 35.4829 125.142 35.8992C123.649 36.3188 122.136 36.6728 120.62 36.9985C119.809 37.171 118.995 37.3242 118.187 37.4966C117.608 37.6194 116.719 37.6833 116.247 38.0641C115.726 38.482 115.578 39.4569 115.38 40.0582C115.12 40.8391 114.876 41.6234 114.653 42.4167C114.21 43.9997 113.847 45.6064 113.565 47.2286C113.284 48.8527 113.095 50.4927 112.99 52.1382C112.885 53.7818 112.931 55.436 112.762 57.0724C112.671 57.9405 111.738 58.3871 111.049 57.7804C110.968 57.7092 110.886 57.6374 110.806 57.5647L110.685 57.4551C110.096 56.9214 109.524 56.3557 109.052 55.7188C108.967 55.6012 108.885 55.4785 108.808 55.354C108.796 55.354 108.785 55.3507 108.772 55.3416L108.642 55.2432C107.201 54.1725 104.795 52.7765 103.39 54.5555C102.943 55.1223 102.714 55.8437 102.523 56.5401L102.19 57.7859C101.974 58.5992 101.771 59.4172 101.652 60.2493C101.383 62.1138 101.518 64.2625 102.803 65.7565C103.316 66.3545 104.023 66.7811 104.811 66.8933C105.252 66.954 105.686 66.8792 106.122 66.824C106.566 66.7688 106.993 66.8577 107.437 66.8149C108.142 66.7456 108.45 67.589 108.187 68.1191C108.044 68.4034 107.877 68.6492 107.686 68.8572C107.839 68.9887 107.985 69.131 108.126 69.2806C108.543 69.4138 108.917 69.7003 109.196 70.0794C109.423 70.3851 109.54 70.7176 109.56 71.0684C109.585 71.1555 109.606 71.2445 109.626 71.3349L110.008 71.9543C110.092 72.0901 110.176 72.2244 110.26 72.3562C111.232 73.8859 112.311 75.181 113.652 76.4013C114.944 77.5751 116.345 78.6266 117.558 79.8857L117.701 80.0353C118.832 81.2255 120.024 82.6662 119.581 84.397C119.468 84.8418 118.846 85.1617 118.44 84.861C117.134 83.8934 116.477 82.3601 115.369 81.1863C114.229 79.9765 112.967 78.8898 111.823 77.6837C110.742 76.5451 109.889 75.2554 109.246 73.8361C108.99 74.119 108.616 74.3197 108.098 74.3982C107.207 74.5314 106.377 74.0104 105.989 73.2403C105.74 73.3503 105.485 73.4502 105.228 73.5282C103.878 73.9411 103.029 72.4415 103.538 71.3334C103.811 70.7391 104.151 70.2231 104.573 69.7892C103.253 69.6077 101.91 68.9266 101.043 68.0762C98.8668 65.9399 98.5676 62.7292 99.0573 59.8743C99.3172 58.3602 99.7658 56.8288 100.349 55.4073C100.45 55.1601 100.559 54.9114 100.678 54.6656C100.612 54.6641 100.544 54.6354 100.502 54.5802C100.108 54.0432 99.6291 53.6039 99.3368 53.0027C99.0678 52.4511 98.7686 51.8927 98.5567 51.318C98.1205 50.1423 97.9067 48.8153 97.7642 47.5717C97.4705 45.0262 97.5843 42.497 97.9743 39.9674C98.6385 35.6591 100.243 31.5361 102.606 27.9183C102.478 27.8508 102.354 27.7693 102.24 27.6728L102.183 27.6234L102.091 27.5402C101.416 26.9306 101.474 25.788 102.091 25.1706L102.285 24.9757C102.531 24.7312 102.744 24.5375 103.142 24.2712C103.201 24.2319 103.261 24.1949 103.322 24.1604C103.113 23.7758 103.041 23.3261 103.186 22.83C103.692 21.1017 106.182 21.1629 107.76 21.9166C109.506 20.3603 111.442 19.0093 113.54 17.9153C118.538 15.3111 124.189 13.495 129.706 12.385ZM103.873 57.9049C104.806 57.6007 106.046 58.2393 106.885 58.6235C107.948 59.1111 108.853 59.8314 109.729 60.5928C110.165 60.9733 110.244 61.596 110.135 62.1279C110.124 62.1813 110.114 62.2365 110.101 62.2917C109.985 62.8588 109.351 63.3054 108.79 63.2894C107.616 63.2575 107.058 62.2452 106.393 61.388C106.315 61.5267 106.217 61.6548 106.095 61.7507L106.014 61.8149C105.738 62.0244 105.434 62.1922 105.07 62.1758C104.811 62.1635 104.564 62.0978 104.336 61.9783C103.766 61.6777 103.515 60.9414 103.67 60.3419C103.766 59.9647 103.987 59.6695 104.275 59.4651L104.168 59.3914C103.938 59.2316 103.728 59.0628 103.564 58.8141L103.528 58.7553H103.542C103.364 58.4492 103.48 58.0331 103.873 57.9049Z" fill="black"/>
<path fill-rule="evenodd" clip-rule="evenodd" d="M140.447 75.7644C139.25 75.2768 138.182 74.4632 137.401 73.4237C137.129 73.062 137.059 72.6804 137.116 72.3315C137.18 71.939 137.412 71.5836 137.729 71.345C138.047 71.1054 138.445 70.9874 138.83 71.0477C139.164 71.1 139.496 71.2826 139.76 71.6616L139.815 71.7375C140.279 72.3649 140.884 72.8798 141.574 73.2116C142.238 73.5311 142.981 73.6804 143.75 73.5936C145.215 73.4284 146.224 72.6372 147.297 71.5629C147.43 71.4275 147.563 71.2873 147.697 71.1453C147.781 71.0164 147.899 70.9337 148.029 70.8901C148.173 70.8418 148.337 70.8447 148.487 70.897C148.631 70.9471 148.76 71.0426 148.847 71.1693C148.929 71.2902 148.975 71.4391 148.96 71.6104C148.862 72.724 148.279 73.7178 147.451 74.4977C146.532 75.3643 145.313 75.9638 144.166 76.174C142.901 76.4056 141.614 76.2397 140.447 75.7644ZM144.762 58.5883C146.107 59.4048 148.156 61.3088 146.709 63.333C145.006 65.1175 142.554 63.0712 141.346 62.1457C140.226 61.4286 138.967 63.2734 140.006 64.1107C148.737 70.567 152.281 58.8017 145.443 57.6283C144.689 57.499 144.41 58.3359 144.762 58.5883ZM129.116 51.078C129.265 49.2357 132.074 48.8174 132.353 50.6405C132.603 52.2736 132.309 53.7735 131.572 55.2436C130.868 56.6483 129.1 55.993 128.966 54.7138C128.787 52.9997 129.024 52.2238 129.116 51.078ZM150.499 50.2625C150.891 49.7502 151.456 49.4005 152.134 49.5981C154.25 50.216 153.627 53.2172 152.883 54.6783C152.479 55.4716 151.173 55.6727 150.583 54.9742C149.622 53.8352 149.161 51.5601 150.384 50.4379C150.417 50.3801 150.454 50.3217 150.499 50.2625ZM131.542 43.0172L131.877 42.9588C132.911 42.7802 134.197 42.6084 134.929 43.4388C135.317 43.8792 135.451 44.6979 134.929 45.1195C134.012 45.8612 132.997 45.5737 131.897 45.6365C130.991 45.6884 130.12 45.8384 129.248 46.0874C127.332 46.6342 125.772 47.632 124.137 48.7278C123.922 48.8715 123.703 48.5974 123.805 48.397C124.75 46.55 126.579 45.0331 128.412 44.1079C129.39 43.6145 130.46 43.205 131.542 43.0172ZM148.57 42.1898L148.825 42.2421C151.61 42.8237 155.229 43.9849 156.548 46.717C156.598 47.1033 156.545 47.1865 156.502 47.2402L156.487 47.2584C156.452 47.3045 156.423 47.3684 156.256 47.421C156.209 47.4098 156.162 47.3982 156.115 47.3854C155.51 47.2275 155.032 47.0093 154.569 46.7831L154.067 46.5362C153.484 46.2508 152.897 45.976 152.274 45.773C150.945 45.3402 149.578 45.0352 148.19 44.8722C147.889 44.837 147.599 44.7357 147.371 44.5618C147.154 44.3969 146.988 44.1686 146.912 43.8647C146.814 43.4718 146.842 43.1745 147.054 42.8197C147.212 42.5536 147.439 42.3692 147.7 42.2631C147.966 42.1549 148.269 42.1295 148.57 42.1898Z" fill="black"/>
<path fill-rule="evenodd" clip-rule="evenodd" d="M145.136 64.6295C143.156 63.7385 139.599 64.5159 138.308 64.8249C135.306 65.5441 132.286 67.0977 131.353 69.5322C130.301 72.2756 132.399 73.1394 132.708 72.9981C134.786 73.1444 137.261 71.8395 139.438 71.503C141.206 71.227 143.071 70.9867 144.727 70.0485C145.937 70.7129 148.668 71.072 150.872 71.6529C152.75 72.1474 153.563 73.22 155.303 72.9916C157.389 72.7186 156.535 68.3369 154.211 66.5618C151.666 64.619 147.363 63.8311 145.136 64.6295ZM149.058 83.3648C147.325 83.7866 147.209 79.9936 147.014 78.6531C146.863 77.6063 146.007 74.9061 143.839 75.0227C141.671 75.1392 140.855 77.4015 140.965 78.8085C141.037 79.7209 141.879 84.3425 139.191 84.9271C137.478 84.9213 135.497 84.8058 133.695 84.474C131.575 83.9943 128.818 82.3155 128.09 85.622C127.828 86.8122 137.167 90.3478 141.311 90.6677C145.514 91.5181 150.432 90.2102 153.424 86.9988C154.105 86.2683 156.022 83.2362 156.158 82.493C156.445 80.9321 155.781 79.9279 153.847 80.4779C152.481 81.2066 150.172 83.0935 149.058 83.3648Z" fill="black"/>
<path fill-rule="evenodd" clip-rule="evenodd" d="M162.621 55.7272C160.923 67.1987 149.07 68.4672 146.964 57.0789C147.302 56.9311 147.545 56.64 147.494 56.075C147.482 53.5934 148.254 50.9701 150.495 49.5901C152.811 48.1661 155.522 48.0248 158.203 48.0608C163.318 47.9391 163.211 52.2093 162.621 55.7272ZM145.108 50.7381C143.503 50.6706 141.472 50.7272 140.034 51.7039C139.638 50.6408 138.611 49.5051 137.573 48.898C141.431 49.0109 145.402 48.6315 149.289 48.3371C148.359 48.9706 147.493 49.9223 146.93 51.0224C146.408 50.7446 145.661 50.7704 145.108 50.7381ZM138.032 56.9435C133.58 72.2476 122.469 65.5771 121.257 63.6158C119.072 60.3702 118.661 52.4802 120.564 50.3707C123.289 48.4631 127.146 48.9543 130.365 48.9075C136.278 48.987 140.477 50.7537 138.032 56.9435ZM167.877 49.9045C166.668 49.7465 165.375 49.7146 164.251 50.2465C163.905 48.7768 162.818 47.5477 161.591 47.0071C161.442 46.8208 161.464 46.721 160.957 46.749C157.841 45.8137 154.354 46.3085 151.36 47.2678C146.631 47.6654 141.67 47.9791 136.901 48.527C132.434 46.5235 118.953 46.2298 118.115 51.1684C117.062 51.0108 115.267 50.1822 114.381 51.306C107.886 50.2062 101.174 51.7348 94.6506 52.4155C93.0086 52.7176 92.1627 55.9726 94.0268 55.928C95.0745 55.644 93.9945 53.9013 95.4057 53.7702C101.7 53.0836 107.856 52.1095 114.215 51.9954C113.994 53.0919 118.421 53.1635 118.486 52.523C118.496 52.5277 118.505 52.531 118.515 52.5353C117.421 56.6069 118.409 62.4666 120.386 64.9915C123.155 68.2977 130.109 69.2461 133.192 67.1191C137.17 65.156 141.308 55.3009 140.146 52.0267C142.255 51.359 144.34 51.5594 146.529 51.8996C146.029 53.3134 145.163 56.7943 146.408 57.096C146.179 64.0068 152.477 68.3187 158.281 65.4838C163.306 63.1282 165.063 55.672 164.448 51.1458C165.074 52.3531 170.325 51.0387 167.877 49.9045Z" fill="black"/>
</svg>
